<?xml version="1.0" encoding="UTF-8" standalone="no"?>
<svg
   width="261.36801"
   height="220"
   version="1.1"
   id="svg30"
   sodipodi:docname="una-usa-mobile.svg"
   xmlns:inkscape="http://www.inkscape.org/namespaces/inkscape"
   xmlns:sodipodi="http://sodipodi.sourceforge.net/DTD/sodipodi-0.dtd"
   xmlns:xlink="http://www.w3.org/1999/xlink"
   xmlns="http://www.w3.org/2000/svg"
   xmlns:svg="http://www.w3.org/2000/svg">
  <sodipodi:namedview
     id="namedview30"
     pagecolor="#ffffff"
     bordercolor="#000000"
     borderopacity="0.25"
     inkscape:showpageshadow="2"
     inkscape:pageopacity="0.0"
     inkscape:pagecheckerboard="0"
     inkscape:deskcolor="#d1d1d1">
    <inkscape:page
       x="0"
       y="0"
       width="261.36801"
       height="220"
       id="page2"
       margin="0"
       bleed="0" />
  </sodipodi:namedview>
  <defs
     id="defs1">
    <path
       d="m 0.768,80.17 c 0,43.906 35.594,79.5 79.502,79.5 43.906,0 79.497,-35.594 79.497,-79.5 C 159.767,36.262 124.176,0.669 80.27,0.669 36.362,0.669 0.768,36.262 0.768,80.17"
       id="a" />
    <path
       id="c"
       d="m 0.06,0.604 h 208.2 V 121 H 0.06 Z" />
  </defs>
  <g
     fill="none"
     fill-rule="evenodd"
     id="g30">
    <g
       transform="translate(49,7)"
       id="g3">
      <mask
         id="b"
         fill="#ffffff">
        <use
           xlink:href="#a"
           id="use2" />
      </mask>
      <path
         d="M 166.783,17.452 V 0.669 H 83.706 a 69.778,69.778 0 0 0 -13.687,0 H -2.504 V 17.452 H 30.111 A 82.628,82.628 0 0 0 13.168,36.222 H -2.504 V 53.005 H 4.768 C 2.593,59.035 1.151,65.333 0.581,71.778 H -2.504 V 88.56 H 166.783 V 71.778 H 85.934 V 53.005 h 80.849 V 36.222 H 85.934 v -18.77 h 80.849 M 0.768,124.113 H 159.767 V 107.331 H 0.768 Z m 0,35.557 H 159.767 V 142.887 H 0.768 Z"
         fill="#6084b4"
         mask="url(#b)"
         id="path3" />
    </g>
    <path
       fill="#fffffe"
       d="m 104.386,40.598 -6.308,-3.981 -5.895,3.981 1.721,-7.122 -5.447,-4.691 h 6.965 l 2.552,-7.157 2.826,7.157 h 6.895 l -5.241,4.691 1.932,7.122 m 20.685,-17.081 -6.309,-3.981 -5.895,3.981 1.721,-7.122 -5.446,-4.692 h 6.965 l 2.551,-7.156 2.826,7.156 h 6.896 l -5.241,4.692 1.932,7.122 m 0,64.074 -6.308,-3.984 -5.895,3.984 1.721,-7.125 -5.447,-4.691 h 6.965 l 2.551,-7.158 2.826,7.158 h 6.896 l -5.241,4.691 1.932,7.125 m 0,-31.87 -6.309,-3.981 -5.895,3.981 1.721,-7.122 -5.446,-4.691 h 6.965 l 2.551,-7.157 2.826,7.157 h 6.896 l -5.241,4.691 1.932,7.122 m -20.684,17.085 -6.311,-3.984 -5.895,3.984 1.724,-7.125 -5.447,-4.692 h 6.965 l 2.551,-7.157 2.826,7.157 h 6.896 l -5.241,4.692 1.932,7.125 M 53.057,64.468 50.83,62.55 c 0.057,-0.52 0.121,-1.038 0.164,-1.561 h 3.186 a 78.36,78.36 0 0 0 -1.123,3.479"
       id="path4" />
    <path
       d="m 64.947,72.806 -6.308,-3.984 -5.895,3.984 1.721,-7.125 -1.408,-1.213 a 78.36,78.36 0 0 1 1.123,-3.479 h 1.803 l 2.552,-7.157 2.826,7.157 h 6.895 l -5.238,4.692 1.929,7.125 m 19.858,-17.085 -6.308,-3.981 -5.895,3.981 1.721,-7.122 -5.446,-4.691 h 6.965 l 2.551,-7.157 2.826,7.157 h 6.895 l -5.241,4.691 1.932,7.122 m 10e-4,31.87 -6.308,-3.984 -5.898,3.984 1.724,-7.125 -5.446,-4.691 h 6.964 l 2.552,-7.158 2.825,7.158 h 6.896 l -5.241,4.691 1.932,7.125"
       fill="#fffffe"
       id="path5" />
    <g
       transform="translate(0,99)"
       id="g8">
      <mask
         id="d"
         fill="#ffffff">
        <use
           xlink:href="#c"
           id="use5" />
      </mask>
      <path
         d="m 205.394,100.306 c -13.765,3.768 -25.653,-1.502 -37.795,-5.179 -6.848,-2.074 -13.714,-4.118 -20.986,-4.062 -4.264,0.034 -8.384,0.76 -12.302,2.431 -1.19,0.51 -2.399,0.806 -3.6,0.864 -1.201,-0.058 -2.407,-0.354 -3.597,-0.864 -3.917,-1.671 -8.04,-2.397 -12.302,-2.431 -7.274,-0.056 -14.138,1.988 -20.988,4.062 -12.139,3.677 -24.028,8.947 -37.792,5.179 0.275,0.363 0.896,0.982 1.553,1.598 -0.52,-0.122 7.901,5.076 12.051,6.258 11.899,3.392 22.109,-1.054 31.988,-6.981 4.721,-2.831 9.588,-5.276 15.128,-6.103 a 16.064,16.064 0 0 1 6.877,0.446 c 0.566,0.16 1.382,0.521 1.505,0.952 0.283,1.004 -0.835,1.049 -1.417,1.332 -8.697,4.205 -16.433,9.836 -23.814,15.998 -3.043,2.538 -2.968,2.867 0.08,5.297 1.849,1.473 2.903,0.681 4.213,-0.707 5.866,-6.207 11.849,-12.252 18.907,-17.196 2.074,-1.449 4.95,-2.743 7.608,-3.795 2.658,1.052 5.538,2.346 7.608,3.795 7.061,4.944 13.044,10.989 18.907,17.196 1.313,1.388 2.367,2.18 4.216,0.707 3.048,-2.43 3.12,-2.759 0.078,-5.297 -7.381,-6.162 -15.118,-11.793 -23.814,-15.998 -0.582,-0.283 -1.701,-0.328 -1.415,-1.332 0.123,-0.431 0.939,-0.792 1.505,-0.952 a 16.05,16.05 0 0 1 6.874,-0.446 c 5.543,0.827 10.411,3.272 15.128,6.103 9.879,5.927 20.092,10.373 31.991,6.981 4.147,-1.182 12.572,-6.38 12.048,-6.258 0.657,-0.616 1.279,-1.235 1.557,-1.598"
         fill="#2a5a95"
         mask="url(#d)"
         id="path6" />
      <path
         d="m 159.628,121.001 c -1.473,0 -2.535,-1.126 -3.21,-1.842 -5.551,-5.873 -11.571,-12.026 -18.739,-17.046 -1.593,-1.116 -3.874,-2.266 -6.967,-3.51 -3.09,1.244 -5.372,2.392 -6.968,3.51 -7.17,5.022 -13.188,11.176 -18.739,17.046 -1.011,1.07 -2.898,3.062 -5.715,0.814 -1.692,-1.347 -2.73,-2.236 -2.744,-3.48 -0.013,-1.232 0.99,-2.161 2.645,-3.541 8.777,-7.327 16.414,-12.459 24.041,-16.147 0.101,-0.048 0.21,-0.093 0.328,-0.133 l -0.238,-0.078 a 14.952,14.952 0 0 0 -6.404,-0.414 c -5.626,0.841 -10.597,3.483 -14.72,5.957 -9.665,5.798 -20.337,10.668 -32.868,7.098 -0.47,-0.134 -9.156,-3.816 -11.982,-6.242 l -0.017,-0.005 0.004,-0.008 a 5.595,5.595 0 0 1 -0.401,-0.379 l -0.109,0.115 c -0.833,-0.78 -1.399,-1.364 -1.681,-1.738 l -1.98,-2.612 3.159,0.864 c 11.413,3.125 21.765,-0.223 31.777,-3.461 1.799,-0.582 3.6,-1.163 5.401,-1.708 6.77,-2.048 13.744,-4.223 21.319,-4.109 4.676,0.035 8.842,0.859 12.729,2.521 1.087,0.462 2.17,0.724 3.216,0.775 0.94,-0.051 2.023,-0.313 3.109,-0.775 3.888,-1.662 8.054,-2.486 12.731,-2.521 7.595,-0.094 14.55,2.061 21.317,4.109 1.804,0.545 3.602,1.126 5.401,1.708 10.012,3.238 20.364,6.583 31.778,3.461 l 3.159,-0.864 -1.98,2.612 c -0.286,0.376 -0.835,0.945 -1.678,1.738 l -0.11,-0.118 a 4.728,4.728 0 0 1 -0.403,0.382 l 0.003,0.008 -0.016,0.005 c -2.824,2.426 -11.513,6.108 -11.982,6.242 -12.529,3.573 -23.2,-1.3 -32.869,-7.098 -4.122,-2.474 -9.094,-5.116 -14.72,-5.957 a 14.834,14.834 0 0 0 -6.404,0.414 l -0.235,0.078 c 0.117,0.04 0.227,0.085 0.326,0.133 7.624,3.688 15.264,8.82 24.041,16.147 1.657,1.38 2.66,2.306 2.647,3.539 -0.016,1.243 -1.054,2.135 -2.743,3.482 -0.94,0.748 -1.775,1.028 -2.509,1.028 m -28.916,-24.794 0.411,0.163 c 3.463,1.372 6.028,2.652 7.835,3.917 7.341,5.143 13.449,11.387 19.077,17.344 1.294,1.371 1.649,1.451 2.714,0.599 0.587,-0.469 1.812,-1.446 1.905,-1.787 -0.085,-0.309 -1.366,-1.38 -1.846,-1.783 -8.636,-7.205 -16.129,-12.243 -23.588,-15.851 -0.088,-0.043 -0.2,-0.075 -0.312,-0.109 -1.46,-0.476 -2.028,-1.324 -1.689,-2.525 0.288,-1.017 1.548,-1.516 2.271,-1.721 a 17.345,17.345 0 0 1 7.343,-0.478 c 6.01,0.9 11.228,3.664 15.54,6.25 9.235,5.539 19.392,10.209 31.11,6.867 2.674,-0.761 7.149,-3.244 9.705,-4.772 -10.242,1.486 -19.528,-1.516 -28.551,-4.433 -1.785,-0.576 -3.57,-1.153 -5.361,-1.694 -6.607,-2.002 -13.401,-4.075 -20.654,-4.016 -4.377,0.035 -8.262,0.8 -11.873,2.342 -1.334,0.569 -2.674,0.889 -3.984,0.951 a 11.536,11.536 0 0 1 -4.088,-0.951 c -3.616,-1.542 -7.499,-2.307 -11.875,-2.342 -7.192,-0.075 -14.045,2.014 -20.655,4.016 -1.791,0.541 -3.576,1.118 -5.361,1.694 -9.017,2.915 -18.306,5.917 -28.535,4.433 2.575,1.537 7.082,4.026 9.69,4.772 11.715,3.342 21.876,-1.328 31.11,-6.867 4.312,-2.586 9.529,-5.35 15.539,-6.25 a 17.32,17.32 0 0 1 7.344,0.478 c 0.726,0.205 1.983,0.704 2.271,1.719 0.338,1.203 -0.23,2.051 -1.69,2.527 -0.112,0.034 -0.221,0.066 -0.312,0.109 -7.458,3.608 -14.954,8.646 -23.584,15.851 -0.484,0.403 -1.765,1.474 -1.847,1.831 0.09,0.293 1.315,1.27 1.905,1.739 1.062,0.847 1.417,0.772 2.711,-0.599 5.629,-5.957 11.737,-12.199 19.078,-17.344 1.809,-1.265 4.374,-2.548 7.835,-3.917 l 0.411,-0.163 M 33.947,54.48 c 0.971,0.647 1.791,0.876 1.791,0.876 0,0 0.28,0 0.05,-0.884 C 34.66,49.792 33.867,45.188 34.254,40.227 35.089,29.452 35.332,18.615 32.423,8.013 32.258,7.415 32.258,7.415 31.588,5.174 c -0.414,2.025 -1.27,5.491 -1.758,7.508 -2.17,8.952 -5.252,17.827 -2.162,27.194 0.106,0.133 0.066,0.143 0,0 0.491,1.771 0.261,1.844 -0.63,2.511 0,0 -2.466,-2.808 -3.415,-4.379 C 18.181,28.993 11.149,21.238 3.629,14.055 3.066,13.518 1.537,12.36 1.537,12.36 c 0,0 0.249,1.542 0.39,2.234 1.711,8.395 5.3,16.086 11.125,22.719 6.063,6.902 13.452,12.031 20.895,17.167"
         fill="#2a5a95"
         mask="url(#d)"
         id="path7" />
      <path
         d="M 35.737,56.47 35.438,56.428 C 35.336,56.4 34.418,56.131 33.33,55.408 L 33.314,55.397 C 25.997,50.348 18.431,45.123 12.216,38.049 6.473,31.511 2.644,23.695 0.835,14.816 0.69,14.112 0.44,12.538 0.44,12.538 l -0.441,-2.741 2.213,1.676 c 0.16,0.123 1.593,1.211 2.185,1.777 8.991,8.585 15.4,16.27 20.18,24.182 0.445,0.743 1.281,1.804 1.996,2.68 -2.741,-8.431 -0.683,-16.468 1.307,-24.241 0.294,-1.15 0.588,-2.298 0.865,-3.451 l 0.259,-1.067 c 0.491,-2.01 1.147,-4.711 1.494,-6.402 l 0.889,-4.347 1.268,4.251 c 0.675,2.26 0.675,2.26 0.843,2.863 3.007,10.967 2.674,22.149 1.865,32.596 -0.398,5.097 0.539,9.885 1.508,13.899 0.125,0.485 0.253,1.221 -0.174,1.774 l -0.336,0.435 z M 3.188,15.177 c 1.793,8.16 5.394,15.357 10.701,21.402 5.983,6.812 13.362,11.928 20.513,16.862 -0.888,-3.915 -1.638,-8.443 -1.259,-13.3 0.76,-9.807 1.097,-20.262 -1.438,-30.47 -0.184,0.772 -0.372,1.529 -0.537,2.207 l -0.259,1.068 a 271.31,271.31 0 0 1 -0.872,3.474 c -1.991,7.782 -3.872,15.136 -1.374,22.915 l 0.312,0.387 -0.11,0.341 c 0.377,1.596 0.123,2.264 -1.051,3.133 l -0.822,0.609 -0.79,-0.683 C 26.098,43.005 23.659,40.221 22.669,38.583 18.055,30.94 11.858,23.495 3.188,15.177 Z m 23.542,24.321 0.737,0.352 z"
         fill="#2a5a95"
         mask="url(#d)"
         id="path8" />
    </g>
    <path
       d="m 74.095,172.615 c -3.53,-2.519 -8.737,-6.626 -12.019,-9.554 0.243,1.132 0.497,2.272 0.651,2.845 0.918,3.365 2.106,5.596 4.185,8.499 3.711,5.183 8.947,8.217 14.493,10.899 -0.446,1.23 -1.263,1.457 -3.171,1.326 l 0.003,0.003 c -1.342,-0.259 -2.687,-0.483 -4.019,-0.774 -4.616,-1.012 -9.145,-2.258 -13.925,-2.621 -7.322,-0.56 -14.749,-0.445 -21.906,-2.503 l -4.552,-1.371 c 1.497,1.681 3.37,3.156 3.37,3.156 5.922,4.35 11.883,6.734 18.843,9.023 9.823,3.229 19.347,1.643 28.825,-1.206 3.515,-1.057 7.19,-1.791 11.075,-3.875 -3.277,-1.209 -5.551,-1.996 -8.416,-3.448 -5.847,-2.961 -6.552,-5.382 -13.437,-10.399"
       fill="#2a5a95"
       id="path9" />
    <path
       d="m 67.527,194.451 c -3.826,0 -7.787,-0.522 -11.827,-1.852 -7.229,-2.375 -13.255,-4.846 -19.155,-9.182 -0.109,-0.086 -1.999,-1.577 -3.544,-3.312 l -2.623,-2.949 8.329,2.512 c 5.326,1.531 10.968,1.838 16.422,2.135 1.753,0.095 3.504,0.191 5.249,0.325 3.843,0.294 7.555,1.15 11.144,1.977 0.974,0.227 1.954,0.451 2.933,0.667 0.894,0.195 1.793,0.361 2.692,0.524 l 1.297,0.242 c 0.406,0.027 0.713,0.032 0.95,0.017 -4.944,-2.496 -9.86,-5.573 -13.388,-10.501 -2.311,-3.221 -3.447,-5.538 -4.352,-8.855 -0.158,-0.587 -0.419,-1.748 -0.667,-2.903 l -0.716,-3.333 2.546,2.268 c 3.106,2.77 8.233,6.842 11.926,9.476 l 0.008,0.008 c 2.97,2.164 4.785,3.832 6.386,5.299 2.13,1.957 3.667,3.372 6.898,5.007 2.506,1.268 4.515,2.007 7.293,3.026 l 3.325,1.225 -2.18,1.169 c -3.133,1.684 -6.084,2.503 -8.942,3.293 -0.787,0.219 -1.567,0.438 -2.338,0.669 -5.337,1.605 -11.315,3.048 -17.666,3.048 m -29.394,-12.63 c 5.572,4.043 11.136,6.321 18.263,8.662 10.152,3.335 19.932,1.26 28.157,-1.215 0.787,-0.234 1.579,-0.456 2.382,-0.679 2,-0.553 4.049,-1.124 6.144,-1.999 -2.084,-0.775 -3.918,-1.503 -6.05,-2.581 -3.507,-1.777 -5.225,-3.354 -7.4,-5.353 -1.556,-1.431 -3.319,-3.051 -6.186,-5.137 -2.836,-2.025 -6.506,-4.886 -9.492,-7.379 0.806,2.757 1.855,4.809 3.864,7.62 3.403,4.744 8.086,7.647 14.075,10.543 l 0.901,0.434 -0.341,0.945 c -0.764,2.119 -2.538,2.178 -4.291,2.06 l -1.39,-0.251 a 88.163,88.163 0 0 1 -2.792,-0.544 c -0.987,-0.216 -1.972,-0.445 -2.957,-0.673 -3.509,-0.808 -7.135,-1.646 -10.813,-1.927 a 230.074,230.074 0 0 0 -5.198,-0.319 c -5.561,-0.305 -11.312,-0.617 -16.876,-2.207"
       fill="#2a5a95"
       id="path10" />
    <path
       d="m 53.518,158.452 c -1.761,-5.895 -6.204,-16.486 -12.041,-24.067 l -0.306,-0.339 c 0,0 0.432,2.481 0.496,3.005 0.852,6.754 1.67,12.896 3.066,19.28 0.958,4.376 3.48,8.085 4.462,12.392 0.085,0.512 0.224,0.803 0.224,0.803 0,0 -0.403,-0.053 -1.03,-0.023 -1.291,0.088 -2.129,-0.716 -3.029,-1.468 -4.533,-3.781 -9.27,-7.168 -14.706,-9.682 -5.337,-2.465 -10.461,-5.463 -15.016,-9.281 -1.089,-1.022 -1.089,-1.022 -2.476,-2.181 0.464,1.399 1.47,3.692 1.47,3.692 4.043,9.334 10.949,14.111 19.302,18.852 6.855,3.894 14.239,6.224 22.01,7.35 0.656,0.094 3.464,0.718 3.464,0.718 0,0 -1.06,-1.615 -1.506,-2.503 -2.508,-4.987 -2.825,-11.331 -4.384,-16.548"
       fill="#2a5a95"
       id="path11" />
    <path
       d="m 61.843,179.183 -2.676,-0.594 c -0.003,0 -2.741,-0.612 -3.381,-0.702 -8.217,-1.19 -15.753,-3.707 -22.403,-7.486 -7.955,-4.514 -15.451,-9.392 -19.774,-19.376 -0.037,-0.091 -1.03,-2.35 -1.505,-3.781 l -1.233,-3.712 3.005,2.506 c 1.414,1.182 1.414,1.182 2.524,2.223 4.067,3.408 8.9,6.393 14.72,9.081 4.833,2.236 9.583,5.361 14.952,9.838 l 0.208,0.176 c 0.683,0.574 1.145,0.943 1.684,1.023 -0.464,-1.77 -1.209,-3.483 -1.991,-5.289 -0.893,-2.063 -1.82,-4.193 -2.327,-6.522 -1.4,-6.405 -2.225,-12.566 -3.082,-19.38 -0.064,-0.514 -0.491,-2.948 -0.491,-2.948 l -0.657,-3.776 2.885,3.171 c 5.586,7.25 10.272,17.766 12.284,24.5 0.598,1.998 1.022,4.178 1.43,6.287 0.678,3.484 1.377,7.09 2.882,10.079 0.413,0.821 1.433,2.375 1.441,2.39 z m -45.92,-28.438 c 4.096,8.95 11.114,13.495 18.559,17.72 6.408,3.639 13.682,6.067 21.621,7.217 0.192,0.028 0.566,0.099 1.001,0.19 -0.072,-0.133 -0.139,-0.256 -0.198,-0.371 -1.641,-3.264 -2.369,-7.021 -3.076,-10.653 -0.417,-2.151 -0.811,-4.184 -1.377,-6.079 -1.663,-5.55 -5.188,-13.746 -9.49,-20.35 0.787,6.167 1.58,11.832 2.858,17.674 0.462,2.116 1.305,4.056 2.197,6.111 0.861,1.99 1.755,4.051 2.262,6.27 0.07,0.399 0.153,0.59 0.153,0.593 l 0.781,1.807 -1.943,-0.243 a 5.596,5.596 0 0 0 -0.829,-0.016 c -1.615,0.125 -2.717,-0.813 -3.597,-1.556 l -0.2,-0.168 c -5.287,-4.409 -9.746,-7.346 -14.459,-9.527 -5.54,-2.559 -10.22,-5.388 -14.263,-8.619 z m 3.907,-28.66 c 0,0 0.163,-3.087 0.272,-3.576 0.71,-3.16 0.948,-6.386 2.391,-9.417 4.705,-9.885 9.036,-19.921 10.293,-30.961 0.184,-1.179 0.544,-2.863 0.544,-2.863 0,0 -1.171,1.734 -1.958,2.791 -1.231,1.807 -2.434,3.632 -3.696,5.417 -3.966,5.604 -8.463,10.917 -9.66,18.005 a 514.55,514.55 0 0 0 -1.757,-0.013 L 15.654,100.83 C 15.406,97.964 14.368,95.319 13.324,92.683 11.045,86.935 8.326,81.742 6.34,75.481 5.935,74.206 5.895,74.016 5.198,71.097 4.358,74.305 3.584,77.093 3.509,80.058 3.144,94.98 10.194,107.128 18.002,119 c 0.35,0.531 1.828,3.085 1.828,3.085"
       fill="#2a5a95"
       id="path12" />
    <path
       d="m 20.745,125.887 -1.879,-3.246 c 0,0 -1.451,-2.504 -1.796,-3.031 C 9.441,108.005 2.02,95.39 2.396,80.031 c 0.075,-2.933 0.776,-5.61 1.59,-8.705 l 1.265,-4.817 1.129,4.745 c 0.6,2.511 0.648,2.716 1.022,3.89 1.246,3.929 2.818,7.504 4.339,10.963 0.894,2.033 1.785,4.064 2.618,6.167 1.006,2.543 2.047,5.166 2.364,8.067 l 0.019,0.016 0.355,0.002 c 1.254,-5.91 4.678,-10.631 7.998,-15.202 0.56,-0.774 1.12,-1.545 1.67,-2.325 0.873,-1.23 1.716,-2.482 2.557,-3.73 l 1.128,-1.671 c 0.803,-1.078 1.956,-2.783 1.959,-2.786 l 3.221,-4.774 -1.209,5.631 a 58.889,58.889 0 0 0 -0.533,2.799 c -1.306,11.456 -5.848,21.733 -10.39,31.27 -0.973,2.044 -1.363,4.195 -1.776,6.469 -0.166,0.907 -0.331,1.811 -0.532,2.714 -0.058,0.288 -0.173,1.985 -0.248,3.388 z M 5.216,75.619 c -0.33,1.513 -0.557,2.97 -0.592,4.465 -0.36,14.72 6.869,26.992 14.309,38.304 l 0.048,0.078 0.035,-0.201 c 0.197,-0.87 0.355,-1.748 0.515,-2.623 0.419,-2.319 0.854,-4.715 1.958,-7.029 4.195,-8.814 8.393,-18.258 9.933,-28.639 l -0.275,0.403 a 185.61,185.61 0 0 1 -2.562,3.741 c -0.558,0.788 -1.124,1.567 -1.689,2.346 -3.496,4.814 -6.794,9.362 -7.782,15.203 l -0.16,0.937 -3.181,-0.027 -1.195,-1.262 -0.032,-0.387 C 14.308,98.195 13.281,95.601 12.288,93.093 11.466,91.017 10.585,89.013 9.702,87.006 8.157,83.492 6.562,79.862 5.278,75.819 Z"
       fill="#2a5a95"
       id="path13" />
    <path
       d="m 17.38,86.482 c 0,0 1.031,-2.701 1.218,-3.184 1.387,-3.533 4.098,-6.057 6.561,-8.796 3.445,-3.832 7.032,-7.565 9.922,-11.851 2.058,-3.052 4.078,-6.177 4.648,-10.818 -4.301,3.507 -7.933,6.49 -11.591,9.441 -3.398,2.738 -6.354,5.826 -8.097,9.911 l -1.326,-0.677 c 1.174,-11.697 0.406,-23.388 0.155,-35.153 -3.288,3.845 -5.457,8.123 -6.44,12.841 -2.521,12.107 1.209,23.518 4.265,34.982 0.125,0.467 0.685,3.304 0.685,3.304"
       fill="#2a5a95"
       id="path14" />
    <path
       d="m 17.041,90.503 -0.752,-3.805 c 0,-0.003 -0.547,-2.778 -0.67,-3.237 L 14.726,80.157 C 11.913,69.841 9.009,59.172 11.342,47.969 12.35,43.123 14.6,38.635 18.024,34.632 l 1.897,-2.218 0.064,2.917 c 0.051,2.476 0.128,4.947 0.203,7.416 0.261,8.517 0.531,17.305 -0.195,26.005 1.623,-2.92 3.989,-5.559 7.442,-8.345 2.525,-2.033 5.034,-4.083 7.758,-6.308 l 5.98,-4.878 -0.338,2.748 c -0.625,5.065 -2.957,8.524 -4.833,11.304 -2.463,3.654 -5.442,6.936 -8.323,10.109 l -1.692,1.865 c -0.411,0.459 -0.83,0.91 -1.249,1.361 -2.069,2.234 -4.022,4.344 -5.103,7.098 -0.189,0.481 -1.214,3.171 -1.214,3.171 z m 0.793,-51.991 c -2.132,3.066 -3.578,6.388 -4.315,9.911 -2.22,10.679 0.614,21.084 3.355,31.15 l 0.816,3.007 c 1.252,-2.988 3.365,-5.273 5.414,-7.485 0.412,-0.443 0.823,-0.886 1.228,-1.337 l 1.697,-1.876 c 2.829,-3.112 5.754,-6.332 8.126,-9.852 1.401,-2.077 2.944,-4.361 3.843,-7.344 l -1.396,1.137 c -2.727,2.23 -5.241,4.283 -7.765,6.316 -3.928,3.168 -6.325,6.092 -7.771,9.481 l -0.467,1.097 -3.069,-1.563 0.077,-0.759 C 18.528,61.237 18.24,51.873 17.962,42.819 17.917,41.386 17.874,39.95 17.834,38.512 Z"
       fill="#2a5a95"
       id="path15" />
    <path
       d="M 26.642,53.156 C 30.485,49.663 35.064,47.192 39.144,44.037 44.521,39.874 49.773,35.586 53.331,28.4 45.154,32.72 37.479,36.048 31.36,41.974 30.456,41.294 35,22.313 37.001,12.861 c -3.215,2.575 -5.126,5.121 -6.719,7.963 -5.551,9.889 -5.433,20.809 -5.764,31.644 -0.026,0.864 -0.496,2.772 -0.496,2.772 0,0 2.057,-1.572 2.62,-2.084"
       fill="#2a5a95"
       id="path16" />
    <path
       d="m 22.185,58.046 0.755,-3.072 c 0.171,-0.693 0.449,-1.996 0.465,-2.54 l 0.067,-2.375 c 0.275,-10.018 0.557,-20.375 5.838,-29.781 1.917,-3.416 4.008,-5.895 6.997,-8.286 l 2.431,-1.948 -0.645,3.048 a 958.347,958.347 0 0 1 -1.732,7.893 c -1.332,5.989 -3.2,14.389 -3.811,18.413 4.729,-4 10.204,-6.807 15.961,-9.756 1.414,-0.723 2.85,-1.46 4.301,-2.226 l 3.048,-1.611 -1.529,3.09 c -3.565,7.197 -8.679,11.515 -14.507,16.022 -1.67,1.294 -3.437,2.481 -5.147,3.634 -2.485,1.668 -5.052,3.395 -7.285,5.428 -0.585,0.531 -2.479,1.983 -2.693,2.146 z M 35.181,16.003 c -1.508,1.561 -2.754,3.272 -3.931,5.366 -5.008,8.927 -5.283,19.003 -5.55,28.751 l -0.067,2.381 -0.005,0.058 c 0.106,-0.088 0.197,-0.165 0.264,-0.226 V 52.33 c 2.356,-2.14 4.993,-3.915 7.541,-5.628 1.679,-1.131 3.416,-2.297 5.028,-3.546 4.662,-3.606 8.843,-7.078 12.048,-12.036 -0.331,0.168 -0.656,0.336 -0.985,0.505 -6.417,3.287 -12.48,6.393 -17.388,11.152 l -0.685,0.661 -0.761,-0.573 c -1.004,-0.756 -1.075,-1.802 3.496,-22.36 0.349,-1.569 0.686,-3.088 0.995,-4.502 z"
       fill="#2a5a95"
       id="path17" />
    <path
       d="m 41.965,26.121 c 4.95,-3.424 9.724,-6.976 13.182,-12.097 2.354,-3.485 5.228,-6.617 8.454,-9.374 1.81,-1.558 2.613,-2.552 2.613,-2.552 0,0 -0.993,0.006 -2.506,0.382 -0.827,0.131 -1.694,0.427 -2.46,0.718 -10.312,3.918 -16.7,11.758 -21.269,21.394 -0.314,0.665 -1.585,3.8 -1.585,3.8 0,0 2.967,-1.855 3.571,-2.271"
       fill="#2a5a95"
       id="path18" />
    <path
       d="m 36.069,31.158 1.295,-3.184 c 0,0 1.291,-3.184 1.609,-3.858 5.38,-11.355 12.331,-18.331 21.88,-21.957 0.744,-0.283 1.721,-0.627 2.681,-0.78 1.529,-0.384 2.626,-0.395 2.672,-0.395 l 2.348,-0.016 -1.476,1.828 c -0.035,0.046 -0.886,1.092 -2.751,2.698 -3.259,2.784 -6.034,5.86 -8.254,9.153 -3.592,5.316 -8.425,8.895 -13.473,12.39 -0.612,0.422 -3.617,2.298 -3.617,2.298 z M 62.851,3.824 c -0.44,0.133 -0.854,0.283 -1.209,0.416 -8.974,3.41 -15.539,10.028 -20.657,20.828 -0.051,0.11 -0.128,0.291 -0.224,0.515 0.251,-0.163 0.453,-0.299 0.571,-0.376 4.87,-3.371 9.519,-6.81 12.895,-11.806 2.329,-3.45 5.229,-6.671 8.624,-9.577 z M 227.478,153.48 c -0.972,0.647 -1.791,0.876 -1.791,0.876 0,0 -0.28,0 -0.05,-0.884 1.128,-4.68 1.921,-9.284 1.534,-14.245 -0.836,-10.775 -1.078,-21.612 1.83,-32.214 0.166,-0.598 0.166,-0.598 0.833,-2.839 0.414,2.025 1.273,5.491 1.761,7.508 2.17,8.952 5.252,17.827 2.162,27.194 -0.107,0.133 -0.067,0.143 0,0 -0.491,1.771 -0.261,1.844 0.63,2.511 0,0 2.466,-2.808 3.415,-4.379 5.442,-9.015 12.473,-16.77 19.993,-23.953 0.563,-0.537 2.09,-1.695 2.09,-1.695 0,0 -0.246,1.542 -0.387,2.234 -1.711,8.395 -5.3,16.086 -11.125,22.719 -6.063,6.902 -13.453,12.031 -20.895,17.167"
       fill="#2a5a95"
       id="path19" />
    <path
       d="m 225.84,155.47 h -0.699 l -0.413,-0.483 c -0.428,-0.553 -0.302,-1.289 -0.169,-1.796 1.009,-4.195 1.898,-8.796 1.503,-13.877 -0.809,-10.444 -1.145,-21.623 1.865,-32.596 0.168,-0.606 0.168,-0.606 0.841,-2.863 l 1.27,-4.254 0.888,4.35 c 0.345,1.684 0.998,4.366 1.487,6.372 l 0.267,1.097 c 0.277,1.153 0.57,2.303 0.867,3.453 1.988,7.773 4.043,15.811 1.305,24.239 0.715,-0.876 1.547,-1.937 1.996,-2.68 4.777,-7.909 11.187,-15.592 20.177,-24.182 0.592,-0.566 2.028,-1.654 2.188,-1.777 l 2.215,-1.676 -0.443,2.741 c 0,0 -0.254,1.571 -0.395,2.278 -1.812,8.876 -5.641,16.693 -11.382,23.233 -6.214,7.074 -13.78,12.299 -21.097,17.348 l -0.016,0.011 c -1.089,0.723 -2.007,0.992 -2.108,1.02 z m 3.88,-46.801 c -2.537,10.213 -2.199,20.665 -1.438,30.472 0.379,4.857 -0.371,9.396 -1.26,13.3 7.149,-4.934 14.528,-10.05 20.514,-16.862 5.31,-6.048 8.907,-13.244 10.7,-21.405 -8.673,8.323 -14.869,15.768 -19.48,23.409 -0.99,1.638 -3.429,4.422 -3.533,4.539 l -0.678,0.771 -0.825,-0.614 c -1.251,-0.929 -1.529,-1.596 -1.182,-3.13 l -0.155,-0.323 0.377,-0.482 c 2.5,-7.78 0.619,-15.134 -1.372,-22.918 -0.296,-1.162 -0.593,-2.32 -0.875,-3.48 l -0.264,-1.094 c -0.166,-0.673 -0.347,-1.42 -0.529,-2.183 z m 3.971,30.083 -0.003,-0.887 z m -46.362,33.863 c 3.53,-2.519 8.737,-6.626 12.019,-9.554 -0.243,1.132 -0.496,2.272 -0.651,2.845 -0.918,3.365 -2.103,5.596 -4.184,8.499 -3.712,5.183 -8.948,8.217 -14.493,10.899 0.445,1.23 1.262,1.457 3.17,1.326 l -0.002,0.003 0.002,-0.003 c 1.34,-0.256 2.685,-0.48 4.016,-0.771 4.614,-1.012 9.145,-2.258 13.925,-2.621 7.322,-0.56 14.749,-0.445 21.906,-2.503 l 4.552,-1.371 c -1.497,1.681 -3.37,3.156 -3.37,3.156 -5.922,4.35 -11.883,6.734 -18.845,9.023 -9.821,3.229 -19.345,1.643 -28.823,-1.206 -3.515,-1.057 -7.19,-1.791 -11.075,-3.875 3.274,-1.209 5.551,-1.996 8.417,-3.448 5.846,-2.961 6.551,-5.382 13.436,-10.399"
       fill="#2a5a95"
       id="path20" />
    <path
       d="m 193.897,194.451 c -6.351,0 -12.329,-1.443 -17.666,-3.048 -0.773,-0.231 -1.553,-0.45 -2.34,-0.669 -2.858,-0.79 -5.809,-1.609 -8.939,-3.293 l -2.183,-1.169 3.322,-1.222 c 2.781,-1.022 4.79,-1.759 7.298,-3.029 3.232,-1.635 4.769,-3.05 6.899,-5.007 1.601,-1.467 3.415,-3.135 6.385,-5.299 l 0.009,-0.008 c 3.693,-2.634 8.819,-6.709 11.925,-9.476 l 2.543,-2.268 -0.715,3.333 c -0.245,1.155 -0.507,2.319 -0.664,2.903 -0.905,3.317 -2.044,5.634 -4.353,8.857 -3.522,4.918 -8.43,7.995 -13.369,10.488 0.264,0.012 0.611,0.005 1.065,-0.025 l 1.144,-0.218 c 0.905,-0.168 1.812,-0.334 2.712,-0.529 0.982,-0.216 1.956,-0.44 2.935,-0.667 3.587,-0.827 7.299,-1.683 11.141,-1.977 1.746,-0.134 3.496,-0.23 5.249,-0.325 5.455,-0.297 11.094,-0.604 16.434,-2.138 l 8.314,-2.509 -2.623,2.949 c -1.545,1.735 -3.431,3.226 -3.511,3.29 -5.93,4.358 -11.955,6.829 -19.187,9.204 -4.038,1.33 -7.998,1.852 -11.825,1.852 m -25.551,-7.858 c 2.092,0.872 4.141,1.443 6.14,1.996 0.804,0.223 1.598,0.445 2.386,0.679 8.224,2.477 17.999,4.556 28.156,1.215 7.114,-2.335 12.67,-4.611 18.261,-8.662 -5.572,1.59 -11.318,1.902 -16.873,2.207 -1.735,0.093 -3.47,0.187 -5.199,0.319 -3.677,0.281 -7.304,1.119 -10.813,1.927 -0.985,0.228 -1.969,0.457 -2.957,0.673 -0.926,0.2 -1.857,0.371 -2.788,0.542 l -1.263,0.234 c -1.889,0.139 -3.658,0.078 -4.421,-2.041 l -0.342,-0.945 0.902,-0.434 c 5.988,-2.899 10.674,-5.799 14.074,-10.543 2.01,-2.808 3.058,-4.861 3.861,-7.62 -2.983,2.493 -6.655,5.354 -9.491,7.379 -2.864,2.086 -4.628,3.709 -6.184,5.137 -2.174,1.999 -3.893,3.576 -7.399,5.353 -2.133,1.078 -3.966,1.806 -6.05,2.584"
       fill="#2a5a95"
       id="path21" />
    <path
       d="m 207.906,158.452 c 1.764,-5.895 6.205,-16.486 12.041,-24.067 l 0.307,-0.339 c 0,0 -0.433,2.481 -0.499,3.005 -0.849,6.754 -1.668,12.896 -3.064,19.28 -0.955,4.376 -3.48,8.085 -4.462,12.392 -0.085,0.512 -0.224,0.803 -0.224,0.803 0,0 0.403,-0.053 1.03,-0.023 1.292,0.088 2.13,-0.716 3.029,-1.468 4.534,-3.781 9.27,-7.168 14.707,-9.682 5.336,-2.465 10.46,-5.463 15.016,-9.281 1.088,-1.022 1.088,-1.022 2.476,-2.181 -0.464,1.399 -1.471,3.692 -1.471,3.692 -4.042,9.334 -10.949,14.111 -19.301,18.852 -6.856,3.894 -14.24,6.224 -22.011,7.35 -0.656,0.094 -3.463,0.718 -3.463,0.718 0,0 1.059,-1.615 1.505,-2.503 2.508,-4.987 2.826,-11.331 4.384,-16.548"
       fill="#2a5a95"
       id="path22" />
    <path
       d="m 199.581,179.183 1.505,-2.292 c 0.008,-0.015 1.028,-1.571 1.441,-2.39 1.503,-2.989 2.204,-6.595 2.88,-10.077 0.411,-2.111 0.835,-4.291 1.433,-6.289 2.014,-6.736 6.698,-17.25 12.224,-24.431 l 2.944,-3.24 -0.656,3.773 c 0,0 -0.428,2.44 -0.492,2.951 -0.856,6.808 -1.678,12.967 -3.082,19.38 -0.507,2.329 -1.433,4.459 -2.327,6.522 -0.776,1.788 -1.513,3.49 -1.988,5.286 0.547,-0.085 1.006,-0.45 1.681,-1.02 l 0.209,-0.176 c 5.366,-4.477 10.119,-7.602 14.951,-9.835 5.823,-2.693 10.653,-5.679 14.768,-9.127 1.062,-0.998 1.062,-0.998 2.476,-2.18 l 3.005,-2.506 -1.233,3.712 c -0.474,1.431 -1.467,3.69 -1.507,3.784 -4.321,9.981 -11.819,14.861 -19.774,19.376 -6.647,3.776 -14.184,6.293 -22.397,7.483 -0.643,0.09 -3.381,0.702 -3.384,0.702 z m 9.391,-20.414 c -0.566,1.895 -0.961,3.928 -1.377,6.079 -0.707,3.632 -1.436,7.389 -3.077,10.653 -0.059,0.112 -0.125,0.238 -0.197,0.371 a 19.96,19.96 0 0 1 1,-0.19 c 7.939,-1.15 15.214,-3.578 21.618,-7.215 7.448,-4.23 14.472,-8.775 18.565,-17.727 -4.072,3.253 -8.739,6.07 -14.266,8.624 -4.715,2.181 -9.174,5.118 -14.458,9.527 l -0.2,0.168 c -0.881,0.743 -1.959,1.647 -3.622,1.556 -0.45,-0.024 -0.77,0.011 -0.811,0.016 l -2.001,0.246 0.852,-1.823 c 0,0 0.08,-0.192 0.133,-0.518 0.52,-2.281 1.414,-4.342 2.279,-6.332 0.888,-2.055 1.732,-3.995 2.196,-6.111 1.278,-5.855 2.071,-11.52 2.855,-17.688 -4.28,6.57 -7.821,14.795 -9.489,20.364 z m 32.622,-36.684 c 0,0 -0.163,-3.087 -0.272,-3.576 -0.71,-3.16 -0.947,-6.386 -2.391,-9.417 -4.705,-9.885 -9.036,-19.921 -10.293,-30.961 -0.181,-1.179 -0.544,-2.863 -0.544,-2.863 0,0 1.171,1.734 1.958,2.791 1.231,1.807 2.434,3.632 3.697,5.417 3.965,5.604 8.461,10.917 9.66,18.005 0.584,-0.005 1.171,-0.01 1.756,-0.013 h 0.002 c 0.2,-0.214 0.403,-0.425 0.603,-0.638 0.249,-2.866 1.287,-5.511 2.33,-8.147 2.279,-5.748 4.998,-10.941 6.983,-17.202 0.406,-1.275 0.449,-1.465 1.143,-4.384 0.84,3.208 1.617,5.996 1.689,8.961 0.365,14.922 -6.685,27.07 -14.493,38.942 -0.35,0.531 -1.828,3.085 -1.828,3.085"
       fill="#2a5a95"
       id="path23" />
    <path
       d="m 240.679,125.885 -0.198,-3.742 c -0.074,-1.406 -0.189,-3.103 -0.248,-3.397 a 65.81,65.81 0 0 1 -0.528,-2.703 c -0.416,-2.277 -0.806,-4.427 -1.78,-6.474 -4.539,-9.537 -9.081,-19.808 -10.394,-31.313 -0.171,-1.11 -0.526,-2.754 -0.526,-2.754 l -1.212,-5.633 3.224,4.774 a 91.514,91.514 0 0 0 1.927,2.751 l 1.18,1.74 c 0.835,1.238 1.67,2.48 2.535,3.699 0.549,0.777 1.112,1.55 1.673,2.324 3.317,4.571 6.743,9.29 7.998,15.203 l 0.37,-0.019 c 0.321,-2.906 1.359,-5.529 2.365,-8.067 0.832,-2.103 1.724,-4.134 2.618,-6.167 1.521,-3.458 3.092,-7.034 4.341,-10.962 0.376,-1.185 0.425,-1.393 1.039,-3.965 l 1.109,-4.673 1.271,4.843 c 0.811,3.088 1.513,5.753 1.585,8.681 0.376,15.36 -7.043,27.974 -14.674,39.58 -0.345,0.523 -1.796,3.031 -1.796,3.031 z m -10.677,-45.91 c 1.553,10.402 5.743,19.835 9.935,28.639 1.102,2.314 1.537,4.713 1.959,7.028 0.157,0.876 0.317,1.751 0.512,2.624 l 0.035,0.198 0.048,-0.076 c 7.44,-11.311 14.672,-23.584 14.309,-38.304 -0.035,-1.494 -0.262,-2.951 -0.59,-4.464 l -0.064,0.2 c -1.284,4.04 -2.879,7.672 -4.425,11.184 -0.883,2.01 -1.763,4.013 -2.585,6.09 -0.993,2.505 -2.018,5.094 -2.256,7.832 l -0.034,0.387 -1.196,1.264 -3.18,0.027 -0.16,-0.936 c -0.985,-5.842 -4.287,-10.389 -7.782,-15.203 a 272.41,272.41 0 0 1 -1.689,-2.346 c -0.873,-1.233 -1.716,-2.487 -2.562,-3.741 z"
       fill="#2a5a95"
       id="path24" />
    <path
       d="m 244.043,86.482 c 0,0 -1.03,-2.701 -1.216,-3.184 -1.388,-3.533 -4.099,-6.057 -6.562,-8.796 -3.443,-3.832 -7.032,-7.565 -9.919,-11.851 -2.058,-3.052 -4.081,-6.177 -4.652,-10.818 4.302,3.507 7.934,6.49 11.595,9.441 3.397,2.738 6.351,5.826 8.094,9.911 l 1.326,-0.677 c -1.174,-11.697 -0.405,-23.388 -0.155,-35.153 3.288,3.845 5.458,8.123 6.44,12.841 2.521,12.107 -1.209,23.518 -4.265,34.982 -0.125,0.467 -0.686,3.304 -0.686,3.304"
       fill="#2a5a95"
       id="path25" />
    <path
       d="m 244.384,90.503 -1.38,-3.626 c 0,0 -1.027,-2.69 -1.214,-3.171 -1.081,-2.751 -3.032,-4.862 -5.1,-7.093 -0.419,-0.453 -0.84,-0.907 -1.254,-1.366 l -1.676,-1.852 c -2.887,-3.178 -5.873,-6.463 -8.339,-10.122 -1.874,-2.78 -4.209,-6.239 -4.833,-11.304 l -0.339,-2.748 6.063,4.944 c 2.693,2.199 5.18,4.23 7.675,6.242 3.456,2.786 5.82,5.425 7.443,8.342 -0.726,-8.694 -0.454,-17.479 -0.195,-25.992 0.077,-2.473 0.152,-4.947 0.205,-7.426 l 0.064,-2.917 1.895,2.218 c 3.426,4.003 5.676,8.491 6.684,13.337 2.333,11.203 -0.573,21.872 -3.383,32.188 l -0.897,3.307 c -0.12,0.456 -0.667,3.231 -0.667,3.234 z M 223.427,54.686 c 0.9,2.983 2.442,5.267 3.841,7.344 2.377,3.525 5.305,6.749 8.139,9.865 l 1.689,1.863 c 0.403,0.451 0.817,0.897 1.227,1.342 2.047,2.21 4.163,4.492 5.412,7.48 l 0.814,-3.007 c 2.743,-10.066 5.577,-20.471 3.354,-31.15 -0.734,-3.523 -2.18,-6.845 -4.312,-9.911 -0.04,1.438 -0.085,2.877 -0.128,4.312 -0.277,9.054 -0.566,18.416 0.355,27.571 l 0.075,0.759 -3.064,1.563 -0.47,-1.097 c -1.448,-3.389 -3.842,-6.313 -7.77,-9.481 a 1413.965,1413.965 0 0 1 -7.686,-6.25 z"
       fill="#2a5a95"
       id="path26" />
    <path
       d="m 234.782,53.156 c -3.843,-3.493 -8.422,-5.964 -12.502,-9.119 -5.377,-4.163 -10.629,-8.451 -14.186,-15.637 8.177,4.32 15.851,7.648 21.97,13.574 0.905,-0.68 -3.64,-19.661 -5.641,-29.113 3.216,2.575 5.126,5.121 6.719,7.963 5.551,9.889 5.434,20.809 5.764,31.644 0.027,0.864 0.497,2.772 0.497,2.772 0,0 -2.058,-1.572 -2.621,-2.084"
       fill="#2a5a95"
       id="path27" />
    <path
       d="m 239.24,58.046 -2.513,-1.921 c -0.214,-0.163 -2.111,-1.615 -2.693,-2.146 -2.236,-2.033 -4.804,-3.76 -7.288,-5.43 -1.71,-1.151 -3.477,-2.338 -5.147,-3.632 -5.828,-4.51 -10.944,-8.828 -14.504,-16.022 l -1.529,-3.09 3.047,1.611 a 353.77,353.77 0 0 0 4.302,2.226 c 5.753,2.949 11.229,5.756 15.958,9.759 -0.608,-4.027 -2.477,-12.43 -3.811,-18.419 -0.645,-2.916 -1.259,-5.668 -1.729,-7.89 l -0.646,-3.048 2.431,1.948 c 2.986,2.391 5.079,4.868 6.997,8.286 5.279,9.409 5.561,19.769 5.836,29.786 l 0.07,2.37 c 0.016,0.544 0.291,1.847 0.461,2.54 z M 210.916,31.12 c 3.203,4.958 7.384,8.428 12.046,12.036 1.612,1.246 3.349,2.415 5.028,3.544 2.548,1.715 5.185,3.49 7.541,5.63 l 0.003,0.003 c 0.067,0.061 0.154,0.138 0.261,0.226 l -0.003,-0.058 -0.066,-2.375 c -0.267,-9.748 -0.544,-19.83 -5.554,-28.757 -1.176,-2.094 -2.42,-3.805 -3.93,-5.363 0.309,1.411 0.648,2.93 0.995,4.493 4.574,20.564 4.499,21.61 3.496,22.366 l -0.763,0.573 -0.683,-0.661 c -4.908,-4.759 -10.971,-7.865 -17.389,-11.152 -0.328,-0.169 -0.653,-0.337 -0.982,-0.505 z"
       fill="#2a5a95"
       id="path28" />
    <path
       d="m 219.459,26.121 c -4.95,-3.424 -9.721,-6.976 -13.182,-12.097 -2.354,-3.485 -5.228,-6.617 -8.452,-9.374 -1.812,-1.558 -2.615,-2.552 -2.615,-2.552 0,0 0.993,0.006 2.506,0.382 0.827,0.131 1.695,0.427 2.46,0.718 10.312,3.918 16.7,11.758 21.269,21.394 0.315,0.665 1.585,3.8 1.585,3.8 0,0 -2.967,-1.855 -3.571,-2.271"
       fill="#2a5a95"
       id="path29" />
    <path
       d="m 225.355,31.159 -2.914,-1.823 c 0,0 -3.004,-1.876 -3.616,-2.298 -4.848,-3.356 -9.881,-7.077 -13.473,-12.392 -2.221,-3.291 -4.998,-6.37 -8.251,-9.148 -1.871,-1.609 -2.72,-2.658 -2.757,-2.703 l -1.47,-1.825 2.345,0.015 c 0.046,0 1.14,0.011 2.765,0.414 0.867,0.134 1.847,0.478 2.588,0.76 9.549,3.627 16.5,10.603 21.877,21.955 0.321,0.677 1.612,3.859 1.612,3.859 z m -5.262,-5.954 c 0.117,0.08 0.318,0.214 0.571,0.376 -0.096,-0.221 -0.174,-0.403 -0.227,-0.515 -5.116,-10.797 -11.68,-17.415 -20.654,-20.825 -0.361,-0.136 -0.78,-0.291 -1.215,-0.419 3.397,2.903 6.301,6.127 8.63,9.577 3.376,5.001 8.028,8.438 12.895,11.806 z"
       fill="#2a5a95"
       id="path30" />
  </g>
</svg>
