<?xml version="1.0" encoding="UTF-8"?>
<!DOCTYPE svg PUBLIC "-//W3C//DTD SVG 1.1//EN" "http://www.w3.org/Graphics/SVG/1.1/DTD/svg11.dtd">
<svg version="1.1" xmlns="http://www.w3.org/2000/svg" xmlns:xlink="http://www.w3.org/1999/xlink" x="0" y="0" width="400" height="400" viewBox="0, 0, 400, 400">
  <defs>
    <style>
      :root {
        --icon-color: #000000;
        --text-color: #FFFFFF;
      }
      @media (prefers-color-scheme: dark) {
        :root {
          --icon-color: #FFFFFF;
          --text-color: #000000;
        }
      }
    </style>
  </defs>
  <g id="Background">
    <rect x="0" y="0" width="400" height="400" fill="#000000" fill-opacity="0"/>
  </g>
  <g id="favicon">
    <g display="none">
      <path d="M0,0 L400,0 L400,400 L0,400 L0,0 z" fill="#000000"/>
      <path d="M235.163,300.185 C179.177,332.115 67.911,378.96 67.883,326.141 L67.803,173.57 C70.022,173.569 71.82,171.769 71.818,169.551 C71.817,167.332 70.018,165.534 67.799,165.536 L67.77,109.314 C70.918,109.313 73.469,106.759 73.467,103.611 C73.123,101.32 72.02,99.098 69.848,98.11 C67.883,97.215 66.873,95.438 66.561,93.365 C66.575,91.303 67.362,89.999 69.032,88.957 L102.166,69.827 L135.3,50.697 C137.037,49.772 138.561,49.742 140.353,50.761 C141.992,52.068 143.027,53.831 142.819,55.98 C142.589,58.355 143.961,60.422 145.773,61.865 C148.499,63.441 151.986,62.508 153.561,59.783 L202.236,87.919 C201.125,89.839 201.782,92.297 203.703,93.407 C205.624,94.517 208.081,93.86 209.191,91.939 L341.282,168.294 C387.011,194.728 290.809,267.664 235.163,300.185" fill="#FFFFFF"/>
      <path d="M154.088,157.04 C157.955,154.807 161.591,154.964 165.274,157.994 L230.402,211.333 C219.386,219.065 207.975,226.194 196.409,233.061 C185.107,239.667 173.307,245.333 161.589,251.143 L149.08,167.344 C148.539,162.499 150.221,159.272 154.088,157.04 z" fill="#000000"/>
      <text transform="matrix(0.866, 0.5, -0.5, 0.866, 260.203, 161.462)">
        <tspan x="-43.348" y="-0.798" font-family="Menlo-Bold" font-size="24" fill="#000000">AP0110</tspan>
      </text>
      <g id="A">
        <g>
          <path d="M140.306,132.5 L140.306,132.5 C156.959,122.885 171.198,122.276 185.561,133.967 L300.811,227.941 L300.827,227.929 L300.953,228.056 L301.467,228.476 L301.409,228.523 C307.791,234.687 310.072,244.957 303.985,252.165 L304.276,252.67 C288.664,265.519 297.67,258.421 276.98,273.607 L276.675,273.078 C283.433,265.534 280.021,255.614 273.762,249.227 L167.697,162.362 C164.072,159.379 160.494,159.225 156.687,161.422 C152.881,163.62 151.226,166.796 151.758,171.564 L172.232,308.72 C174.15,316.765 181.207,325.145 190.459,323.409 C167.73,333.396 178.334,329.142 158.77,336.474 C149.22,337.99 142.778,329.421 140.54,321.409 L140.554,321.404 L118.474,172.701 C115.768,154.279 123.415,142.251 140.306,132.5 z" fill="#000000"/>
          <path d="M140.306,132.5 L140.306,132.5 C156.959,122.885 171.198,122.276 185.561,133.967 L300.811,227.941 L300.827,227.929 L300.953,228.056 L301.467,228.476 L301.409,228.523 C307.791,234.687 310.072,244.957 303.985,252.165 L304.276,252.67 C288.664,265.519 297.67,258.421 276.98,273.607 L276.675,273.078 C283.433,265.534 280.021,255.614 273.762,249.227 L167.697,162.362 C164.072,159.379 160.494,159.225 156.687,161.422 C152.881,163.62 151.226,166.796 151.758,171.564 L172.232,308.72 C174.15,316.765 181.207,325.145 190.459,323.409 C167.73,333.396 178.334,329.142 158.77,336.474 C149.22,337.99 142.778,329.421 140.54,321.409 L140.554,321.404 L118.474,172.701 C115.768,154.279 123.415,142.251 140.306,132.5 z" fill-opacity="0" stroke="#000000" stroke-width="1"/>
        </g>
        <g>
          <path d="M229.372,212.925 C218.356,220.657 206.945,227.786 195.379,234.653 C184.077,241.259 172.277,246.924 160.559,252.735" fill="#000000"/>
          <path d="M229.372,212.925 C218.356,220.657 206.945,227.786 195.379,234.653 C184.077,241.259 172.277,246.924 160.559,252.735" fill-opacity="0" stroke="#000000" stroke-width="12" stroke-linecap="square"/>
        </g>
      </g>
      <path d="M421.667,-21.671 L421.667,421.663 L-21.667,421.663 L-21.667,-21.671 L421.667,-21.671 z M350,-0 L50,-0 C22.386,-0 0,22.386 0,50 L0,350 C0,377.614 22.386,400 50,400 L350,400 C377.614,400 400,377.614 400,350 L400,50 C400,22.386 377.614,-0 350,-0 z" fill="#616264"/>
      <g id="A" display="none">
        <g>
          <path d="M140.306,132.5 L140.306,132.5 C156.959,122.885 171.198,122.276 185.561,133.967 L300.811,227.941 L300.827,227.928 L300.953,228.056 L301.467,228.476 L301.409,228.523 C307.791,234.687 310.072,244.957 303.984,252.165 L304.276,252.67 C288.664,265.519 297.67,258.421 276.98,273.607 L276.675,273.078 C283.433,265.534 280.021,255.614 273.762,249.227 L167.697,162.362 C164.072,159.379 160.494,159.225 156.687,161.422 C152.881,163.62 151.226,166.796 151.758,171.564 L172.232,308.72 C174.15,316.765 181.207,325.145 190.459,323.409 C167.73,333.396 178.334,329.142 158.77,336.474 C149.22,337.99 142.778,329.421 140.54,321.409 L140.554,321.404 L118.474,172.701 C115.768,154.279 123.415,142.251 140.306,132.5 z" fill="#00B0FF"/>
          <path d="M140.306,132.5 L140.306,132.5 C156.959,122.885 171.198,122.276 185.561,133.967 L300.811,227.941 L300.827,227.928 L300.953,228.056 L301.467,228.476 L301.409,228.523 C307.791,234.687 310.072,244.957 303.984,252.165 L304.276,252.67 C288.664,265.519 297.67,258.421 276.98,273.607 L276.675,273.078 C283.433,265.534 280.021,255.614 273.762,249.227 L167.697,162.362 C164.072,159.379 160.494,159.225 156.687,161.422 C152.881,163.62 151.226,166.796 151.758,171.564 L172.232,308.72 C174.15,316.765 181.207,325.145 190.459,323.409 C167.73,333.396 178.334,329.142 158.77,336.474 C149.22,337.99 142.778,329.421 140.54,321.409 L140.554,321.404 L118.474,172.701 C115.768,154.279 123.415,142.251 140.306,132.5 z" fill-opacity="0" stroke="#00B0FF" stroke-width="1"/>
        </g>
        <g>
          <path d="M229.372,212.925 C218.356,220.657 206.945,227.786 195.379,234.653 C184.077,241.259 172.277,246.924 160.559,252.735" fill="#00B0FF"/>
          <path d="M229.372,212.925 C218.356,220.657 206.945,227.786 195.379,234.653 C184.077,241.259 172.277,246.924 160.559,252.735" fill-opacity="0" stroke="#00B0FF" stroke-width="12" stroke-linecap="square"/>
        </g>
        <path d="M154.088,157.04 C157.955,154.807 161.591,154.964 165.273,157.994 L230.402,211.333 C219.386,219.065 207.975,226.194 196.409,233.061 C185.107,239.667 173.307,245.333 161.589,251.143 L149.08,167.344 C148.539,162.499 150.221,159.272 154.088,157.04 z" fill="#00B0FF"/>
      </g>
      <path d="M69.777,335.755 C98.495,341.956 134.79,328.586 161.028,317.789 C183.864,308.393 205.993,297.662 227.512,285.585 C259.437,266.361 290.648,245.172 317.61,219.289 C330.446,206.967 343.947,192.954 349.351,175.599 C364.543,194.368 333.374,225.213 321.326,236.779 C295.581,261.494 265.753,282.022 235.136,300.2 C228.989,303.65 224.927,305.976 218.069,309.48 C211.722,312.723 205.38,315.986 198.911,318.979 C169.567,332.554 133.72,348.772 100.554,349.95 C89.076,350.358 73.896,348.475 69.777,335.755 z" fill="#000000" fill-opacity="0.25" display="none"/>
      <g id="A" display="none">
        <g>
          <path d="M140.306,132.5 L140.306,132.5 C156.959,122.885 171.198,122.276 185.561,133.967 L300.811,227.941 L300.827,227.929 L300.953,228.056 L301.467,228.476 L301.409,228.523 C307.791,234.687 310.072,244.957 303.985,252.165 L304.276,252.67 C288.664,265.519 297.67,258.421 276.98,273.607 L276.675,273.078 C283.433,265.534 280.021,255.614 273.762,249.227 L167.697,162.362 C164.072,159.379 160.494,159.225 156.687,161.422 C152.881,163.62 151.226,166.796 151.758,171.564 L172.232,308.72 C174.15,316.765 181.207,325.145 190.459,323.409 C167.73,333.396 178.334,329.142 158.77,336.474 C149.22,337.99 142.778,329.421 140.54,321.409 L140.554,321.404 L118.474,172.701 C115.768,154.279 123.415,142.251 140.306,132.5 z" fill="#FF4F00"/>
          <path d="M140.306,132.5 L140.306,132.5 C156.959,122.885 171.198,122.276 185.561,133.967 L300.811,227.941 L300.827,227.929 L300.953,228.056 L301.467,228.476 L301.409,228.523 C307.791,234.687 310.072,244.957 303.985,252.165 L304.276,252.67 C288.664,265.519 297.67,258.421 276.98,273.607 L276.675,273.078 C283.433,265.534 280.021,255.614 273.762,249.227 L167.697,162.362 C164.072,159.379 160.494,159.225 156.687,161.422 C152.881,163.62 151.226,166.796 151.758,171.564 L172.232,308.72 C174.15,316.765 181.207,325.145 190.459,323.409 C167.73,333.396 178.334,329.142 158.77,336.474 C149.22,337.99 142.778,329.421 140.54,321.409 L140.554,321.404 L118.474,172.701 C115.768,154.279 123.415,142.251 140.306,132.5 z" fill-opacity="0" stroke="#FF4F00" stroke-width="1"/>
        </g>
        <g>
          <path d="M229.372,212.925 C218.356,220.657 206.945,227.786 195.379,234.653 C184.077,241.259 172.277,246.924 160.559,252.735" fill="#FF4F00"/>
          <path d="M229.372,212.925 C218.356,220.657 206.945,227.786 195.379,234.653 C184.077,241.259 172.277,246.924 160.559,252.735" fill-opacity="0" stroke="#FF4F00" stroke-width="12" stroke-linecap="square"/>
        </g>
        <path d="M154.088,157.04 C157.955,154.807 161.591,154.964 165.273,157.994 L230.402,211.333 C219.386,219.065 207.975,226.194 196.409,233.061 C185.107,239.667 173.307,245.333 161.589,251.143 L149.08,167.344 C148.539,162.499 150.221,159.272 154.088,157.04 z" fill="#FF4F00"/>
      </g>
      <path d="M68.197,169.53 L205.855,90.048" fill-opacity="0" stroke="#000000" stroke-width="6" stroke-opacity="0.1" display="none"/>
      <path d="M68.197,103.775 L148.864,57.622" fill-opacity="0" stroke="#000000" stroke-width="10" stroke-opacity="0.1" stroke-linecap="square" display="none"/>
    </g>
    <path d="M0,-0 L400,-0 L400,400 L0,400 L0,-0 z" fill="#000000" display="none"/>
    <g>
      <path d="M136.57,50.173 C139.525,50.195 138.294,49.859 140.353,50.761 C141.992,52.068 143.027,53.831 142.819,55.98 C142.589,58.355 143.961,60.422 145.773,61.865 C148.499,63.441 151.986,62.508 153.561,59.783 L202.236,87.919 C201.125,89.839 201.782,92.297 203.703,93.407 C205.624,94.517 208.081,93.86 209.191,91.939 L341.282,168.294 C380.021,192.51 312.193,245.953 295.885,258.682 C298.516,256.513 301.143,254.338 303.776,252.17 L303.484,251.666 C309.572,244.457 307.291,234.187 300.909,228.023 L300.967,227.976 L300.452,227.556 L300.327,227.428 L300.311,227.441 L185.061,133.467 C177.56,127.759 170.122,124.269 160.489,124.828 C158.589,125.127 156.66,125.282 154.788,125.725 C149.483,126.981 144.515,129.307 139.806,132 L139.805,132 L139.806,132 C122.915,141.751 115.268,153.779 117.974,172.201 L140.054,320.904 L140.04,320.909 C142.278,328.921 148.72,337.49 158.27,335.974 C161.746,334.667 165.23,333.383 168.708,332.082 C146.137,340.361 122.449,349.897 97.957,349.991 C88.61,350.027 77.403,348.38 71.667,340.045 C68.806,335.889 68.052,331.066 67.883,326.141 L67.803,173.57 C70.022,173.569 71.82,171.769 71.818,169.551 C71.817,167.332 70.018,165.534 67.799,165.536 L67.77,109.314 C70.918,109.313 73.469,106.759 73.467,103.611 C73.123,101.32 72.02,99.098 69.848,98.11 C67.883,97.215 66.873,95.438 66.561,93.365 C66.575,91.303 67.362,89.999 69.032,88.957 L102.166,69.827 L135.3,50.697 L136.57,50.173 z" fill="var(--icon-color)"/>
      <path d="M234.285,216.806 L273.262,248.727 C279.521,255.114 282.933,265.034 276.175,272.578 L276.48,273.107 C281.057,269.719 285.692,266.41 290.29,263.05 C272.761,276.632 254.222,288.869 235.163,300.185 C215.742,311.07 195.787,321.128 175.135,329.482 C180.072,327.282 185.011,325.086 189.959,322.909 C180.707,324.645 173.65,316.265 171.732,308.22 L164.181,257.636 C165.419,257.024 166.657,256.411 167.896,255.8 C168.039,255.73 168.039,255.73 168.181,255.659 C183.273,248.209 190.141,244.664 198.407,239.833 C211.606,231.996 222.595,225.012 232.819,217.835 L234.285,216.806 z" fill="var(--icon-color)"/>
    </g>
    <text transform="matrix(0.866, 0.5, -0.5, 0.866, 260.203, 161.462)">
      <tspan x="-43.348" y="-0.798" font-family="Menlo-Bold" font-size="24" fill="var(--text-color)">AP0110</tspan>
    </text>
    <path d="M421.667,-21.671 L421.667,421.663 L-21.667,421.663 L-21.667,-21.671 L421.667,-21.671 z M350,-0 L50,-0 C22.386,-0 0,22.386 0,50 L0,350 C0,377.614 22.386,400 50,400 L350,400 C377.614,400 400,377.614 400,350 L400,50 C400,22.386 377.614,-0 350,-0 z" fill="#616264" display="none"/>
  </g>
</svg> 