<?xml version="1.0" encoding="UTF-8"?>
<!DOCTYPE svg PUBLIC "-//W3C//DTD SVG 1.1//EN" "http://www.w3.org/Graphics/SVG/1.1/DTD/svg11.dtd">
<svg version="1.1" xmlns="http://www.w3.org/2000/svg" xmlns:xlink="http://www.w3.org/1999/xlink" x="0" y="0" width="121.041" height="42" viewBox="0, 0, 121.041, 42">
  <g id="Background">
    <rect x="0" y="0" width="121.041" height="42" fill="#000000" fill-opacity="0"/>
  </g>
  <g id="Layer_1">
    <path d="M103.973,0.433 C112.999,0.433 118.149,4.252 118.149,10.442 C118.149,14.261 115.66,17.442 112.768,19.178 C117.916,20.972 121.041,24.27 121.041,29.418 C120.837,37.741 113.02,41.298 105.709,41.567 L104.062,41.547 C101.213,41.454 98.376,41.2 95.527,41.104 C92.462,41.104 90.322,41.219 88.065,41.219 C87.139,41.219 86.676,40.699 86.676,39.947 C86.676,39.311 87.024,38.732 88.238,38.559 C91.363,38.269 91.941,37.806 91.999,36.129 C92.114,31.212 92.114,27.393 92.114,20.913 C92.114,14.434 92.057,10.731 91.999,5.814 C91.999,4.252 91.247,3.616 88.122,3.153 C86.907,2.922 86.561,2.4 86.561,1.764 C86.561,1.012 87.024,0.491 87.949,0.491 C89.453,0.491 91.766,0.781 95.527,0.781 C99.171,0.781 100.098,0.433 103.973,0.433 z M99.4,20.87 L97.611,20.885 L97.611,21 C97.611,27.248 97.611,30.661 97.727,35.058 C97.785,37.141 98.363,37.719 100.099,38.124 C100.967,38.356 101.95,38.472 103.511,38.472 C109.587,38.472 112.595,34.249 112.595,30.026 C112.493,21.986 105.908,21.185 99.4,20.87 z M102.239,3.586 C100.619,3.586 99.578,3.702 98.884,3.934 C98.015,4.28 97.727,4.743 97.727,5.901 C97.611,9.893 97.611,13.189 97.611,17.76 C101.255,17.587 104.611,17.76 107.562,18.281 C109.066,16.489 109.991,14.116 109.991,11.281 C109.991,6.19 107.041,3.586 102.239,3.586 z" fill="#002676"/>
    <path d="M65.662,42 C53.166,42 44.488,33.612 44.488,21.637 C44.488,9.314 53.745,0 67.281,0 C71.852,0 76.134,1.215 79.199,2.892 C80.472,3.586 80.762,4.28 80.762,5.149 C80.762,6.421 80.762,8.503 80.703,9.834 C80.645,10.76 80.299,11.339 79.489,11.339 C78.736,11.339 78.39,10.876 77.984,9.951 C76.076,5.438 72.604,3.297 66.819,3.297 C57.91,3.297 51.893,10.297 51.893,21 C51.893,31.587 58.256,38.587 66.704,38.587 C72.43,38.587 76.943,35.868 78.447,30.834 C78.678,29.967 79.142,29.563 79.778,29.563 C80.588,29.563 81.051,30.14 81.108,31.124 C81.166,32.397 81.051,33.843 81.051,35.405 C81.051,36.216 80.703,37.025 79.489,37.777 C75.15,40.612 70.579,42 65.662,42 z" fill="#002676"/>
    <path d="M21.694,41.77 C11.63,41.77 5.38,36.159 5.38,25.341 L5.38,20.77 C5.38,14.232 5.38,10.415 5.265,5.15 C5.265,3.935 4.686,3.414 1.504,3.125 C0.348,2.952 -0,2.373 -0,1.736 C-0,0.985 0.463,0.464 1.331,0.464 C3.585,0.464 5.728,0.637 8.736,0.637 C11.745,0.637 13.943,0.464 16.141,0.464 C17.066,0.464 17.529,0.985 17.529,1.737 C17.529,2.373 17.183,2.952 16.026,3.125 C12.843,3.414 12.265,3.935 12.265,5.15 C12.149,10.415 12.149,14.232 12.149,20.77 L12.149,24.589 C12.149,32.573 15.91,37.084 23.14,37.084 C30.199,37.084 34.422,32.746 34.422,24.183 L34.422,20.77 C34.422,14.232 34.422,10.415 34.307,5.15 C34.307,3.935 33.728,3.414 30.373,3.067 C29.215,2.894 28.869,2.315 28.869,1.736 C28.869,0.985 29.332,0.464 30.199,0.464 C32.107,0.464 33.959,0.637 36.332,0.637 C38.645,0.637 40.439,0.464 42.289,0.464 C43.158,0.464 43.622,0.985 43.622,1.737 C43.622,2.373 43.274,2.952 42.175,3.125 C38.991,3.414 38.414,3.935 38.356,5.15 C38.299,10.415 38.299,14.232 38.299,20.77 L38.299,24.646 C38.299,35.58 31.703,41.77 21.695,41.77 z" fill="#002676"/>
  </g>
</svg>
