<?xml version="1.0" encoding="UTF-8"?>
<!DOCTYPE svg PUBLIC "-//W3C//DTD SVG 1.1//EN" "http://www.w3.org/Graphics/SVG/1.1/DTD/svg11.dtd">
<svg version="1.1" xmlns="http://www.w3.org/2000/svg" xmlns:xlink="http://www.w3.org/1999/xlink" x="0" y="0" width="89.057" height="24" viewBox="0, 0, 89.057, 24">
  <g id="Background">
    <rect x="0" y="0" width="89.057" height="24" fill="#000000" fill-opacity="0"/>
  </g>
  <g id="Symbols">
    <path d="M42.685,15.968 L45.278,16.236 C44.378,21.439 40.701,24 35.566,24 C28.808,24 24.662,19.364 24.662,12.18 L24.662,11.919 C24.662,4.998 29.297,0.002 35.73,0.002 C38.669,0.002 41.215,0.982 42.423,3.137 L42.423,0.587 L44.971,0.587 L44.97,7.642 L42.587,7.642 C41.64,3.758 39.224,2.255 35.665,2.255 C30.832,2.255 27.6,6.01 27.6,11.887 L27.6,12.148 C27.6,18.09 30.604,21.682 35.632,21.682 C39.452,21.682 42.096,19.756 42.685,15.968 z" fill="#003660"/>
    <path d="M10.996,24 L10.996,24 C17.004,24 19.844,20.506 19.844,14.825 L19.851,2.807 L22.463,2.807 L22.463,0.587 L14.072,0.587 L14.072,2.807 L17.01,2.807 L17.004,14.434 C17.004,20.147 14.784,21.65 11.061,21.65 C7.176,21.65 5.446,19.756 5.446,14.858 L5.453,2.807 L8.391,2.807 L8.391,0.587 L0,0.587 L0,2.807 L2.612,2.807 L2.605,15.184 C2.605,20.866 5.641,24 10.996,24 z" fill="#003660"/>
    <path d="M79.549,0.474 C80.548,0.475 81.552,0.545 82.561,0.686 C83.571,0.828 84.477,1.11 85.281,1.533 C86.083,1.956 86.735,2.548 87.234,3.308 C87.733,4.068 87.983,5.077 87.983,6.336 C87.983,7.638 87.619,8.718 86.891,9.575 C86.164,10.434 85.204,11.046 84.011,11.415 L84.011,11.481 C84.77,11.589 85.459,11.801 86.078,12.115 C86.697,12.43 87.228,12.832 87.674,13.32 C88.118,13.809 88.46,14.378 88.699,15.03 C88.938,15.681 89.057,16.376 89.057,17.114 C89.057,18.33 88.797,19.344 88.276,20.158 C87.755,20.971 87.082,21.628 86.257,22.128 C85.432,22.627 84.504,22.986 83.473,23.203 C82.442,23.42 81.416,23.528 80.396,23.528 L70.953,23.528 L70.953,0.474 L79.549,0.474 z M79.874,14.096 L76.032,14.096 L76.032,19.338 L80.591,19.338 C80.981,19.338 81.378,19.295 81.779,19.207 C82.181,19.121 82.544,18.969 82.871,18.752 C83.196,18.535 83.461,18.253 83.668,17.905 C83.873,17.558 83.977,17.135 83.977,16.635 C83.977,16.093 83.842,15.653 83.57,15.316 C83.299,14.98 82.957,14.726 82.544,14.551 C82.132,14.378 81.686,14.259 81.21,14.193 C80.732,14.127 80.287,14.096 79.874,14.096 z M79.484,4.88 L76.032,4.88 L76.032,9.798 L79.712,9.798 C80.103,9.798 80.488,9.754 80.868,9.667 C81.247,9.581 81.589,9.439 81.893,9.243 C82.197,9.049 82.441,8.788 82.626,8.462 C82.81,8.137 82.902,7.746 82.902,7.29 C82.902,6.813 82.8,6.417 82.593,6.102 C82.387,5.788 82.122,5.543 81.796,5.369 C81.47,5.196 81.1,5.071 80.688,4.995 C80.276,4.918 79.874,4.88 79.484,4.88 z" fill="#003660"/>
    <path d="M59.359,9.877 C56.65,9.155 54.407,8.42 54.407,6.739 C54.407,5.678 55.235,4.098 57.514,4.098 C59.784,4.098 61.486,4.885 62.714,6.504 L65.95,3.685 C63.895,0.481 60.144,0 58.086,0 C52.959,0 49.379,2.962 49.379,7.203 C49.379,11.422 53.236,13.06 57.029,14.123 C60.243,15.024 61.513,15.458 61.513,17.404 C61.513,18.945 60.145,19.902 57.943,19.902 C54.42,19.902 52.48,17.567 51.916,16.763 L48.433,19.744 C50.2,22.569 53.255,24 57.514,24 C62.829,24 66.542,20.935 66.542,16.547 C66.542,12.127 62.834,10.787 59.359,9.877 L59.359,9.877 z" fill="#003660"/>
  </g>
</svg>
