<?xml version="1.0" encoding="UTF-8"?>
<!DOCTYPE svg PUBLIC "-//W3C//DTD SVG 1.1//EN" "http://www.w3.org/Graphics/SVG/1.1/DTD/svg11.dtd">
<svg version="1.1" xmlns="http://www.w3.org/2000/svg" xmlns:xlink="http://www.w3.org/1999/xlink" x="0" y="0" width="141.139" height="52.717" viewBox="0, 0, 141.139, 52.717">
  <g id="Background">
    <rect x="0" y="0" width="141.139" height="52.717" fill="#000000" fill-opacity="0"/>
  </g>
  <g id="Layer_1">
    <g>
      <g>
        <path d="M34.43,27.65 C34.43,36.16 33.19,42.63 20.26,42.63 C7.33,42.63 5.41,36.42 5.41,27.65 L5.41,6.95 C5.41,2.29 3.42,1.86 -0,1.86 L-0,0.62 L16.34,0.62 L16.34,1.86 C12.99,1.86 10.93,2.29 10.93,6.96 L10.93,27.65 C10.93,33.99 12.42,40.2 20.5,40.2 C29.46,40.2 30.88,35.04 30.88,27.65 L30.88,6.95 C30.88,2.29 28.83,1.85 25.48,1.85 L25.48,0.62 L39.83,0.62 L39.83,1.86 C36.41,1.86 34.42,2.29 34.42,6.96 L34.42,27.65 z" fill="#0E284B"/>
        <path d="M68.8,40.95 C65.75,42.07 62.27,42.63 57.68,42.63 C45.25,42.63 39.28,33.18 39.28,19.95 C39.28,8.45 43,0 56.31,0 C61.28,0 65.51,0.99 68.25,1.74 L68.81,11.5 L67.26,11.5 C66.45,8.02 63.97,2.42 56.25,2.42 C46.25,2.42 45.44,13.05 45.44,19.45 C45.44,27.47 47.18,39.84 60.79,39.84 C64.95,39.84 67.19,38.91 68.81,38.29 L68.81,40.96 z" fill="#0E284B"/>
        <path d="M98.402,9.875 C97.842,6.585 95.352,2.725 88.702,2.725 C84.532,2.725 80.872,5.395 80.872,9.505 C80.872,15.035 88.272,16.835 93.682,20.005 C98.592,22.865 101.882,25.415 101.882,31.315 C101.882,39.205 95.042,42.935 86.532,42.935 C82.312,42.935 77.402,42.005 75.842,41.755 L75.402,32.995 L76.962,32.995 C77.452,36.285 80.382,40.145 87.032,40.145 C92.502,40.145 96.042,36.605 96.042,32.315 C96.042,25.605 85.722,23.555 79.942,19.145 C77.212,17.035 75.902,14.795 75.902,10.815 C75.902,3.355 82.062,0.315 89.882,0.315 C94.052,0.315 96.722,0.815 99.522,1.365 L99.952,9.875 L98.402,9.875 z" fill="#0E284B"/>
        <path d="M105.339,40.755 C108.699,40.755 110.749,40.315 110.749,35.665 L110.749,6.945 C110.749,2.285 108.699,1.845 105.339,1.845 L105.339,0.615 L119.889,0.615 C130.199,0.615 141.139,2.855 141.139,21.375 C141.139,39.895 129.649,42.015 119.889,42.015 L105.339,42.015 L105.339,40.765 z M116.279,34.355 C116.279,38.895 116.779,39.575 119.889,39.575 C130.579,39.575 134.989,33.855 134.989,21.365 C134.989,9.925 131.699,3.035 119.889,3.035 C116.779,3.035 116.279,3.405 116.279,8.255 L116.279,34.355 z" fill="#0E284B"/>
      </g>
      <path d="M141.139,51.753 L141.139,52.717 L-0,52.717 L-0,51.753 L141.139,51.753 z" fill="#0E284B"/>
    </g>
  </g>
</svg>
