<?xml version="1.0" encoding="UTF-8"?>
<!DOCTYPE svg PUBLIC "-//W3C//DTD SVG 1.1//EN" "http://www.w3.org/Graphics/SVG/1.1/DTD/svg11.dtd">
<svg version="1.1" xmlns="http://www.w3.org/2000/svg" xmlns:xlink="http://www.w3.org/1999/xlink" x="0" y="0" width="512" height="512" viewBox="0, 0, 512, 512">
  <path d="M0,0 L512,0 L512,512 L0,512 L0,0 z" fill="none"/>
  <g>
    <path d="M207.398,28.608 C252.322,29.744 294.253,50.969 318.769,89.285 C328.418,82.769 340.298,80.342 351.761,80.054 C387.58,80.054 416.618,109.091 416.618,144.911 C416.094,155.294 416.725,149.374 414.031,162.584 C416.53,162.331 414.645,162.498 419.704,162.37 C470.678,162.37 512,203.692 512,254.666 C511.741,293.516 486.448,330.477 448.826,342.173 L448.972,341.483 C449.105,341.306 449.15,341.083 449.15,340.861 C449.194,340.55 449.283,340.284 449.46,340.017 C449.549,339.84 449.638,339.662 449.638,339.484 C448.927,339.706 448.927,339.617 448.927,339.573 C448.794,338.64 448.661,337.218 448.616,336.33 C448.616,335.841 448.528,334.908 448.394,334.331 C448.306,333.931 448.261,333.531 448.305,333.131 C448.172,332.82 448.039,332.465 447.995,332.154 C447.906,331.665 447.995,331.576 448.128,331.399 C448.261,331.265 448.35,331.221 448.35,331.177 C448.217,330.954 448.083,330.777 447.906,330.599 C447.639,330.288 447.461,329.888 447.461,329.444 C447.461,329.177 447.417,328.955 447.328,328.689 C447.239,328.511 447.195,328.289 447.195,328.111 C447.106,327.4 447.195,326.645 446.484,326.245 C446.262,325.934 446.04,325.579 445.862,325.268 C445.64,324.824 445.373,324.424 445.062,324.024 C444.796,323.713 444.751,323.535 444.751,322.824 C444.751,322.602 444.663,322.336 444.529,322.203 C444.218,321.803 443.996,321.314 443.863,320.825 C443.863,320.514 443.863,320.381 443.685,320.292 C443.508,320.026 443.285,319.715 443.152,319.448 C443.019,319.448 442.575,319.004 442.53,318.782 C442.219,318.515 441.908,318.293 441.553,318.071 C441.064,317.715 440.753,317.138 440.753,316.516 C440.709,315.938 440.487,315.405 440.131,314.917 C439.909,314.694 439.642,314.517 439.376,314.384 C439.065,314.206 438.843,313.984 438.843,313.895 C438.665,313.317 438.354,312.829 437.91,312.384 C437.777,312.162 437.732,311.896 437.643,311.674 C437.777,311.496 437.466,310.874 437.199,310.696 C436.932,310.518 436.666,310.119 436.71,309.63 C436.621,309.363 436.577,309.097 436.577,308.83 C436.621,308.386 436.444,307.986 436.133,307.675 C436.133,307.364 435.866,307.098 436.044,306.787 C435.866,306.254 435.733,305.72 435.733,305.143 C435.733,304.965 435.689,304.743 435.6,304.566 C435.511,304.121 435.6,303.677 435.289,303.322 C435.067,302.744 434.844,302.122 434.667,301.5 C434.844,301.233 434.8,300.922 434.533,300.745 C434.489,300.7 434.4,300.656 434.356,300.656 C434,300.478 433.867,300.034 434.089,299.679 C434.134,299.59 434.178,299.545 434.267,299.501 C434.489,299.367 434.489,299.279 434.444,299.057 C434.4,298.879 434.311,298.701 434.178,298.568 C434.045,298.346 433.956,298.124 433.911,297.901 C433.911,297.724 433.867,297.546 433.778,297.413 C433.556,296.969 433.512,296.524 433.067,296.169 C432.89,295.813 433.067,295.68 433.512,295.503 C433.689,295.414 433.867,295.369 433.867,295.325 C433.778,295.103 433.645,294.88 433.512,294.659 C433.378,294.259 433.201,293.903 432.979,293.548 C433.067,293.059 433.023,292.526 432.89,292.037 C432.756,291.149 432.712,290.26 432.712,289.416 C432.712,288.572 432.668,287.683 432.49,286.84 C432.49,286.484 432.445,286.129 432.356,285.773 C432.401,285.284 432.268,284.796 432.046,284.396 C431.957,283.774 431.823,283.108 431.779,282.486 C431.69,281.686 431.912,281.02 431.512,280.22 C431.379,279.909 431.468,279.509 431.779,279.331 C431.957,279.243 431.912,278.621 431.69,278.354 C431.29,277.243 431.202,276.044 431.423,274.933 C431.424,273.6 431.424,273.467 431.201,273.067 C431.246,272.357 431.202,271.646 431.113,270.935 C430.713,270.313 430.357,269.647 430.135,268.936 C430.091,268.491 429.958,268.047 429.735,267.648 C429.38,267.248 429.247,266.714 429.335,266.181 C429.202,265.648 429.158,265.071 429.069,264.493 C428.98,263.693 428.803,262.894 428.625,262.094 C428.492,261.472 428.225,260.85 427.87,260.273 C427.87,259.828 427.603,259.429 428.092,258.94 C427.958,258.318 427.958,257.607 427.825,257.03 C427.381,256.496 427.025,255.963 426.759,255.341 C426.537,254.942 426.315,254.586 426.048,254.231 C425.915,253.92 425.826,253.52 425.915,253.165 C426.004,252.809 425.915,252.454 425.693,252.187 C425.248,251.076 424.893,249.966 424.582,248.811 L424.137,247.478 C423.871,246.812 423.827,246.501 424.005,246.367 C423.96,245.923 424.093,245.39 423.693,245.035 C423.471,244.501 423.294,243.924 423.205,243.346 C423.027,242.813 422.761,242.325 422.494,241.836 C422.45,241.703 422.361,241.525 422.272,241.392 C421.917,240.947 421.739,240.103 421.916,239.926 C422.094,239.748 422.538,239.748 422.627,239.393 C423.249,238.815 423.738,238.104 424.049,237.304 C424.315,236.505 424.36,235.616 424.227,234.817 C424.227,234.283 423.694,234.15 424.315,233.573 C424.36,233.351 424.315,233.084 424.093,232.951 C423.738,232.284 423.383,231.662 423.116,230.952 C422.938,230.641 422.805,230.374 422.716,230.019 L422.405,228.864 C422.272,228.419 422.094,227.975 421.916,227.575 C421.783,227.309 421.65,227.042 421.605,226.776 C421.25,226.376 420.85,225.931 420.495,225.532 C420.273,225.265 420.051,224.954 419.917,224.599 C419.695,224.199 419.429,223.843 419.206,223.444 C418.762,222.511 418.851,221.489 418.051,220.823 C417.607,220.2 417.03,219.667 416.408,219.223 C416.274,218.734 416.141,218.068 415.697,217.713 C415.519,217.535 415.297,217.357 415.075,217.224 C414.897,217.224 414.497,216.646 414.497,216.424 C414.186,216.113 413.964,215.758 413.52,215.58 C413.387,215.402 413.253,215.314 413.031,215.269 C412.454,214.292 411.565,213.759 411.121,212.87 C410.81,212.381 410.588,211.804 410.01,211.537 C409.833,211.449 409.655,211.315 409.477,211.182 C408.944,210.205 408.766,209.094 407.567,208.694 C407.034,208.25 406.501,207.939 406.367,207.228 C405.968,206.784 405.968,206.384 405.257,206.295 C405.079,206.162 404.857,206.029 404.635,205.94 C404.279,204.873 403.613,203.896 402.724,203.185 C402.636,202.963 402.502,202.741 402.369,202.519 C402.191,202.208 402.014,201.897 401.791,201.63 C401.258,201.053 400.725,200.52 400.237,199.942 C399.348,199.498 399.082,199.276 398.859,198.787 C398.504,198.432 398.104,198.165 397.615,198.032 C397.26,197.943 396.994,197.765 396.816,197.454 C396.638,197.232 396.505,196.966 396.416,196.699 C396.105,196.299 395.838,195.811 395.527,195.411 C395.216,195.189 394.994,194.744 394.55,194.7 C394.328,194.656 394.106,194.611 393.884,194.478 C393.04,193.412 391.751,192.701 391.351,191.412 L390.774,190.879 C389.708,190.657 388.775,190.035 388.108,189.147 C388.108,189.013 387.62,188.836 387.131,188.747 C386.642,188.658 386.242,188.391 385.976,187.992 C385.132,187.592 384.288,187.059 383.399,186.659 C383.221,186.659 383.044,186.57 382.955,186.437 C382.511,186.037 383.221,185.459 381.978,185.504 C381.4,185.459 380.823,185.237 380.423,184.793 C379.268,184.127 378.068,183.505 376.824,183.016 C376.513,182.705 376.113,182.527 375.713,182.438 C375.358,182.35 375.003,182.261 374.647,182.216 C374.381,182.127 374.114,181.994 373.892,181.772 C373.315,181.283 372.559,180.928 371.804,180.839 C371.493,180.839 371.182,180.795 370.915,180.706 C370.827,180.572 370.782,180.439 370.782,180.306 L370.782,179.862 C370.782,179.551 370.471,179.417 370.071,179.462 L368.472,179.595 L368.028,179.062 C367.672,178.618 367.539,178.529 367.317,178.529 C366.695,178.529 366.073,178.44 365.451,178.262 C365.318,178.173 365.14,178.129 364.962,178.085 C364.651,177.729 364.207,177.463 363.763,177.374 L361.319,176.219 C360.698,176.041 360.031,175.863 359.409,175.775 C359.143,175.641 358.698,175.641 358.521,175.286 C358.032,175.241 357.543,175.108 357.099,174.886 C356.788,174.842 356.522,174.664 356.299,174.486 C355.633,174.397 355.189,174.22 354.611,174.086 C354.122,174.086 353.723,173.997 353.722,173.775 C353.19,173.42 352.745,172.842 351.99,172.798 C351.679,172.798 351.368,172.754 351.101,172.62 C350.657,172.309 350.08,172.22 349.547,172.265 C348.836,172.043 348.081,171.865 347.325,171.776 C346.392,171.821 345.415,171.687 344.526,171.465 C344.216,171.11 343.816,171.065 343.549,171.332 C343.283,171.643 342.794,171.51 342.261,171.154 C342.039,170.932 341.683,170.843 341.372,170.932 C341.106,170.976 340.839,170.976 340.572,170.977 C339.951,170.976 339.373,170.932 338.795,170.754 C337.152,170.532 335.686,169.777 334.042,169.866 C333.553,169.688 333.153,169.866 332.798,169.377 C332.487,169.199 332.132,169.199 331.821,169.333 C331.51,169.377 331.154,169.422 330.843,169.377 C330.621,169.333 330.399,169.333 330.221,169.377 C329.066,169.51 327.867,169.422 326.756,169.155 C326.09,169.022 325.423,169.022 324.757,169.155 C323.868,169.288 323.024,169.377 322.136,169.377 C321.558,169.377 320.936,169.422 320.359,169.511 C319.337,169.733 318.271,169.821 317.204,169.733 C316.671,169.644 316.138,169.688 315.694,169.91 C315.028,170.221 314.272,170.266 313.561,170.044 C312.673,170.044 311.785,170.088 310.896,170.177 C310.008,170.221 308.897,170.31 308.497,170.399 C308.142,170.443 307.831,170.488 307.52,170.577 C307.075,170.799 306.587,170.932 306.098,171.021 C305.698,171.11 305.343,171.243 304.987,171.421 L303.166,171.776 C302.722,171.687 302.322,171.732 301.922,171.91 L300.189,172.22 C299.079,172.576 297.924,172.842 296.768,173.02 C296.413,173.064 296.013,173.109 295.658,173.198 C294.947,173.242 294.281,173.375 293.57,173.553 C292.681,173.775 291.837,173.864 290.993,174.086 C290.016,174.308 288.994,174.486 288.017,174.619 C287.528,174.797 286.995,174.93 286.462,174.975 C286.018,174.975 285.529,175.019 285.084,175.108 C284.729,175.197 284.374,175.241 283.974,175.241 C283.396,175.508 282.774,175.686 282.108,175.819 C281.264,175.774 280.42,175.908 279.62,176.13 C279.132,176.219 278.643,176.352 278.198,176.485 C277.754,176.619 277.088,176.796 276.555,176.93 C276.377,176.93 276.199,176.974 276.066,177.019 C275.533,177.107 275,177.063 274.467,176.974 C273.8,176.841 273.134,176.841 272.468,176.93 C271.668,177.018 270.824,177.063 269.98,177.241 C269.58,177.374 269.18,177.374 268.736,177.329 C267.803,177.152 266.87,177.152 265.981,177.329 C264.871,177.552 264.826,177.552 264.338,177.418 C262.738,177.418 261.095,177.241 259.495,177.152 C259.095,177.018 258.651,176.974 258.207,177.019 C257.54,177.018 256.83,176.841 256.252,176.441 C255.941,176.263 255.541,176.263 255.275,176.441 C254.964,176.53 254.608,176.574 254.297,176.619 C253.853,176.619 253.809,176.619 253.675,176.441 C252.876,176.13 252.032,175.952 251.187,175.819 C250.121,175.597 249.188,175.197 248.122,174.886 C247.456,174.397 247.145,173.82 246.301,173.731 C245.501,173.642 245.323,173.375 245.368,173.02 C245.412,172.665 245.101,172.665 244.79,172.798 C244.479,172.976 243.058,172.798 243.235,172.487 C243.146,172.22 242.391,172.043 242.88,171.643 C242.969,171.554 243.058,171.51 243.191,171.465 C243.413,171.465 243.324,171.154 243.102,170.977 C242.88,170.799 242.613,170.665 242.524,170.977 C242.347,170.976 241.947,171.287 241.814,170.888 C241.147,170.621 240.437,170.443 240.036,169.777 C239.326,169.333 238.571,169.066 237.727,168.933 C237.46,168.933 237.238,168.844 237.015,168.711 C237.016,168.311 237.238,168.489 236.971,168 C236.66,167.556 236.571,167.556 236.393,167.645 C235.994,167.822 235.55,167.733 235.239,167.467 C235.017,167.245 234.928,167.245 234.483,167.289 C233.684,167.378 233.417,167.289 233.284,166.712 L232.706,166.223 C232.307,166.223 231.907,166.267 231.551,166.445 C231.285,166.578 230.974,166.623 230.663,166.623 C230.663,166.401 230.441,166.134 230.574,165.69 C230.574,165.334 230.574,165.29 230.352,165.246 C229.241,165.334 228.219,165.023 227.064,165.112 C226.353,164.935 226.087,165.112 226.087,164.357 C226.087,163.735 226.087,163.646 225.598,163.646 C225.11,163.646 225.11,164.268 224.443,163.913 C224.043,163.646 223.599,163.513 223.332,163.069 L222.977,163.202 C222.4,163.38 221.778,163.335 221.244,163.069 C221.067,162.935 220.845,162.847 220.667,162.802 C220.045,162.802 219.379,162.847 218.757,162.98 C218.535,163.158 218.268,163.202 218.001,163.069 C217.379,162.802 217.291,162.358 216.491,162.624 C216.002,162.447 215.602,162.447 215.069,162.225 C214.447,162.402 214.669,162.624 214.003,162.536 C213.426,162.847 213.159,163.291 212.404,163.024 C211.338,162.847 210.271,162.713 209.205,162.624 C208.228,162.624 207.25,163.113 206.406,162.669 C206.14,162.447 206.051,162.313 206.051,162.091 C206.051,161.869 206.051,161.825 205.784,161.869 C205.651,161.914 205.518,161.958 205.429,162.047 C205.162,162.313 204.94,162.536 204.629,162.758 C204.096,163.246 203.83,163.202 203.829,162.669 C203.741,162.669 203.163,162.491 202.852,162.758 C202.186,163.024 201.475,163.069 200.764,162.936 C200.453,162.847 200.409,162.847 200.053,163.069 C199.387,163.424 198.721,163.646 198.01,163.824 C197.699,163.646 197.299,163.735 197.077,164.046 C196.988,164.268 196.81,164.313 196.677,164.224 C196.144,164.135 195.655,164.179 195.122,164.268 C194.811,164.446 194.811,164.89 194.367,164.757 C193.567,164.757 193.212,164.668 193.078,164.535 C192.368,164.579 191.657,164.801 191.079,165.201 C190.857,165.379 190.591,165.468 190.324,165.379 C190.013,165.29 189.658,165.379 189.391,165.601 C188.858,165.912 188.28,166.09 187.703,166.09 C187.525,166.09 187.348,166.134 187.17,166.223 C186.637,166.489 186.104,166.712 185.481,166.801 C185.171,166.845 184.904,166.978 184.682,167.112 C184.282,167.422 183.838,167.689 183.393,167.911 C182.86,168.133 182.283,168.311 181.705,168.444 C180.995,168.666 180.328,169.022 179.795,169.555 C179.484,169.733 179.218,169.955 178.951,170.221 C177.263,170.932 175.708,171.865 174.286,172.976 C174.02,173.331 173.575,173.509 173.131,173.464 C172.598,173.464 172.554,173.464 172.42,173.775 C172.287,174.086 172.243,174.086 172.109,174.086 C171.976,174.086 171.932,174.086 171.932,174.175 C171.798,174.531 171.532,174.842 171.221,175.019 C171.132,175.019 171.043,175.064 171.043,175.197 C171.043,175.33 170.999,175.419 170.91,175.508 C170.821,175.552 170.777,175.641 170.732,175.73 C170.732,175.997 169.888,176.53 169.444,176.53 C169.222,176.619 169.044,176.752 168.911,176.885 C168.466,177.241 168.466,177.241 167.533,177.285 C167.045,177.329 166.601,177.507 166.156,177.729 C165.801,177.951 165.845,177.996 165.712,178.262 C165.579,178.529 165.268,179.417 164.646,179.373 C164.468,179.24 163.491,179.684 163.446,179.951 C163.18,180.306 162.78,180.484 162.336,180.395 C161.98,180.306 161.625,180.484 161.491,180.795 C161.492,180.928 161.358,181.017 161.225,181.017 C161.092,181.017 161.003,181.061 160.958,181.195 C160.958,181.328 160.736,181.372 159.981,181.505 C159.626,181.55 159.27,181.639 159.004,181.817 C158.204,182.572 157.316,183.238 156.427,183.86 C156.116,183.949 155.805,184.082 155.538,184.215 C154.739,184.438 153.939,184.749 153.273,185.193 C153.228,185.37 153.184,185.504 153.051,185.637 C152.873,185.859 152.784,185.859 152.251,185.859 C151.673,185.815 151.096,185.904 150.563,186.081 C150.296,186.348 149.985,186.526 149.63,186.615 C149.541,186.614 149.452,186.526 149.408,186.437 C149.274,185.992 148.253,186.437 148.119,186.97 C148.119,187.148 147.986,187.236 147.808,187.281 C147.675,187.281 147.586,187.414 147.542,187.547 C147.542,187.77 147.453,187.77 146.964,187.725 L146.387,187.725 L145.987,188.169 C145.676,188.525 145.498,188.614 145.276,188.614 C145.054,188.614 144.965,188.569 144.921,188.481 C144.876,188.391 144.388,188.347 144.387,188.658 C144.165,188.88 143.943,189.147 143.721,189.369 C143.499,189.635 143.188,189.769 143.144,189.858 C142.922,189.769 142.344,189.858 142.255,189.413 C142.033,189.635 141.678,189.724 141.544,190.124 C141.233,190.524 140.878,190.924 140.478,191.235 C140.078,191.324 139.678,191.324 139.278,191.235 C138.834,191.546 138.39,191.768 137.901,191.99 C136.924,192.878 135.769,192.967 134.525,193.589 C133.681,194.078 132.881,194.611 132.126,195.278 C131.993,195.411 131.815,195.5 131.637,195.544 C131.104,195.677 130.971,195.811 131.193,195.988 C131.415,196.166 131.371,196.299 130.571,196.344 L129.638,196.433 C129.505,196.477 129.416,196.566 129.371,196.655 L126.839,198.787 C126.751,198.832 126.706,198.876 126.706,198.965 C126.706,199.231 126.306,199.409 125.818,199.409 C125.24,199.676 124.618,199.765 124.263,200.386 C124.396,201.008 124.396,201.142 124.263,201.186 C123.818,201.186 123.419,200.875 122.974,201.364 C122.397,201.586 122.263,201.764 122.663,201.853 C122.441,202.075 122.308,202.163 122.086,202.475 C121.819,202.919 121.419,203.319 120.975,203.585 C120.797,203.896 120.709,204.296 120.397,204.518 C119.909,204.607 119.42,204.785 118.976,205.096 C118.398,205.584 117.554,205.762 116.843,205.496 C116.577,205.318 116.488,205.229 116.355,204.563 C116.177,203.896 116.133,203.807 115.955,203.719 C115.511,203.319 115.066,203.319 115.066,202.608 L114.578,202.652 C114,202.119 113.289,201.719 112.578,201.408 C112.357,201.364 112.179,201.275 112.046,201.097 C111.246,200.92 110.446,200.831 109.646,200.786 C109.113,201.275 108.536,201.675 107.869,201.986 C107.159,202.386 106.448,202.874 105.87,203.452 C105.737,203.63 105.604,203.807 105.426,203.941 C105.115,204.562 104.76,205.14 104.36,205.718 C104.049,205.984 103.782,206.34 103.604,206.695 C103.382,207.139 103.205,207.628 103.071,208.117 C102.761,208.472 102.583,208.916 102.538,209.361 C102.538,209.76 102.538,209.805 102.272,209.894 C102.005,209.982 101.872,210.071 101.827,210.293 C101.517,210.604 101.206,211.138 100.583,211.271 C100.051,211.226 99.517,211.315 99.029,211.449 C98.673,211.582 98.318,211.671 97.962,211.715 C97.518,211.937 97.163,212.293 96.63,212.159 C95.697,211.848 94.808,211.449 93.964,210.916 C93.431,210.382 92.854,209.894 92.187,209.449 C91.654,209.183 91.121,208.916 90.588,208.694 C90.366,208.339 90.144,207.983 89.877,207.717 C89.255,207.628 88.411,207.317 87.878,207.273 C87.345,207.317 86.812,207.495 86.367,207.806 C86.012,208.072 85.701,208.339 85.434,208.694 C84.901,209.583 84.146,210.293 83.657,211.049 C83.524,211.404 83.346,211.76 83.169,212.115 C82.991,212.293 82.947,212.515 82.902,213.093 C82.902,213.448 82.813,213.759 82.68,214.07 C82.413,214.647 82.236,215.225 82.058,215.847 C81.925,216.469 81.836,217.091 81.836,217.757 C81.747,217.935 81.658,218.157 81.614,218.379 C81.614,218.557 81.525,218.912 81.525,219.179 C81.48,219.445 81.525,219.712 81.614,219.89 C81.969,220.778 82.147,221.755 82.058,222.688 C81.747,222.999 81.436,223.355 81.169,223.621 C80.503,224.554 79.437,225.265 78.859,226.331 C78.859,226.553 78.726,226.642 78.593,226.642 C78.282,226.909 77.971,227.131 77.615,227.309 C77.393,227.575 77.216,227.886 77.082,228.197 C76.816,228.73 76.505,229.219 76.149,229.708 C75.661,230.374 75.216,231.085 74.861,231.796 C74.061,233.439 73.128,234.994 72.373,236.638 C72.062,236.638 71.884,236.905 71.662,237.527 C71.396,237.926 71.218,238.415 71.129,238.86 C70.907,239.304 70.685,239.748 70.374,240.148 C70.152,240.414 69.974,240.725 69.796,241.036 C69.574,241.569 69.263,242.014 68.908,242.458 C68.641,242.947 68.464,243.48 68.375,244.057 C68.375,244.19 68.286,244.457 68.242,244.591 C68.464,244.99 68.73,245.39 68.997,245.746 C69.308,246.145 69.485,246.634 69.974,246.634 C70.196,246.634 70.418,246.723 70.596,246.856 C70.818,247.123 70.818,247.211 70.507,247.478 C70.196,247.745 70.196,247.833 70.418,247.834 C70.463,248.056 71.174,248.544 70.685,248.767 C70.507,248.677 70.418,248.322 70.241,248.455 C70.241,249.077 70.374,249.699 70.64,250.277 C70.596,250.632 70.507,250.943 70.374,251.254 C70.374,251.876 70.152,252.498 69.796,253.031 C69.619,253.52 69.352,254.009 68.997,254.364 L68.686,254.897 C68.375,255.386 68.064,255.83 67.708,256.274 L66.509,257.696 C66.109,258.185 65.532,259.073 64.998,259.695 C64.91,259.917 64.776,260.051 64.643,260.051 L63.443,261.428 C63.355,261.828 63.221,261.961 62.955,261.961 C62.688,261.961 62.377,262.227 62.377,262.361 C62.022,262.805 61.711,263.249 61.489,263.738 C61.178,264.093 60.867,264.449 60.6,264.849 C59.934,265.648 59.223,266.403 58.468,267.07 C58.112,267.559 57.846,268.269 57.401,268.447 C56.957,269.113 56.424,269.735 55.891,270.313 C55.358,270.713 54.914,271.201 54.603,271.779 C54.692,272.179 54.292,272.534 53.27,272.934 C52.915,273.023 52.604,273.156 52.337,273.379 C52.026,273.645 51.715,273.867 51.36,274.045 L50.382,274.8 C50.071,275.111 49.982,275.244 49.982,275.6 C50.027,276.222 50.338,276.799 50.826,277.199 C51.182,277.554 51.582,277.91 52.026,278.176 C52.515,278.532 53.137,278.754 53.714,278.843 C54.292,278.843 54.381,278.887 54.469,279.109 C54.558,279.331 54.736,279.287 54.78,278.976 C54.78,278.843 54.958,278.754 55.313,278.665 C55.891,278.532 56.069,278.621 55.935,278.976 C55.891,279.198 55.713,279.331 55.536,279.287 C55.491,279.287 55.447,279.243 55.402,279.243 C55.269,279.198 55.136,279.198 55.003,279.243 L54.736,279.331 L55.047,279.554 C55.402,279.82 55.358,280.131 55.047,280.131 C54.869,280.131 54.825,280.131 54.825,279.865 C54.825,279.598 54.558,279.376 54.425,279.598 C54.381,279.998 54.47,280.442 54.691,280.798 C54.869,280.975 55.047,281.108 55.269,281.197 C55.58,281.331 55.847,281.553 56.069,281.775 C57.135,282.619 58.423,283.152 59.756,283.374 C60.334,283.507 60.911,283.73 61.489,283.952 C61.977,284.041 62.422,284.174 62.866,284.307 C63.399,284.529 63.977,284.574 64.51,284.44 C64.91,284.396 65.265,284.352 65.665,284.396 C65.843,284.396 66.198,284.485 66.464,284.529 C66.775,284.574 67.042,284.663 67.353,284.752 C67.797,284.973 68.33,285.462 68.33,285.596 C68.597,285.773 68.952,285.906 69.086,286.217 C69.53,286.706 70.107,287.061 70.685,287.328 C70.818,287.506 71.04,287.506 71.174,287.373 C71.174,287.239 71.174,287.061 71.085,286.928 C70.996,286.662 70.907,286.44 70.863,286.173 C70.729,285.862 70.596,285.595 70.463,285.329 C70.463,285.196 70.374,284.973 70.33,284.84 C70.463,284.751 70.729,284.352 71.04,284.263 C71.929,284.041 72.773,283.774 73.661,283.508 C73.928,283.33 74.195,283.196 74.505,283.063 C75.305,282.574 76.061,281.997 76.771,281.42 C77.127,281.197 77.482,280.931 77.837,280.664 C78.682,280.264 79.215,279.687 80.014,279.331 C80.459,279.243 81.081,278.932 81.436,279.109 C81.525,279.243 81.569,279.465 81.525,279.909 C81.303,281.108 80.636,282.175 79.659,282.886 L80.148,283.019 C80.237,283.108 80.148,283.196 79.792,283.33 C79.259,283.863 78.682,284.396 78.104,285.018 C77.971,285.062 77.838,285.196 77.837,285.373 C77.615,285.684 77.26,285.906 77.127,286.306 C76.993,286.706 76.993,287.639 77.127,287.728 C77.216,288.039 77.304,288.305 77.482,288.572 C77.571,288.75 77.66,288.839 77.926,288.839 C78.193,288.839 78.282,288.839 78.415,289.194 C78.504,289.416 78.548,289.594 78.593,289.816 C78.593,290.082 78.593,290.127 78.415,290.171 C77.66,290.26 76.905,289.949 76.416,289.372 C76.149,288.528 75.439,287.595 75.172,287.817 C75.261,288.528 75.261,289.283 75.128,289.994 C74.817,289.86 74.328,289.994 74.15,289.505 C73.972,289.372 73.75,289.238 73.617,289.105 C73.439,288.927 73.217,288.794 72.995,288.75 C72.64,288.75 72.551,288.972 72.817,289.238 C73.217,289.683 73.617,290.171 74.017,290.66 C74.106,291.015 74.106,291.415 74.017,291.771 C73.928,292.259 73.928,292.304 73.661,292.349 C73.395,292.393 73.395,292.348 73.395,293.059 C73.351,293.548 73.484,294.036 73.839,294.392 C73.972,294.658 74.061,294.969 74.017,295.28 L74.017,295.947 L74.594,296.302 C74.95,296.88 74.683,297.235 75.572,297.28 C76.327,297.857 77.304,298.168 78.237,298.168 C78.46,298.168 78.993,298.168 79.392,298.257 C79.792,298.346 80.325,298.39 80.592,298.39 C80.859,298.435 81.125,298.523 81.392,298.657 C81.88,298.701 82.369,298.746 82.813,298.746 C82.947,298.968 83.302,298.923 84.19,298.746 C84.635,298.657 84.946,298.612 84.99,298.657 C85.301,298.79 85.701,298.746 85.967,298.568 C86.501,298.257 87.123,298.079 87.7,298.035 C88.677,297.901 88.766,297.901 88.766,297.68 C88.766,297.457 89.477,297.057 90.144,296.88 C90.588,296.746 90.588,296.702 90.588,296.436 C90.854,296.169 91.121,295.813 91.654,295.725 C92.498,295.414 92.898,294.658 93.831,294.747 C94.542,294.792 94.586,294.792 94.675,294.614 C95.164,293.681 95.519,293.414 96.452,293.37 C96.985,293.37 97.074,293.326 97.207,293.103 C97.607,292.97 98.096,292.748 98.584,292.615 C98.807,292.437 99.118,292.393 99.384,292.437 C99.651,292.437 99.784,292.57 99.828,292.659 C99.917,292.926 100.362,292.881 100.717,292.57 C100.85,292.437 101.028,292.348 101.206,292.304 C101.383,292.304 101.739,292.526 101.739,292.659 C101.739,292.792 102.316,293.059 102.405,292.97 C102.494,292.926 102.583,292.126 103.071,292.482 C103.427,292.615 103.827,292.615 104.227,292.526 C104.626,292.526 104.893,292.748 105.337,292.482 C105.515,292.481 105.559,292.526 105.515,292.793 C105.47,293.059 105.515,293.103 105.959,293.103 C106.181,293.103 106.403,293.059 106.581,293.015 C106.67,292.97 106.803,292.97 106.892,293.103 C106.937,293.148 106.937,293.237 106.892,293.326 C106.892,293.414 106.937,293.503 107.07,293.548 C107.47,293.681 107.647,293.992 107.647,294.659 C107.647,295.28 107.647,295.236 107.825,295.236 C108.003,295.236 108.047,295.147 108.092,294.881 C108.18,294.88 108.625,294.125 109.025,294.659 C109.291,294.836 109.913,294.658 109.735,295.103 C109.824,295.502 109.735,295.991 110.135,296.169 C110.402,296.213 110.713,296.258 111.024,296.302 C111.468,296.391 111.557,296.613 111.379,297.057 C111.379,297.546 111.29,298.079 111.157,298.568 C110.89,299.057 110.846,299.634 111.068,299.634 C111.29,299.634 111.69,299.057 111.779,298.657 C111.868,298.035 111.957,297.901 112.09,297.901 C112.268,297.901 112.223,298.079 112.268,298.524 C112.312,298.968 112.312,299.145 112.534,299.19 C112.756,298.657 112.89,298.079 112.978,297.502 C113.112,297.413 113.245,297.368 113.423,297.368 C113.467,297.857 113.6,298.346 113.822,298.79 C114,298.79 114.045,298.701 114.089,298.301 C114.178,297.59 114.533,297.324 114.8,297.724 C114.844,297.813 114.933,297.901 115.022,297.901 C115.155,297.235 115.111,296.613 114.933,295.947 C114.667,295.502 115.022,295.369 115.688,295.636 L116.088,295.769 L116.044,296.258 C115.999,296.746 116.044,296.746 116.266,296.791 C116.399,296.835 116.488,296.835 116.621,296.791 C116.755,296.391 116.755,295.947 116.621,295.547 C116.444,295.28 116.621,294.925 116.843,294.925 C116.844,294.747 117.066,293.948 117.243,293.859 C117.377,293.903 117.51,293.948 117.688,293.948 C117.91,293.948 117.954,293.948 117.999,293.637 C118.043,293.414 117.954,293.192 117.776,293.015 C117.554,292.792 117.554,292.437 117.776,292.215 C117.599,292.037 117.243,291.904 117.243,291.771 C117.332,291.682 117.332,291.549 117.288,291.415 C117.288,291.415 117.999,291.238 118.265,291.593 C118.532,291.593 118.621,291.593 118.665,291.638 C118.843,292.215 118.976,292.792 118.976,293.37 C118.976,293.814 118.976,293.992 119.153,294.081 C119.331,294.17 119.376,294.17 119.464,294.081 C119.642,293.459 119.598,292.837 119.331,292.259 C118.976,291.593 119.065,291.06 119.642,290.838 C120.22,290.66 120.309,291.015 120.087,292.037 C119.998,292.259 119.998,292.57 120.131,292.793 C120.22,292.97 120.353,293.103 120.397,293.103 C120.442,293.103 120.531,292.926 120.619,292.704 C120.753,292.304 120.753,292.304 121.153,292.304 L121.553,292.304 L121.553,291.904 L121.286,289.905 C121.286,289.505 121.286,289.416 121.464,289.416 C121.642,289.416 122.175,289.86 122.175,290.082 C122.175,290.305 122.441,290.66 122.574,290.66 C122.708,290.66 122.752,290.482 122.841,290.305 L123.019,289.949 L122.219,288.794 C121.953,288.483 121.775,287.906 121.908,287.684 C121.997,287.506 121.997,287.284 121.908,287.106 C121.775,286.662 121.908,286.395 122.175,286.395 C122.441,286.617 122.619,286.884 122.707,287.195 C123.019,287.639 123.285,288.128 123.552,288.617 C123.463,288.839 123.596,289.061 123.774,289.15 C123.818,289.194 123.907,289.194 123.952,289.15 C124.174,289.15 124.174,289.15 124.174,288.572 C124.174,288.172 124.085,287.772 123.818,287.417 C123.374,286.706 123.33,286.217 123.729,286.084 C124.085,285.951 124.085,285.551 124.396,285.906 C124.796,286.217 124.973,286.751 124.885,287.239 C124.796,287.772 124.885,288.039 125.24,288.128 C125.373,288.172 125.507,288.217 125.64,288.217 C125.773,288.217 125.729,287.284 125.595,287.017 C125.507,286.928 125.507,286.751 125.551,286.662 C125.595,286.484 125.595,286.306 125.551,286.129 L125.418,285.329 C125.418,284.885 125.151,284.707 124.84,284.885 C124.529,285.062 124.352,284.929 124.351,284.574 C124.352,284.085 124.44,283.596 124.573,283.108 C124.84,283.285 125.373,283.374 125.418,283.863 C125.373,284.041 125.329,284.174 125.329,284.352 C125.329,284.663 125.329,284.707 125.595,284.707 C125.818,284.707 126.04,284.796 126.217,284.929 C126.484,285.107 126.573,285.24 126.573,285.507 C126.573,285.818 126.751,286.173 127.061,286.084 C127.372,285.995 127.417,285.862 127.195,285.196 C126.973,284.529 127.017,284.085 127.195,283.996 C127.461,283.952 127.728,284.085 127.906,284.307 C127.994,284.574 128.039,284.84 128.083,285.107 C128.128,285.729 128.305,285.995 128.572,285.906 C128.883,285.818 128.661,284.618 128.35,284.218 C128.217,283.996 128.083,283.774 127.994,283.508 C127.906,283.196 127.906,283.108 128.083,283.019 C128.217,282.974 128.261,282.797 128.216,282.664 C127.861,282.619 127.506,282.574 127.106,282.619 C126.839,282.441 126.973,282.308 127.594,282.219 C127.906,282.086 128.305,282.13 128.572,282.308 C128.972,282.486 129.061,282.974 129.549,282.797 L129.816,282.797 L129.816,283.508 C129.816,283.774 129.771,284.085 129.638,284.352 C129.549,284.44 129.549,284.574 129.594,284.707 C129.594,284.84 129.594,284.973 129.505,285.107 C129.327,285.329 129.505,285.507 129.905,285.418 C130.305,285.373 130.438,285.24 130.527,284.663 C130.571,284.44 130.571,284.218 130.66,283.952 C130.749,283.73 131.149,283.73 131.504,283.952 C131.859,284.174 131.993,284.129 132.082,283.596 C132.126,283.285 132.17,283.196 132.348,283.197 C132.481,283.196 132.57,283.285 132.659,283.374 C132.748,283.507 132.926,283.596 133.059,283.552 C133.326,283.552 133.37,283.552 133.37,283.285 C133.326,283.019 133.237,282.797 133.103,282.575 C132.926,281.419 132.97,281.064 134.258,281.331 L134.258,282.175 C134.214,282.93 134.214,282.974 134.392,282.974 C134.747,282.974 134.88,282.841 134.88,282.308 C134.969,281.73 135.014,281.108 135.014,280.487 C135.103,280.353 135.191,280.264 135.236,280.131 C135.325,279.953 135.414,279.909 135.68,279.909 C135.947,279.909 136.036,279.909 136.08,280.22 C136.124,280.442 136.169,280.664 136.169,280.931 C136.169,281.419 136.302,281.686 136.569,281.686 C136.835,281.686 136.968,281.419 136.88,280.975 C136.88,280.531 136.835,280.087 136.702,279.687 C136.702,279.42 136.924,279.376 137.457,279.554 C137.901,279.731 138.435,279.509 138.612,279.065 L138.612,279.021 C138.923,278.354 139.057,278.265 139.723,278.265 C140.389,277.954 141.011,277.554 141.544,277.066 C141.678,277.066 141.811,277.021 141.944,276.977 C142.211,277.11 142.433,277.288 142.699,277.466 C142.966,277.288 143.233,277.11 143.543,277.021 C143.766,277.021 143.988,276.932 144.165,276.844 C144.388,276.71 144.388,276.666 144.343,276.355 C144.299,276.044 144.343,275.999 144.61,275.822 C144.832,275.688 145.098,275.555 145.32,275.378 C145.632,275.111 145.72,275.111 146.298,275.155 C146.742,275.022 147.098,275.066 147.497,274.889 C147.631,274.889 147.808,274.978 147.941,275.022 C148.119,275.155 148.741,275.2 148.83,275.066 C148.875,274.933 148.919,274.8 148.919,274.667 C148.919,274.356 149.052,274.045 149.274,273.778 C149.585,273.556 150.43,274.045 150.252,274.356 C150.252,274.489 150.296,274.533 150.874,274.578 C151.451,274.622 151.807,274.578 151.984,274.134 C152.073,273.956 152.429,273.956 152.651,274.134 C152.917,274.356 153.273,274.311 153.495,274.045 C153.85,273.512 154.339,273.067 154.917,272.801 C155.228,273.023 155.539,273.289 155.805,273.556 C156.027,273.512 156.249,273.423 156.427,273.245 C156.649,272.978 157.005,272.89 157.315,272.934 C157.804,272.934 157.893,272.934 157.982,272.712 C158.249,272.401 158.382,271.957 158.87,271.824 C159.093,271.69 159.937,272.179 160.114,272.49 C160.292,272.845 160.47,272.801 160.647,272.49 C161.003,272.223 161.314,271.957 161.625,271.69 C161.758,271.468 162.114,271.468 162.38,271.69 C162.691,271.868 163.091,271.823 163.357,271.601 C163.624,271.424 163.757,271.379 163.891,271.468 C164.513,271.601 165.09,271.779 165.668,272.001 C165.89,272.268 166.245,272.445 166.289,272.845 C166.467,272.978 166.467,273.023 166.334,273.245 C166.112,273.778 165.801,273.911 165.756,274.667 C165.668,275.066 166.067,275.066 165.579,275.511 C165.446,275.644 165.312,275.777 165.223,275.955 C165.223,276.088 165.757,276.621 165.979,276.71 C165.89,276.799 165.801,276.977 165.712,276.888 C165.401,277.199 165.179,277.554 165.046,277.954 C165.09,278.532 165.001,279.154 164.735,279.643 C164.513,280.842 164.113,281.997 163.535,283.063 C163.313,283.818 163.091,284.618 162.824,285.373 C162.558,285.729 162.38,286.129 162.38,286.573 C162.425,286.795 162.425,287.061 162.38,287.284 C162.38,287.683 162.291,287.772 162.113,287.772 C162.114,288.439 162.025,289.105 161.803,289.772 C161.803,290.571 161.625,291.371 161.225,292.082 C161.047,292.659 160.914,293.281 160.647,293.859 C160.648,294.525 160.514,295.236 160.247,295.858 C160.07,296.48 159.937,297.102 159.848,297.724 C159.892,298.301 159.67,298.834 159.315,299.279 C159.093,300.212 158.693,301.1 158.16,301.855 C158.071,302.433 157.849,303.01 157.493,303.499 C157.493,303.766 157.404,303.988 157.227,304.166 C157.005,304.965 156.649,305.676 156.16,306.298 C156.116,307.275 156.249,308.297 155.361,308.697 C155.183,309.541 154.783,310.341 154.117,310.918 C153.895,310.918 153.85,310.918 153.806,311.274 C153.317,312.118 152.829,312.429 152.251,313.362 C152.251,313.451 152.162,313.539 151.984,313.584 L151.407,314.25 C150.874,314.694 150.607,314.739 150.429,315.45 C150.252,315.938 150.296,316.427 149.763,316.827 C149.63,316.871 149.541,316.916 149.496,317.049 C148.963,317.582 148.608,318.426 147.941,318.515 C147.808,318.648 147.497,318.782 147.364,319.048 C147.186,319.181 147.009,319.359 146.875,319.582 C146.787,319.715 146.609,319.848 146.564,319.848 C146.431,320.07 146.342,320.248 146.209,320.47 C145.01,321.669 143.899,322.913 142.922,324.291 C142.566,324.779 142.166,325.179 141.766,325.579 C141.265,326.19 141.497,325.984 141.143,326.27 C140.988,326.163 141.076,326.177 140.878,326.29 L140.933,326.44 L140.789,326.556 C140.389,327 140.078,327.489 139.856,328.067 L139.101,328.866 C138.657,329.355 138.212,329.888 137.857,330.421 L137.19,331.887 C136.968,332.376 136.702,332.776 136.391,333.176 C136.213,333.842 135.902,334.464 135.547,335.042 C135.191,335.575 134.836,336.108 134.569,336.641 C134.303,337.085 134.036,337.574 133.859,338.063 C133.148,338.995 132.348,339.84 131.415,340.551 C130.616,341.172 129.683,341.661 128.705,341.972 C127.683,342.239 126.662,342.372 125.64,342.328 L122.797,342.416 C122.397,342.416 121.997,342.505 121.597,342.594 C120.709,342.772 119.864,342.994 118.976,343.127 C118.665,343.127 118.354,343.127 118.087,343.172 C117.288,343.171 116.533,343.349 115.866,343.793 C115.244,344.193 114.4,344.593 113.911,344.771 C113.423,344.949 113.156,345.437 112.934,345.482 C112.312,346.059 111.601,346.503 110.846,346.814 L110.663,346.962 L89.029,346.962 C39.86,346.962 0,307.102 0,257.933 C1.106,214.235 31.515,177.528 74.952,170.036 C74.54,165.975 74.785,168.843 74.597,161.408 C74.597,88.064 134.054,28.608 207.398,28.608 z M172.784,60.135 L162.821,92.172 L129.004,91.943 L156.168,111.157 L145.726,143.41 L172.881,123.652 L199.841,143.41 L189.595,111.157 L216.564,91.943 L183.266,91.847 L172.784,60.135 z" fill="#FFFFFF"/>
    <path d="M216.441,298.612 C217.418,299.19 218.529,299.59 218.795,300.834 C218.884,301.145 218.929,301.411 218.884,301.411 C218.84,301.456 218.884,301.633 219.373,301.678 C219.773,301.989 220.439,302.166 220.528,302.655 C220.484,302.922 220.484,303.188 220.483,303.499 C220.484,303.988 220.484,303.988 220.75,303.988 L221.505,304.121 C221.505,304.699 221.55,305.276 221.683,305.854 C222.083,306.254 221.772,306.831 222.749,306.609 C223.06,306.52 223.727,306.609 223.727,306.787 C223.727,306.964 223.816,306.964 223.949,307.053 C224.215,307.364 224.393,307.72 224.482,308.119 C224.615,308.253 224.793,308.342 224.971,308.342 C225.548,308.786 226.126,309.186 226.748,309.541 L227.147,310.119 C227.592,310.874 227.814,311.318 228.747,311.452 L229.457,311.452 L230.168,312.607 C230.435,312.606 231.013,313.228 231.101,313.584 C231.235,313.984 231.368,314.383 231.457,314.783 C231.457,315.05 231.723,315.316 231.945,315.272 C232.567,315.494 233.145,315.494 233.411,316.249 C233.5,316.471 233.589,316.694 233.634,316.96 C233.9,317.138 234.167,317.316 234.433,317.449 C234.833,317.538 235.322,317.538 235.588,317.849 C236.255,318.382 236.966,318.915 237.676,319.359 C237.943,319.715 238.254,319.981 238.654,320.114 C239.143,320.47 239.764,320.736 239.853,321.403 C240.742,322.469 241.719,323.446 242.741,324.379 C242.963,324.468 244.252,325.001 243.452,324.913 C243.452,324.912 242.83,325.046 243.363,325.313 C244.029,325.934 244.785,326.467 245.584,326.912 C245.984,327.089 246.473,327.134 246.695,327.534 C247.228,328.2 247.717,328.866 248.117,329.622 C248.25,329.888 248.383,330.066 248.472,330.066 C248.872,331.265 248.65,332.598 247.983,333.62 L246.695,333.62 C245.94,333.62 245.318,333.798 244.607,333.753 C243.674,333.709 242.785,333.709 241.852,333.798 C241.186,333.798 240.52,333.975 240.52,334.109 C240.164,334.242 239.809,334.42 239.453,334.642 C239.143,334.819 238.787,334.953 238.476,334.997 C237.81,335.086 237.188,335.219 236.566,335.397 C236.033,335.619 235.544,335.93 235.1,336.241 C234.744,336.419 234.433,336.596 234.122,336.819 C233.678,337.218 233.189,337.529 232.656,337.796 C232.479,337.796 232.345,337.885 232.168,338.196 C232.079,338.462 231.857,338.64 231.59,338.685 C231.279,338.773 231.19,338.862 231.146,339.04 C230.213,340.151 229.191,341.217 228.169,342.194 C227.547,343.038 227.014,343.927 226.348,344.727 C225.948,345.26 225.593,345.837 225.282,346.415 C225.459,346.637 225.992,346.459 226.259,346.104 C226.392,345.926 226.57,345.748 226.748,345.66 C227.325,345.215 228.036,344.949 228.747,344.815 C228.836,344.815 228.925,344.771 229.013,344.727 C229.102,344.593 229.28,344.726 229.28,344.904 C227.965,346.352 228.65,345.667 227.225,346.962 L166.702,346.962 C167.218,346.75 167.358,346.135 167.483,345.66 L167.528,345.215 L168.15,345.215 C168.416,345.215 168.727,345.304 168.994,345.393 C169.172,345.393 169.172,345.348 169.172,344.993 C169.172,344.638 169.261,344.415 169.838,344.504 C170.416,344.593 170.416,344.549 170.416,344.327 L171.837,342.639 C172.281,342.105 172.859,341.661 173.525,341.35 C173.836,341.35 174.103,341.217 174.503,340.773 C174.903,340.328 175.347,340.017 175.48,339.307 C175.702,338.907 175.88,338.462 175.924,338.018 C175.924,337.796 176.191,337.796 176.413,338.018 C176.68,338.24 177.124,338.285 177.124,338.063 C177.39,337.707 177.835,337.485 177.746,336.952 C177.701,336.685 177.835,336.419 178.057,336.286 C178.368,335.974 178.812,335.797 179.256,335.708 C179.612,335.486 179.834,335.042 180.367,335.13 C180.589,335.13 180.811,335.086 180.989,334.997 C180.989,334.642 181.078,334.331 181.211,334.02 C181.3,334.02 181.389,333.931 181.478,333.798 C181.567,333.664 181.611,333.576 181.966,333.62 C182.677,333.309 183.166,333.353 183.521,332.332 C183.521,331.932 183.655,331.843 184.365,331.887 C184.898,331.887 185.076,331.887 185.165,331.754 C185.343,331.576 185.52,331.31 185.653,331.088 C185.876,330.866 186.098,330.732 186.409,330.644 C187.386,330.199 187.386,330.199 187.386,329.711 C187.564,329.488 187.564,329 188.008,328.955 C188.275,328.822 188.586,328.777 188.896,328.778 C189.652,328.733 189.741,328.689 189.785,328.511 C189.874,328.333 190.141,328.289 190.185,328.067 C190.23,327.845 190.274,327.534 190.585,327.534 C190.896,327.534 190.896,327.445 191.074,327.045 C191.473,326.823 191.562,326.378 192.184,326.467 C192.406,326.378 192.451,326.245 192.584,325.49 C192.584,325.312 192.629,325.135 192.762,324.957 L194.317,324.957 C194.583,324.468 194.717,323.935 194.761,323.402 C195.427,322.736 195.916,322.025 196.938,322.025 C197.027,322.069 197.16,322.114 197.249,322.114 L197.426,321.403 C197.515,321.003 197.249,319.892 197.737,320.159 C198.582,320.248 198.893,320.159 199.337,319.537 C199.515,319.315 199.692,319.093 199.87,318.915 C200.581,318.337 200.581,317.982 201.469,318.071 C201.914,318.071 201.958,318.071 202.002,317.849 C202.002,317.627 202.002,317.449 202.047,317.271 C202.136,317.093 202.18,317.093 202.535,317.227 C203.158,317.449 203.202,317.404 203.113,316.916 C203.069,316.605 202.935,316.294 202.846,315.983 C202.491,315.005 202.624,314.739 203.38,315.005 C203.735,315.094 203.779,315.094 203.957,314.961 C204.135,314.828 203.957,314.206 204.535,314.295 C205.068,314.206 205.112,314.206 205.157,313.673 C205.157,313.362 205.246,313.273 205.645,313.006 C206.001,312.695 206.401,312.429 206.8,312.207 C207.289,312.118 207.289,312.073 207.289,311.851 C207.156,311.585 207.023,311.318 206.978,311.007 C207.956,310.207 208.711,309.141 209.111,307.897 C209.155,307.32 209.288,307.231 209.821,307.275 C210.355,307.32 210.399,307.186 210.532,306.387 C210.621,305.587 210.843,305.143 211.199,305.01 L211.598,304.876 C211.687,304.876 211.776,304.654 211.865,304.343 C212.132,303.855 212.354,303.321 212.442,302.788 C212.576,302.788 212.842,302.211 213.242,302.566 L213.242,302.167 C213.242,301.5 213.464,301.189 213.909,301.056 C214.708,300.434 215.464,299.767 216.13,298.968 C216.219,298.834 216.396,298.746 216.441,298.612 z" fill="#FFFFFF"/>
    <path d="M269.269,290.838 C269.358,290.838 269.447,290.927 269.491,291.016 C269.624,291.371 269.758,291.682 269.935,291.993 C269.98,292.037 270.024,291.993 270.068,291.904 C270.113,291.815 270.291,291.637 270.291,291.904 C270.291,292.171 270.424,292.171 270.513,291.904 C270.602,291.637 270.602,291.771 270.735,291.904 C270.868,292.037 270.868,291.993 270.957,291.815 C271.046,291.637 271.224,291.593 271.401,291.682 C271.49,291.726 271.535,291.771 271.535,291.815 C271.624,292.037 272.29,292.215 272.423,292.037 C272.557,291.86 272.645,291.904 274.511,292.037 C275.711,292.082 275.844,292.126 275.844,292.259 C275.844,292.615 276.466,292.704 276.599,292.349 C276.599,292.215 276.733,292.171 277.177,292.171 C277.621,292.171 277.976,292.171 278.243,292.082 C278.732,291.993 278.776,292.037 278.598,292.171 C278.51,292.259 278.465,292.393 278.465,292.482 C278.465,292.615 278.598,292.659 278.954,292.615 C279.576,292.615 279.931,292.437 280.02,292.171 C280.598,291.993 280.953,291.682 281.619,292.037 C281.753,292.037 281.797,292.082 281.708,292.349 C281.664,292.615 281.708,292.793 282.063,292.704 C282.33,292.526 282.508,292.259 282.552,291.949 C282.552,291.86 282.73,291.815 283.352,291.815 L284.151,291.815 L284.151,292.126 C284.152,292.393 284.152,292.437 284.418,292.437 C284.685,292.482 284.729,292.437 284.773,292.304 C284.862,292.037 285.085,291.86 285.351,291.815 C285.484,291.815 285.662,291.726 285.751,291.638 C285.795,291.504 285.929,291.46 286.062,291.504 C286.195,291.549 286.24,291.637 286.151,292.082 C286.106,292.526 286.151,292.704 286.64,292.393 C286.862,292.259 287.128,292.215 287.35,292.304 C287.661,292.526 288.017,292.748 288.327,293.015 C288.683,293.059 288.994,293.015 289.305,292.882 C289.527,292.926 289.616,292.881 289.616,292.748 C289.616,292.615 289.838,292.348 290.193,292.171 C290.416,292.082 290.46,292.082 290.593,292.215 C290.682,292.304 290.771,292.393 290.904,292.393 C291.171,292.393 291.749,292.659 291.748,292.748 C291.749,292.837 291.704,292.881 291.615,292.926 C291.526,293.015 291.526,293.104 291.615,293.281 C291.704,293.459 291.971,293.681 292.104,293.37 C292.282,293.015 292.637,292.837 292.992,292.882 C293.348,293.015 293.526,293.237 293.348,293.459 C293.17,293.681 293.17,293.948 293.481,293.948 C293.925,293.592 294.414,293.059 295.08,292.97 C295.125,293.503 294.992,294.036 294.814,294.481 C294.636,294.881 294.725,295.103 294.991,295.103 C295.258,295.103 295.569,294.614 295.658,294.125 C295.747,293.592 296.28,293.059 296.635,293.148 C296.858,293.192 296.946,293.37 296.813,293.503 C296.591,293.948 296.413,294.392 296.369,294.881 C296.369,295.325 296.502,295.414 296.946,295.28 C297.391,295.147 297.302,295.103 297.302,294.792 C297.346,294.436 297.435,294.081 297.613,293.815 C297.613,292.57 297.435,292.171 298.368,292.526 C298.635,292.704 298.946,292.704 299.079,292.97 C298.857,293.503 298.812,294.036 298.857,294.614 C299.123,294.792 299.523,294.525 299.523,294.125 C299.523,293.992 299.567,293.814 299.656,293.726 C299.878,293.326 300.189,292.926 300.5,292.615 C300.634,292.615 300.811,292.615 300.944,292.57 C301.256,292.437 301.256,293.015 300.856,294.259 C300.767,294.481 300.723,294.747 300.767,294.97 C300.945,295.414 301.567,294.703 301.744,293.859 C302.055,292.881 303.077,292.304 304.054,292.615 L304.099,292.615 L304.854,292.748 C305.165,292.793 305.832,293.237 305.831,293.37 C305.832,293.548 305.743,293.548 305.565,293.637 C305.254,293.77 305.076,294.125 305.209,294.436 C305.032,295.147 304.943,295.902 304.898,296.658 C304.81,296.702 304.765,296.791 304.721,296.924 C304.676,297.28 304.632,297.679 304.499,298.035 C304.41,298.168 304.41,298.257 304.499,298.346 C304.588,298.435 304.632,298.568 304.632,298.701 C304.41,298.923 304.188,299.057 303.921,299.19 C303.921,299.279 304.01,299.323 304.143,299.323 C304.277,299.323 304.454,299.99 304.143,300.301 C304.143,300.434 304.099,300.567 304.054,300.701 C303.877,301.011 303.744,301.367 303.655,301.678 C303.655,301.9 303.788,301.989 304.365,302.033 C304.899,302.078 305.076,302.3 304.765,302.3 C304.454,302.3 304.499,302.389 304.588,302.789 C304.588,303.766 304.499,304.743 304.365,305.676 C304.232,305.943 304.41,306.165 304.632,305.987 C304.81,305.809 305.032,305.943 305.032,306.076 C305.032,306.209 304.899,306.209 304.765,306.254 C304.632,306.298 304.499,306.431 304.499,306.654 C304.499,306.92 304.41,307.187 304.365,307.453 C304.232,307.897 304.232,307.986 304.365,308.164 C304.232,308.386 304.099,308.564 303.921,308.742 C303.921,308.875 303.921,309.008 303.832,309.097 C303.921,310.074 304.099,311.052 304.454,311.94 C304.499,312.162 304.543,312.34 304.632,312.518 C304.81,313.051 304.854,313.628 304.721,314.161 C304.632,314.384 304.676,314.606 304.81,314.784 C304.676,315.405 304.676,316.027 304.81,316.649 C304.899,316.738 304.943,316.871 304.943,317.005 C304.987,317.449 305.121,317.893 305.298,318.293 C305.343,318.471 305.343,318.648 305.298,318.782 C305.121,319.537 305.165,319.759 305.432,319.892 C305.609,320.425 305.876,320.87 306.009,321.536 C306.054,322.158 305.965,322.824 305.787,323.447 C305.698,323.713 305.654,323.98 305.698,324.246 C305.698,324.779 305.787,324.957 305.92,325.046 C306.054,325.179 306.143,325.312 306.098,326.334 C306.098,326.778 306.098,327.223 306.009,327.667 C306.054,327.933 306.054,328.244 306.009,328.511 C305.832,328.644 306.009,329.222 306.276,329.266 C306.276,329.355 306.365,329.533 306.276,329.577 C306.187,329.666 306.009,329.666 306.009,329.977 C306.009,330.244 306.542,330.377 306.142,330.954 C306.143,331.399 306.143,331.443 306.453,331.443 C306.764,331.488 306.764,331.443 306.587,331.887 C306.454,332.154 306.454,332.465 306.542,332.732 C306.587,333.087 306.542,333.398 306.498,333.709 C306.587,333.887 306.853,333.887 306.853,333.709 C306.853,333.531 306.987,333.487 307.12,333.531 C307.253,333.62 307.209,333.842 307.12,334.464 C306.898,335.708 306.853,335.841 306.72,335.841 C306.587,336.108 306.409,336.374 306.231,336.641 C306.187,336.774 306.098,336.908 306.009,336.996 C305.876,337.085 305.876,337.174 306.009,337.352 C306.143,337.529 306.098,337.574 305.876,337.796 C305.698,337.974 305.565,338.151 305.432,338.329 C305.254,338.64 305.254,338.64 304.454,338.64 C303.921,338.64 303.388,338.685 302.855,338.729 C302.544,338.773 302.189,338.818 301.878,338.818 C301.744,338.773 301.611,338.818 301.522,338.951 C301.345,339.129 300.856,339.129 297.702,339.04 L295.702,339.04 C293.97,339.218 292.237,339.44 290.505,339.529 C290.238,339.617 290.016,339.662 289.749,339.662 C289.438,339.662 289.172,339.751 288.861,339.84 C288.017,339.884 287.128,340.062 286.328,340.328 C285.262,340.639 284.329,341.261 283.663,342.105 C283.308,342.416 282.908,342.594 282.419,342.683 C282.064,342.949 281.619,343.127 281.175,343.216 C279.62,344.415 277.443,344.46 276.466,346.504 C275.686,346.705 275.999,346.526 275.488,346.962 L265.708,346.962 L265.848,346.859 C266.515,346.726 267.181,346.504 267.847,346.237 C268.247,346.059 268.603,346.104 268.913,345.793 C269.18,345.704 269.402,345.437 269.535,345.171 C269.669,344.949 269.713,344.771 269.802,344.504 C269.802,344.193 269.98,343.927 270.291,343.838 C270.513,343.616 271.002,343.571 270.868,343.26 C270.913,342.416 271.268,341.572 271.846,340.95 C271.757,339.573 271.801,338.951 271.934,338.729 C272.023,338.596 272.068,338.462 272.112,338.329 C272.112,338.151 272.645,337.885 273.223,337.796 C273.578,337.752 273.578,337.752 273.623,337.174 C273.667,336.641 273.756,336.33 274.111,336.241 C274.467,336.152 274.422,336.063 274.467,335.753 C274.511,335.53 274.511,335.308 274.467,335.086 C274.334,334.864 274.378,334.819 274.733,334.509 C275.044,334.375 275.311,334.198 275.622,334.064 C275.622,333.709 275.577,333.398 275.489,333.087 L275.489,332.82 C275.711,332.376 276.022,331.976 276.421,331.621 C276.422,331.399 276.91,331.043 277.132,331.088 C277.355,331.132 277.577,330.91 277.443,330.421 C277.355,330.066 277.31,329.71 277.31,329.355 C277.799,328.689 278.243,328.467 278.243,327.578 C278.243,327.223 278.243,327.223 278.554,327.089 C278.865,327.001 279.043,326.956 279.176,326.912 C279.354,326.867 279.443,326.823 279.442,326.601 C279.22,326.156 279.087,325.668 279.043,325.179 C278.909,324.868 278.909,324.779 279.043,324.646 C279.132,324.557 279.265,324.513 279.354,324.468 C279.531,324.468 279.798,323.846 279.798,323.313 C279.754,323.002 279.931,322.736 280.198,322.602 C280.42,322.469 280.509,322.247 280.42,322.025 C280.42,321.803 280.287,321.581 280.109,321.447 C279.798,321.225 279.798,321.27 280.109,320.292 C280.02,319.715 279.842,319.137 279.62,318.56 C279.665,317.982 279.354,317.405 278.865,317.049 C278.332,316.649 277.976,316.027 277.888,315.361 C277.888,315.05 277.665,314.561 277.532,314.561 C277.355,314.561 277.355,314.161 277.621,314.028 C277.843,313.895 277.888,313.628 277.621,313.228 C277.355,312.829 277.399,312.607 277.266,312.296 C277.177,312.162 277.132,312.029 277.177,311.985 C277.221,311.94 276.599,311.007 276.333,310.785 C275.755,310.119 275.311,309.363 274.911,308.608 C274.733,308.564 274.689,307.897 274.822,307.72 C274.956,307.542 274.956,306.831 274.467,306.343 C274.111,305.898 273.889,305.365 273.845,304.832 C273.845,304.832 273.845,304.654 273.712,304.521 C273.578,304.121 273.356,303.766 273.134,303.41 C272.69,303.055 272.512,302.522 272.556,301.944 C272.334,301.011 271.89,300.167 271.268,299.456 C271.268,299.368 271.224,299.279 271.135,299.279 C270.779,299.012 270.513,298.657 270.335,298.212 C270.335,298.124 270.424,298.035 270.468,297.946 C270.469,297.546 270.424,297.368 270.38,297.057 C270.557,296.924 270.557,296.924 270.38,296.835 C270.202,296.658 270.113,296.435 270.024,296.213 C269.713,295.547 269.491,294.792 269.402,294.081 C269.269,293.903 269.136,293.725 269.047,293.503 C268.825,293.192 268.736,292.793 268.869,292.393 C268.914,292.082 269.002,291.593 269.047,291.326 C269.091,291.06 269.136,290.838 269.269,290.838 z" fill="#FFFFFF"/>
    <path d="M377.49,306.876 C378.379,306.92 378.601,307.053 378.423,307.542 C378.246,307.986 378.246,308.519 378.379,309.008 L378.734,309.808 C378.957,310.252 379.045,310.385 379.312,310.474 C379.49,310.696 379.667,310.963 379.801,311.229 C379.801,311.407 379.712,311.629 379.667,312.118 C379.623,312.606 379.89,312.917 380.112,312.918 C380.334,312.917 380.911,312.073 381.222,312.918 C381.222,313.006 381.222,313.628 381.178,314.073 C381.222,314.517 381.356,314.917 381.533,315.317 C382.422,315.716 382.911,315.894 383.044,316.916 C383.177,317.005 383.266,317.182 383.266,317.316 C383.399,317.493 383.488,317.715 383.577,317.938 C383.577,318.471 383.71,318.648 384.199,318.693 C384.377,318.737 384.599,318.693 384.776,318.649 C384.865,318.782 385.221,318.959 385.354,319.226 C385.532,319.581 385.665,319.937 385.798,320.337 C386.376,320.47 386.953,320.559 387.486,320.559 C387.842,320.959 387.931,321.536 388.641,321.67 L388.997,322.069 C389.13,322.336 389.086,322.78 389.352,322.869 C389.486,322.869 389.619,322.78 389.663,322.647 C389.885,322.114 390.729,322.602 391.04,323.402 C391.085,323.58 391.174,323.757 391.307,323.891 C391.396,323.935 391.485,323.98 391.573,324.068 C391.973,324.246 392.373,324.424 392.817,324.513 C393.129,324.646 393.173,324.646 393.395,324.424 C393.662,324.202 393.662,324.202 393.795,324.424 C393.884,324.513 393.928,324.646 393.928,324.824 C393.928,324.957 394.017,325.09 394.106,325.179 C394.506,325.401 394.95,325.49 395.394,325.49 C395.661,325.49 395.705,325.446 395.705,325.179 C395.705,324.912 395.883,324.646 396.105,324.735 C396.327,324.824 396.238,324.912 396.194,325.268 C396.149,325.668 396.194,325.801 396.46,326.068 C397.216,326.423 397.926,326.912 398.77,326.512 C398.904,326.379 399.037,326.334 399.304,326.379 C399.881,326.467 400.148,326.645 400.281,327.089 L400.459,327.489 L402.191,327.756 C402.547,327.978 402.902,328.2 403.302,328.422 C403.524,328.467 403.746,328.6 403.924,328.733 C404.724,328.689 405.523,328.822 406.279,329.177 C406.59,329.133 406.901,329.177 407.167,329.311 C407.567,329.355 407.922,329.488 408.278,329.666 C408.278,329.844 408.411,329.844 409.255,329.799 C409.788,329.755 410.277,329.755 410.81,329.844 C411.077,329.933 411.343,329.933 411.61,329.844 C411.965,329.666 412.365,329.577 412.809,329.622 C412.942,329.666 413.031,329.755 413.165,329.799 C413.253,329.888 413.431,329.888 413.52,329.799 C413.831,329.666 414.764,329.666 414.764,329.799 C414.764,329.933 415.075,330.199 415.43,330.066 C415.608,329.977 415.875,329.977 416.052,330.066 C416.274,330.155 416.497,330.244 416.763,330.244 C417.74,330.732 418.851,330.643 419.917,331.354 C419.962,331.443 420.051,331.487 420.139,331.488 C420.228,331.487 420.273,331.576 420.317,331.665 C420.495,332.021 420.85,332.509 420.939,332.465 C421.028,332.42 421.117,332.465 421.206,332.598 C421.295,332.687 421.428,332.776 421.561,332.776 C421.561,332.954 421.472,333.398 421.783,333.62 C422.094,333.842 422.094,334.242 422.316,333.798 C422.405,333.62 422.405,333.62 422.805,333.931 L422.805,335.575 C422.761,336.063 422.583,336.508 422.272,336.863 C422.272,336.952 422.227,337.041 422.094,337.041 C421.739,337.218 421.428,337.529 421.25,337.885 C421.25,338.151 420.895,338.329 420.406,338.329 C419.917,338.329 419.917,338.329 419.784,338.596 C419.651,338.862 419.473,338.995 418.496,339.084 C417.607,339.218 416.719,339.306 415.83,339.307 C415.386,339.306 414.942,339.351 414.497,339.44 C414.142,339.529 413.787,339.617 413.431,339.618 C413.031,339.662 412.454,339.751 412.232,339.795 C411.699,339.84 411.165,339.973 410.632,340.195 C410.366,340.284 410.099,340.373 409.833,340.551 C409.3,340.861 408.722,341.128 408.144,341.35 C407.967,341.483 407.745,341.572 407.478,341.572 C406.901,341.661 406.367,341.972 406.056,342.416 C405.968,342.55 405.79,342.638 405.656,342.639 C405.39,342.727 405.124,342.861 404.857,343.038 C404.635,343.216 412.631,335.752 404.057,343.483 C403.746,343.749 403.524,343.793 403.391,344.371 C403.346,344.593 403.213,344.815 402.991,344.904 C402.458,345.393 401.88,345.748 401.258,346.059 L400.396,346.962 L333.049,346.962 C333.206,346.776 333.088,346.921 333.376,346.504 C333.687,346.015 333.82,345.526 334.442,345.526 C334.62,345.26 334.797,344.993 335.019,344.727 C335.33,344.282 335.641,343.793 335.819,343.305 C336.174,343.083 336.485,342.816 336.752,342.505 C337.063,342.061 337.063,341.661 337.64,341.35 C338.129,340.861 338.618,340.284 338.973,339.662 C339.373,339.529 339.64,339.129 340.084,339.262 L340.661,339.262 L340.75,338.596 C340.75,337.84 341.15,337.13 341.816,336.73 C342.039,336.419 342.172,335.797 342.616,335.975 C342.794,335.975 343.06,336.108 343.238,335.841 C343.327,335.841 343.327,335.708 343.283,335.308 C343.238,334.908 343.283,334.731 343.416,334.686 C343.594,334.331 343.993,334.109 343.949,333.709 C343.86,333.265 344.038,333.22 344.215,333.131 C344.527,332.954 344.749,332.598 344.748,332.243 C344.793,331.932 344.837,331.887 345.237,331.799 C345.726,331.665 346.126,331.354 346.392,330.954 C346.615,330.732 346.97,330.555 347.103,330.244 C347.148,329.888 347.459,329.666 347.769,329.622 C348.169,329.533 348.747,328.955 348.747,328.689 C348.747,328.422 348.836,328.2 349.058,328.2 C349.413,328.555 349.858,329.133 350.302,328.955 C350.391,328.778 350.48,328.555 350.524,328.333 C350.524,328.067 350.657,327.845 350.835,327.667 C351.102,327.356 351.279,326.956 351.235,326.556 C351.368,326.556 352.034,325.845 352.656,326.156 L353.145,325.979 C353.145,325.979 353.145,325.712 353.19,325.49 C353.012,325.268 352.701,324.868 352.656,324.824 C352.79,324.824 352.79,324.69 352.745,324.468 C352.701,324.246 352.879,323.98 353.278,324.158 C353.501,324.246 353.545,324.335 353.545,324.602 C353.678,324.69 353.856,325.135 354.255,325.046 C354.389,325.135 354.522,325.223 354.7,325.268 C355.233,324.868 355.766,324.379 356.211,323.891 C356.388,323.402 356.388,322.824 356.211,322.336 C356.122,321.891 356.344,321.758 357.366,321.625 L358.254,321.536 L358.299,320.959 C358.343,320.337 358.476,320.159 358.876,320.248 C359.098,320.248 359.143,320.248 359.231,319.937 C359.32,319.626 359.32,319.581 359.809,319.582 C360.253,319.581 360.52,319.404 360.653,318.826 C361.097,318.515 361.453,318.071 361.63,317.582 C361.808,317.227 361.986,316.96 362.075,316.96 C362.386,316.96 362.652,316.916 362.919,316.827 C362.963,316.827 363.052,316.605 363.096,316.427 C363.185,315.983 363.496,315.761 363.807,315.85 C364.118,315.938 364.74,315.627 364.873,316.161 C365.673,315.716 366.517,315.627 366.873,314.784 C366.917,314.517 367.139,314.295 367.361,314.25 C367.717,314.073 368.028,313.806 368.294,313.495 C369.005,312.873 369.805,312.962 370.027,312.251 C370.382,311.807 370.738,311.363 371.138,310.963 C371.182,310.385 371.626,309.985 372.204,309.985 C372.559,310.119 372.87,310.252 373.181,310.341 C373.226,310.119 373.27,309.852 373.27,309.63 C373.27,309.052 373.359,308.919 373.581,308.742 C373.759,308.608 373.981,308.519 374.203,308.519 C374.558,308.297 375.003,308.119 375.402,307.986 L376.513,307.231 C376.646,306.876 376.824,306.831 377.49,306.876 z" fill="#FFFFFF"/>
  </g>
  <path d="M437.226,357.461 C431.459,429.466 376.963,481.564 304.602,483.392 L304.602,483.392 C259.678,482.256 217.747,461.031 193.231,422.715 C183.582,429.231 171.702,431.658 160.239,431.946 C124.42,431.946 95.382,402.909 95.382,367.089 C95.53,363.763 95.539,360.728 96.241,357.461 L437.226,357.461 z" fill="#FFFFFF" fill-opacity="0.3"/>
</svg>
