<?xml version="1.0" encoding="UTF-8"?>
<!DOCTYPE svg PUBLIC "-//W3C//DTD SVG 1.1//EN" "http://www.w3.org/Graphics/SVG/1.1/DTD/svg11.dtd">
<svg version="1.1" xmlns="http://www.w3.org/2000/svg" xmlns:xlink="http://www.w3.org/1999/xlink" x="0" y="0" width="512" height="512" class="overflow-visible stroke-gray-900 flex-1 h-full aspect-square" viewBox="0, 0, 500, 500" id="globe" fill-opacity="0" stroke-width="3" stroke="black">
  <g id="h">
    <path d="M367.152,470.969 C365.565,471.337 362.905,468.441 361.986,467.482 C355.68,460.904 350.045,452.343 344.948,444.809 C319.815,407.501 278.503,335.883 236.679,257.113 C194.799,178.373 158.558,104.058 141.699,62.349 C138.391,53.145 133.741,43.644 132.129,33.923 C131.963,32.921 131.22,29.456 132.873,29.073"/>
    <path d="M299.261,495.079 C233.716,508.251 158.533,409.213 131.334,273.871"/>
    <path d="M131.334,273.871 C104.135,138.529 135.22,18.135 200.765,4.963"/>
    <path d="M182.323,490.642 C78.881,461.544 25.33,330.225 62.713,197.333"/>
    <path d="M62.713,197.333 C100.096,64.441 214.257,-19.7 317.698,9.399"/>
    <path d="M168.985,49.853 C296.95,-1.947 436.964,45.681 481.715,156.234"/>
    <path d="M18.314,343.818 C-26.437,233.265 41.021,101.653 168.985,49.853"/>
    <path d="M321.434,85.38 C448.083,140.319 518.775,258.572 479.329,349.503"/>
    <path d="M20.693,150.548 C60.138,59.617 194.785,30.44 321.434,85.38"/>
    <path d="M318.614,184.453 C413.998,284.249 460.608,394.505 422.72,430.718"/>
    <path d="M77.305,69.324 C115.193,33.112 223.231,84.657 318.614,184.453"/>
  </g>
  <g id="v">
    <path d="M458.134,388.517 C452.343,396.493 445.765,403.848 439.176,411.163"/>
    <path d="M439.176,411.163 C402.074,449.845 347.038,481.62 294.987,494.411"/>
    <path d="M294.987,494.411 C283.498,497.774 271.546,498.923 259.651,499.751"/>
    <path d="M495.822,294.753 C483.601,359.096 416.291,414.321 362.824,445.417"/>
    <path d="M362.824,445.417 C323.64,467.693 280.72,485.173 235.719,490.764 C212.372,493.665 188.184,493.294 165.846,485.264"/>
    <path d="M498.335,222.889 C502.206,269.998 471.133,312.615 440.324,345.053"/>
    <path d="M440.324,345.053 C388.029,399.547 310.497,444.31 237.156,462.352"/>
    <path d="M237.156,462.352 C194.095,472.34 140.718,478.702 102.354,451.509"/>
    <path d="M477.845,148.373 C500.42,186.675 480.121,245.929 424.635,303.699"/>
    <path d="M424.635,303.699 C369.15,361.468 286.959,408.921 209.187,428.088"/>
    <path d="M209.187,428.088 C131.414,447.256 69.949,435.208 48.066,396.506"/>
    <path d="M451.752,103.178 C474.327,141.48 454.028,200.735 398.542,258.504"/>
    <path d="M398.542,258.504 C343.056,316.273 260.866,363.726 183.093,382.893"/>
    <path d="M183.094,382.893 C105.321,402.061 43.856,390.013 21.972,351.312"/>
    <path d="M413.927,66.509 C435.368,102.548 416.327,158.418 364.032,212.912"/>
    <path d="M364.032,212.912 C311.737,267.405 234.205,312.168 160.864,330.211"/>
    <path d="M160.864,330.211 C87.524,348.253 29.619,336.808 9.128,300.22"/>
    <path d="M9.128,300.22 C3.325,290.619 1.16,280.491 0.61,269.339"/>
    <path d="M391.422,43.68 C400.681,49.401 408.314,57.207 413.927,66.509"/>
    <path d="M366.573,40.493 C394.977,89.691 338.24,175.624 239.848,232.431 C141.456,289.238 38.667,295.406 10.263,246.209 C1.265,230.848 1.765,212.679 5.923,195.928"/>
    <path d="M325.198,11.595 C341.99,16.055 357.542,25.299 366.573,40.494"/>
    <path d="M312.437,26.645 C327.719,52.188 314.248,91.836 277.146,130.518 C240.044,169.2 185.007,200.975 132.957,213.766 C80.907,226.556 39.835,218.398 25.354,192.392 C15.972,176.413 18.948,157.3 25.092,140.725"/>
    <path d="M267.376,0.499 C285.17,3.012 303.086,10.493 312.437,26.645"/>
    <path d="M254.667,25.767 C270.706,53.548 238.669,102.073 183.11,134.15 C127.55,166.227 69.508,169.71 53.469,141.929 C37.43,114.148 69.467,65.624 125.026,33.547 C180.586,1.469 238.628,-2.014 254.667,25.767 z"/>
    <path d="M196.622,37.912 C202.109,47.138 197.235,61.438 183.85,75.385 C170.466,89.332 150.622,100.789 131.852,105.406 C113.081,110.024 98.259,107.095 93.013,97.731 C87.527,88.506 92.401,74.206 105.785,60.259 C119.17,46.311 139.013,34.855 157.784,30.237 C176.555,25.619 191.376,28.548 196.622,37.912 z"/>
  </g>
  <path d="M466.47,125.021 C535.494,244.574 494.532,397.446 374.979,466.47 C255.426,535.494 102.554,494.532 33.53,374.979 C-35.494,255.426 5.468,102.554 125.021,33.53 C244.574,-35.494 397.446,5.468 466.47,125.021 z"/>
</svg>
