<?xml version="1.0" encoding="UTF-8"?>
<!DOCTYPE svg PUBLIC "-//W3C//DTD SVG 1.1//EN" "http://www.w3.org/Graphics/SVG/1.1/DTD/svg11.dtd">
<svg version="1.1" xmlns="http://www.w3.org/2000/svg" xmlns:xlink="http://www.w3.org/1999/xlink" x="0" y="0" width="720.04" height="426.7" viewBox="0, 0, 720.04, 426.7">
  <g id="Background">
    <rect x="0" y="0" width="720.04" height="426.7" fill="#000000" fill-opacity="0"/>
  </g>
  <g id="Layer_1">
    <path d="M65.46,4.75 L65.46,326.13 C65.46,355.89 78.55,366.6 99.38,366.6 C120.21,366.6 133.3,355.89 133.3,326.13 L133.3,4.75 L195.2,4.75 L195.2,321.96 C195.2,388.61 161.87,426.7 97.59,426.7 C33.31,426.7 0,388.62 0,321.97 L0,4.75 L65.46,4.75 z" fill="#0F2D52"/>
    <path d="M417.75,266.015 L417.75,321.365 C417.75,388.025 384.42,426.115 320.15,426.115 C255.88,426.115 222.54,388.025 222.54,321.365 L222.54,104.735 C222.54,38.085 255.87,-0.005 320.15,-0.005 C384.43,-0.005 417.75,38.085 417.75,104.735 L417.75,145.215 L355.85,145.215 L355.85,100.575 C355.85,70.815 342.76,59.515 321.93,59.515 C301.1,59.515 288.01,70.825 288.01,100.575 L288.01,325.535 C288.01,355.295 301.1,366.015 321.93,366.015 C342.76,366.015 355.85,355.295 355.85,325.535 L355.85,266.025 L417.75,266.025 z" fill="#0F2D52"/>
    <path d="M720.04,421.345 L720.04,421.35 L658.15,421.35 L658.15,421.345 L720.04,421.345 z" fill="#D9AC28"/>
    <path d="M878.901,324.451 L878.901,324.456 L821.771,324.456 L821.771,324.451 L878.901,324.451 z" fill="#D9AC28"/>
    <g>
      <path d="M536.15,4.75 L584.252,299.865 L584.252,421.345 L612.922,421.345 L612.92,421.36 L551.02,421.36 L502.22,126.76 L502.22,421.36 L445.09,421.36 L445.09,4.75 L536.15,4.75 z" fill="#0F2D52"/>
      <path d="M720.04,4.735 L720.04,421.335 L658.15,421.335 L658.15,122.585 L612.92,421.345 L551.02,421.345 L551.019,421.34 L584.251,421.34 L584.251,299.849 L584.356,300.488 L628.99,4.735 L720.04,4.735 z" fill="#D9AC28"/>
    </g>
    <path d="M821.771,-92.154 L912.831,-92.154 L912.831,-92.149 L821.771,-92.149 L821.771,-92.154 z" fill="#D9AC28"/>
  </g>
</svg>
