<svg width="663" height="220" xmlns="http://www.w3.org/2000/svg" xmlns:xlink="http://www.w3.org/1999/xlink"><defs><path d="M.768 80.17c0 43.906 35.594 79.5 79.502 79.5 43.906 0 79.497-35.594 79.497-79.5 0-43.908-35.591-79.501-79.497-79.501C36.362.669.768 36.262.768 80.17" id="a"/><path id="c" d="M.06.604h208.2V121H.06z"/></defs><g fill="none" fill-rule="evenodd"><path d="M487.782 115.593c-1.939-1.374-3.935-2.677-5.799-4.15-1.296-1.027-2.299-1.11-3.639-.016-1.818 1.487-3.829 2.735-5.756 4.088-.222-.149-.441-.298-.662-.448.605-2.442 1.355-4.862 1.745-7.339.146-.936-.251-2.289-.907-2.954-1.719-1.74-3.715-3.205-5.41-5.409 2.232-.056 4.478-.304 6.688-.115 2.06.174 3.037-.565 3.578-2.484.604-2.135 1.446-4.2 2.184-6.298l.878.112c.656 1.983 1.499 3.931 1.921 5.964.466 2.242 1.638 3.021 3.842 3.003 2.272-.019 4.542.296 7.275.989-1.473 1.031-2.938 2.074-4.425 3.085-4.122 2.808-3.746 1.916-2.303 6.538.513 1.637.99 3.283 1.487 4.924-.232.168-.464.339-.697.51" fill="#B93B2D"/><path d="M294.67 74.912a31.751 31.751 0 013.173-.344 55.378 55.378 0 016.178 0c1.03.059 2.087.171 3.173.344v31.996c0 3.491.131 6.477.387 8.964.256 2.489.771 4.547 1.545 6.178.771 1.63 1.857 2.831 3.258 3.602 1.401.772 3.216 1.158 5.447 1.158s4.032-.386 5.404-1.158c1.374-.771 2.447-1.972 3.218-3.602.771-1.631 1.286-3.689 1.545-6.178.256-2.487.384-5.473.384-8.964V74.912a35.369 35.369 0 013.261-.344 55.27 55.27 0 013.003-.086c1.027 0 2.07.03 3.129.086 1.057.059 2.13.171 3.219.344v34.657c0 4.173-.345 7.992-1.03 11.45-.686 3.461-1.919 6.421-3.688 8.878-1.775 2.461-4.15 4.361-7.123 5.706-2.972 1.342-6.748 2.015-11.322 2.015-4.577 0-8.35-.673-11.323-2.015-2.975-1.345-5.348-3.245-7.119-5.706-1.775-2.457-3.003-5.417-3.691-8.878-.683-3.458-1.028-7.277-1.028-11.45V74.912m57.902 0c1.772-.344 3.458-.515 5.06-.515 1.716 0 3.49.171 5.321.515l23.846 39.287V74.912a35.916 35.916 0 015.919-.515c1.772 0 3.488.171 5.147.515v61.676c-1.83.344-3.49.514-4.976.514-1.601 0-3.344-.17-5.234-.514l-24.016-39.201v39.201c-1.83.344-3.688.514-5.577.514-1.887 0-3.718-.17-5.49-.514V74.912m71.628 0a53.78 53.78 0 013.432-.387 46.437 46.437 0 013.602-.128c1.143 0 2.258.043 3.344.128 1.086.086 2.287.214 3.606.387l19.298 61.676a47.208 47.208 0 01-6.86.514 38.44 38.44 0 01-6.349-.514l-3.431-12.35h-20.418l-3.514 12.35c-2.06.344-4.032.514-5.922.514-2.113 0-4.203-.17-6.26-.514L424.2 74.912zm13.725 38.945l-7.12-25.906-7.461 25.906h14.581zm72.385-38.945a31.732 31.732 0 013.172-.344 55.35 55.35 0 016.178 0c1.03.059 2.087.171 3.173.344v31.996c0 3.491.128 6.477.388 8.964.256 2.489.77 4.547 1.545 6.178.77 1.63 1.857 2.831 3.257 3.602 1.402.772 3.216 1.158 5.447 1.158s4.032-.386 5.404-1.158c1.374-.771 2.447-1.972 3.218-3.602.771-1.631 1.287-3.689 1.546-6.178.256-2.487.383-5.473.383-8.964V74.912a35.405 35.405 0 013.261-.344 55.27 55.27 0 013.003-.086c1.028 0 2.07.03 3.13.086a31.77 31.77 0 013.218.344v34.657c0 4.173-.344 7.992-1.029 11.45-.687 3.461-1.919 6.421-3.689 8.878-1.774 2.461-4.149 4.361-7.122 5.706-2.973 1.342-6.749 2.015-11.323 2.015-4.576 0-8.35-.673-11.323-2.015-2.975-1.345-5.347-3.245-7.12-5.706-1.774-2.457-3.002-5.417-3.69-8.878-.683-3.458-1.027-7.277-1.027-11.45V74.912m69.139 33.112c-1.945-.742-3.69-1.558-5.233-2.444-1.542-.886-2.861-1.946-3.946-3.176-1.086-1.227-1.93-2.701-2.531-4.416-.6-1.716-.899-3.776-.899-6.178 0-2.917.499-5.489 1.5-7.72 1.001-2.228 2.415-4.102 4.246-5.617 1.83-1.516 4.032-2.661 6.604-3.432 2.576-.772 5.462-1.158 8.665-1.158 2.916 0 5.647.258 8.193.771 2.543.515 5.217 1.259 8.018 2.231-.341 3.317-1.256 6.578-2.743 9.777-.856-.341-1.729-.686-2.618-1.027a20.44 20.44 0 00-2.828-.857 30.595 30.595 0 00-3.39-.557c-1.257-.144-2.689-.217-4.288-.217-.973 0-1.961.086-2.959.259a8.18 8.18 0 00-2.703.942c-.801.459-1.458 1.129-1.973 2.018-.514.886-.771 2.044-.771 3.472 0 1.144.198 2.102.601 2.874.397.774.942 1.43 1.627 1.974.686.542 1.46 1.001 2.317 1.372.859.373 1.716.728 2.572 1.073l5.148 1.972a64.444 64.444 0 015.921 2.66c1.77.915 3.272 2.044 4.502 3.387 1.231 1.344 2.189 2.975 2.874 4.891.686 1.916 1.031 4.275 1.031 7.077 0 2.916-.532 5.575-1.588 7.976a17.175 17.175 0 01-4.59 6.178c-2.002 1.714-4.476 3.061-7.419 4.032-2.946.972-6.335 1.457-10.167 1.457-1.887 0-3.573-.059-5.059-.171a38.016 38.016 0 01-4.247-.558 38.702 38.702 0 01-3.989-.987 51.459 51.459 0 01-4.117-1.457c.171-1.659.482-3.389.944-5.19a68.156 68.156 0 011.628-5.447c2.402.972 4.659 1.704 6.779 2.186 2.113.488 4.373.731 6.775.731 3.602 0 6.434-.672 8.494-2.017 2.058-1.342 3.087-3.387 3.087-6.132 0-1.375-.245-2.517-.729-3.433a7.516 7.516 0 00-1.888-2.315 11.44 11.44 0 00-2.615-1.586 75.38 75.38 0 00-3.002-1.246l-5.234-1.972m50.268-33.112a53.832 53.832 0 013.431-.387 46.464 46.464 0 013.603-.128c1.143 0 2.258.043 3.344.128a70.81 70.81 0 013.605.387l19.299 61.676c-2.346.344-4.63.514-6.861.514a38.45 38.45 0 01-6.349-.514l-3.432-12.35H625.94l-3.514 12.35c-2.06.344-4.032.514-5.921.514-2.113 0-4.203-.17-6.261-.514l19.473-61.676zm13.724 38.945l-7.12-25.906-7.464 25.906h14.584z" fill="#2A5B96"/><g transform="translate(49 7)"><mask id="b" fill="#fff"><use xlink:href="#a"/></mask><path d="M166.783 17.452V.669H83.706a69.778 69.778 0 00-13.687 0H-2.504v16.783h32.615a82.628 82.628 0 00-16.943 18.77H-2.504v16.783h7.272C2.593 59.035 1.151 65.333.581 71.778h-3.085V88.56h169.287V71.778H85.934V53.005h80.849V36.222H85.934v-18.77h80.849M.768 124.113h158.999v-16.782H.768zm0 35.557h158.999v-16.783H.768z" fill="#6084B4" mask="url(#b)"/></g><path fill="#FFFFFE" d="M104.386 40.598l-6.308-3.981-5.895 3.981 1.721-7.122-5.447-4.691h6.965l2.552-7.157 2.826 7.157h6.895l-5.241 4.691 1.932 7.122m20.685-17.081l-6.309-3.981-5.895 3.981 1.721-7.122-5.446-4.692h6.965l2.551-7.156 2.826 7.156h6.896l-5.241 4.692 1.932 7.122m0 64.074l-6.308-3.984-5.895 3.984 1.721-7.125-5.447-4.691h6.965l2.551-7.158 2.826 7.158h6.896l-5.241 4.691 1.932 7.125m0-31.87l-6.309-3.981-5.895 3.981 1.721-7.122-5.446-4.691h6.965l2.551-7.157 2.826 7.157h6.896l-5.241 4.691 1.932 7.122m-20.684 17.085l-6.311-3.984-5.895 3.984 1.724-7.125-5.447-4.692h6.965l2.551-7.157 2.826 7.157h6.896l-5.241 4.692 1.932 7.125m-51.33-8.338L50.83 62.55c.057-.52.121-1.038.164-1.561h3.186a78.36 78.36 0 00-1.123 3.479"/><path d="M64.947 72.806l-6.308-3.984-5.895 3.984 1.721-7.125-1.408-1.213a78.36 78.36 0 011.123-3.479h1.803l2.552-7.157 2.826 7.157h6.895l-5.238 4.692 1.929 7.125m19.858-17.085l-6.308-3.981-5.895 3.981 1.721-7.122-5.446-4.691h6.965l2.551-7.157 2.826 7.157h6.895l-5.241 4.691 1.932 7.122m.001 31.87l-6.308-3.984-5.898 3.984 1.724-7.125-5.446-4.691h6.964l2.552-7.158 2.825 7.158h6.896l-5.241 4.691 1.932 7.125" fill="#FFFFFE"/><g transform="translate(0 99)"><mask id="d" fill="#fff"><use xlink:href="#c"/></mask><path d="M205.394 100.306c-13.765 3.768-25.653-1.502-37.795-5.179-6.848-2.074-13.714-4.118-20.986-4.062-4.264.034-8.384.76-12.302 2.431-1.19.51-2.399.806-3.6.864-1.201-.058-2.407-.354-3.597-.864-3.917-1.671-8.04-2.397-12.302-2.431-7.274-.056-14.138 1.988-20.988 4.062-12.139 3.677-24.028 8.947-37.792 5.179.275.363.896.982 1.553 1.598-.52-.122 7.901 5.076 12.051 6.258 11.899 3.392 22.109-1.054 31.988-6.981 4.721-2.831 9.588-5.276 15.128-6.103a16.064 16.064 0 016.877.446c.566.16 1.382.521 1.505.952.283 1.004-.835 1.049-1.417 1.332-8.697 4.205-16.433 9.836-23.814 15.998-3.043 2.538-2.968 2.867.08 5.297 1.849 1.473 2.903.681 4.213-.707 5.866-6.207 11.849-12.252 18.907-17.196 2.074-1.449 4.95-2.743 7.608-3.795 2.658 1.052 5.538 2.346 7.608 3.795 7.061 4.944 13.044 10.989 18.907 17.196 1.313 1.388 2.367 2.18 4.216.707 3.048-2.43 3.12-2.759.078-5.297-7.381-6.162-15.118-11.793-23.814-15.998-.582-.283-1.701-.328-1.415-1.332.123-.431.939-.792 1.505-.952a16.05 16.05 0 016.874-.446c5.543.827 10.411 3.272 15.128 6.103 9.879 5.927 20.092 10.373 31.991 6.981 4.147-1.182 12.572-6.38 12.048-6.258.657-.616 1.279-1.235 1.557-1.598" fill="#2A5A95" mask="url(#d)"/><path d="M159.628 121.001c-1.473 0-2.535-1.126-3.21-1.842-5.551-5.873-11.571-12.026-18.739-17.046-1.593-1.116-3.874-2.266-6.967-3.51-3.09 1.244-5.372 2.392-6.968 3.51-7.17 5.022-13.188 11.176-18.739 17.046-1.011 1.07-2.898 3.062-5.715.814-1.692-1.347-2.73-2.236-2.744-3.48-.013-1.232.99-2.161 2.645-3.541 8.777-7.327 16.414-12.459 24.041-16.147.101-.048.21-.093.328-.133l-.238-.078a14.952 14.952 0 00-6.404-.414c-5.626.841-10.597 3.483-14.72 5.957-9.665 5.798-20.337 10.668-32.868 7.098-.47-.134-9.156-3.816-11.982-6.242l-.017-.005.004-.008a5.595 5.595 0 01-.401-.379l-.109.115c-.833-.78-1.399-1.364-1.681-1.738l-1.98-2.612 3.159.864c11.413 3.125 21.765-.223 31.777-3.461 1.799-.582 3.6-1.163 5.401-1.708 6.77-2.048 13.744-4.223 21.319-4.109 4.676.035 8.842.859 12.729 2.521 1.087.462 2.17.724 3.216.775.94-.051 2.023-.313 3.109-.775 3.888-1.662 8.054-2.486 12.731-2.521 7.595-.094 14.55 2.061 21.317 4.109 1.804.545 3.602 1.126 5.401 1.708 10.012 3.238 20.364 6.583 31.778 3.461l3.159-.864-1.98 2.612c-.286.376-.835.945-1.678 1.738l-.11-.118a4.728 4.728 0 01-.403.382l.003.008-.016.005c-2.824 2.426-11.513 6.108-11.982 6.242-12.529 3.573-23.2-1.3-32.869-7.098-4.122-2.474-9.094-5.116-14.72-5.957a14.834 14.834 0 00-6.404.414l-.235.078c.117.04.227.085.326.133 7.624 3.688 15.264 8.82 24.041 16.147 1.657 1.38 2.66 2.306 2.647 3.539-.016 1.243-1.054 2.135-2.743 3.482-.94.748-1.775 1.028-2.509 1.028m-28.916-24.794l.411.163c3.463 1.372 6.028 2.652 7.835 3.917 7.341 5.143 13.449 11.387 19.077 17.344 1.294 1.371 1.649 1.451 2.714.599.587-.469 1.812-1.446 1.905-1.787-.085-.309-1.366-1.38-1.846-1.783-8.636-7.205-16.129-12.243-23.588-15.851-.088-.043-.2-.075-.312-.109-1.46-.476-2.028-1.324-1.689-2.525.288-1.017 1.548-1.516 2.271-1.721a17.345 17.345 0 017.343-.478c6.01.9 11.228 3.664 15.54 6.25 9.235 5.539 19.392 10.209 31.11 6.867 2.674-.761 7.149-3.244 9.705-4.772-10.242 1.486-19.528-1.516-28.551-4.433-1.785-.576-3.57-1.153-5.361-1.694-6.607-2.002-13.401-4.075-20.654-4.016-4.377.035-8.262.8-11.873 2.342-1.334.569-2.674.889-3.984.951a11.536 11.536 0 01-4.088-.951c-3.616-1.542-7.499-2.307-11.875-2.342-7.192-.075-14.045 2.014-20.655 4.016-1.791.541-3.576 1.118-5.361 1.694-9.017 2.915-18.306 5.917-28.535 4.433 2.575 1.537 7.082 4.026 9.69 4.772 11.715 3.342 21.876-1.328 31.11-6.867 4.312-2.586 9.529-5.35 15.539-6.25a17.32 17.32 0 017.344.478c.726.205 1.983.704 2.271 1.719.338 1.203-.23 2.051-1.69 2.527-.112.034-.221.066-.312.109-7.458 3.608-14.954 8.646-23.584 15.851-.484.403-1.765 1.474-1.847 1.831.09.293 1.315 1.27 1.905 1.739 1.062.847 1.417.772 2.711-.599 5.629-5.957 11.737-12.199 19.078-17.344 1.809-1.265 4.374-2.548 7.835-3.917l.411-.163M33.947 54.48c.971.647 1.791.876 1.791.876s.28 0 .05-.884c-1.128-4.68-1.921-9.284-1.534-14.245.835-10.775 1.078-21.612-1.831-32.214-.165-.598-.165-.598-.835-2.839-.414 2.025-1.27 5.491-1.758 7.508-2.17 8.952-5.252 17.827-2.162 27.194.106.133.066.143 0 0 .491 1.771.261 1.844-.63 2.511 0 0-2.466-2.808-3.415-4.379-5.442-9.015-12.474-16.77-19.994-23.953-.563-.537-2.092-1.695-2.092-1.695s.249 1.542.39 2.234c1.711 8.395 5.3 16.086 11.125 22.719 6.063 6.902 13.452 12.031 20.895 17.167" fill="#2A5A95" mask="url(#d)"/><path d="M35.737 56.47l-.299-.042c-.102-.028-1.02-.297-2.108-1.02l-.016-.011c-7.317-5.049-14.883-10.274-21.098-17.348C6.473 31.511 2.644 23.695.835 14.816.69 14.112.44 12.538.44 12.538l-.441-2.741 2.213 1.676c.16.123 1.593 1.211 2.185 1.777 8.991 8.585 15.4 16.27 20.18 24.182.445.743 1.281 1.804 1.996 2.68-2.741-8.431-.683-16.468 1.307-24.241.294-1.15.588-2.298.865-3.451l.259-1.067c.491-2.01 1.147-4.711 1.494-6.402l.889-4.347 1.268 4.251c.675 2.26.675 2.26.843 2.863 3.007 10.967 2.674 22.149 1.865 32.596-.398 5.097.539 9.885 1.508 13.899.125.485.253 1.221-.174 1.774l-.336.435-.624.048zM3.188 15.177c1.793 8.16 5.394 15.357 10.701 21.402 5.983 6.812 13.362 11.928 20.513 16.862-.888-3.915-1.638-8.443-1.259-13.3.76-9.807 1.097-20.262-1.438-30.47-.184.772-.372 1.529-.537 2.207l-.259 1.068a271.31 271.31 0 01-.872 3.474c-1.991 7.782-3.872 15.136-1.374 22.915l.312.387-.11.341c.377 1.596.123 2.264-1.051 3.133l-.822.609-.79-.683c-.104-.117-2.543-2.901-3.533-4.539-4.614-7.643-10.811-15.088-19.481-23.406zM26.73 39.498l.737.352-.737-.352z" fill="#2A5A95" mask="url(#d)"/></g><path d="M74.095 172.615c-3.53-2.519-8.737-6.626-12.019-9.554.243 1.132.497 2.272.651 2.845.918 3.365 2.106 5.596 4.185 8.499 3.711 5.183 8.947 8.217 14.493 10.899-.446 1.23-1.263 1.457-3.171 1.326l.003.003c-1.342-.259-2.687-.483-4.019-.774-4.616-1.012-9.145-2.258-13.925-2.621-7.322-.56-14.749-.445-21.906-2.503l-4.552-1.371c1.497 1.681 3.37 3.156 3.37 3.156 5.922 4.35 11.883 6.734 18.843 9.023 9.823 3.229 19.347 1.643 28.825-1.206 3.515-1.057 7.19-1.791 11.075-3.875-3.277-1.209-5.551-1.996-8.416-3.448-5.847-2.961-6.552-5.382-13.437-10.399" fill="#2A5A95"/><path d="M67.527 194.451c-3.826 0-7.787-.522-11.827-1.852-7.229-2.375-13.255-4.846-19.155-9.182-.109-.086-1.999-1.577-3.544-3.312l-2.623-2.949 8.329 2.512c5.326 1.531 10.968 1.838 16.422 2.135 1.753.095 3.504.191 5.249.325 3.843.294 7.555 1.15 11.144 1.977.974.227 1.954.451 2.933.667.894.195 1.793.361 2.692.524l1.297.242c.406.027.713.032.95.017-4.944-2.496-9.86-5.573-13.388-10.501-2.311-3.221-3.447-5.538-4.352-8.855-.158-.587-.419-1.748-.667-2.903l-.716-3.333 2.546 2.268c3.106 2.77 8.233 6.842 11.926 9.476l.008.008c2.97 2.164 4.785 3.832 6.386 5.299 2.13 1.957 3.667 3.372 6.898 5.007 2.506 1.268 4.515 2.007 7.293 3.026l3.325 1.225-2.18 1.169c-3.133 1.684-6.084 2.503-8.942 3.293-.787.219-1.567.438-2.338.669-5.337 1.605-11.315 3.048-17.666 3.048m-29.394-12.63c5.572 4.043 11.136 6.321 18.263 8.662 10.152 3.335 19.932 1.26 28.157-1.215.787-.234 1.579-.456 2.382-.679 2-.553 4.049-1.124 6.144-1.999-2.084-.775-3.918-1.503-6.05-2.581-3.507-1.777-5.225-3.354-7.4-5.353-1.556-1.431-3.319-3.051-6.186-5.137-2.836-2.025-6.506-4.886-9.492-7.379.806 2.757 1.855 4.809 3.864 7.62 3.403 4.744 8.086 7.647 14.075 10.543l.901.434-.341.945c-.764 2.119-2.538 2.178-4.291 2.06l-1.39-.251a88.163 88.163 0 01-2.792-.544c-.987-.216-1.972-.445-2.957-.673-3.509-.808-7.135-1.646-10.813-1.927a230.074 230.074 0 00-5.198-.319c-5.561-.305-11.312-.617-16.876-2.207" fill="#2A5A95"/><path d="M53.518 158.452c-1.761-5.895-6.204-16.486-12.041-24.067l-.306-.339s.432 2.481.496 3.005c.852 6.754 1.67 12.896 3.066 19.28.958 4.376 3.48 8.085 4.462 12.392.085.512.224.803.224.803s-.403-.053-1.03-.023c-1.291.088-2.129-.716-3.029-1.468-4.533-3.781-9.27-7.168-14.706-9.682-5.337-2.465-10.461-5.463-15.016-9.281-1.089-1.022-1.089-1.022-2.476-2.181.464 1.399 1.47 3.692 1.47 3.692 4.043 9.334 10.949 14.111 19.302 18.852 6.855 3.894 14.239 6.224 22.01 7.35.656.094 3.464.718 3.464.718s-1.06-1.615-1.506-2.503c-2.508-4.987-2.825-11.331-4.384-16.548" fill="#2A5A95"/><path d="M61.843 179.183l-2.676-.594c-.003 0-2.741-.612-3.381-.702-8.217-1.19-15.753-3.707-22.403-7.486-7.955-4.514-15.451-9.392-19.774-19.376-.037-.091-1.03-2.35-1.505-3.781l-1.233-3.712 3.005 2.506c1.414 1.182 1.414 1.182 2.524 2.223 4.067 3.408 8.9 6.393 14.72 9.081 4.833 2.236 9.583 5.361 14.952 9.838l.208.176c.683.574 1.145.943 1.684 1.023-.464-1.77-1.209-3.483-1.991-5.289-.893-2.063-1.82-4.193-2.327-6.522-1.4-6.405-2.225-12.566-3.082-19.38-.064-.514-.491-2.948-.491-2.948l-.657-3.776 2.885 3.171c5.586 7.25 10.272 17.766 12.284 24.5.598 1.998 1.022 4.178 1.43 6.287.678 3.484 1.377 7.09 2.882 10.079.413.821 1.433 2.375 1.441 2.39l1.505 2.292zm-45.92-28.438c4.096 8.95 11.114 13.495 18.559 17.72 6.408 3.639 13.682 6.067 21.621 7.217.192.028.566.099 1.001.19-.072-.133-.139-.256-.198-.371-1.641-3.264-2.369-7.021-3.076-10.653-.417-2.151-.811-4.184-1.377-6.079-1.663-5.55-5.188-13.746-9.49-20.35.787 6.167 1.58 11.832 2.858 17.674.462 2.116 1.305 4.056 2.197 6.111.861 1.99 1.755 4.051 2.262 6.27.07.399.153.59.153.593l.781 1.807-1.943-.243a5.596 5.596 0 00-.829-.016c-1.615.125-2.717-.813-3.597-1.556l-.2-.168c-5.287-4.409-9.746-7.346-14.459-9.527-5.54-2.559-10.22-5.388-14.263-8.619zm3.907-28.66s.163-3.087.272-3.576c.71-3.16.948-6.386 2.391-9.417 4.705-9.885 9.036-19.921 10.293-30.961.184-1.179.544-2.863.544-2.863s-1.171 1.734-1.958 2.791c-1.231 1.807-2.434 3.632-3.696 5.417-3.966 5.604-8.463 10.917-9.66 18.005a514.55 514.55 0 00-1.757-.013l-.605-.638c-.248-2.866-1.286-5.511-2.33-8.147-2.279-5.748-4.998-10.941-6.984-17.202-.405-1.275-.445-1.465-1.142-4.384-.84 3.208-1.614 5.996-1.689 8.961-.365 14.922 6.685 27.07 14.493 38.942.35.531 1.828 3.085 1.828 3.085" fill="#2A5A95"/><path d="M20.745 125.887l-1.879-3.246s-1.451-2.504-1.796-3.031C9.441 108.005 2.02 95.39 2.396 80.031c.075-2.933.776-5.61 1.59-8.705l1.265-4.817 1.129 4.745c.6 2.511.648 2.716 1.022 3.89 1.246 3.929 2.818 7.504 4.339 10.963.894 2.033 1.785 4.064 2.618 6.167 1.006 2.543 2.047 5.166 2.364 8.067l.019.016.355.002c1.254-5.91 4.678-10.631 7.998-15.202.56-.774 1.12-1.545 1.67-2.325.873-1.23 1.716-2.482 2.557-3.73l1.128-1.671c.803-1.078 1.956-2.783 1.959-2.786l3.221-4.774-1.209 5.631a58.889 58.889 0 00-.533 2.799c-1.306 11.456-5.848 21.733-10.39 31.27-.973 2.044-1.363 4.195-1.776 6.469-.166.907-.331 1.811-.532 2.714-.058.288-.173 1.985-.248 3.388l-.197 3.745zM5.216 75.619c-.33 1.513-.557 2.97-.592 4.465-.36 14.72 6.869 26.992 14.309 38.304l.048.078.035-.201c.197-.87.355-1.748.515-2.623.419-2.319.854-4.715 1.958-7.029 4.195-8.814 8.393-18.258 9.933-28.639l-.275.403a185.61 185.61 0 01-2.562 3.741c-.558.788-1.124 1.567-1.689 2.346-3.496 4.814-6.794 9.362-7.782 15.203l-.16.937-3.181-.027-1.195-1.262-.032-.387c-.238-2.733-1.265-5.327-2.258-7.835-.822-2.076-1.703-4.08-2.586-6.087-1.545-3.514-3.14-7.144-4.424-11.187l-.062-.2z" fill="#2A5A95"/><path d="M17.38 86.482s1.031-2.701 1.218-3.184c1.387-3.533 4.098-6.057 6.561-8.796 3.445-3.832 7.032-7.565 9.922-11.851 2.058-3.052 4.078-6.177 4.648-10.818-4.301 3.507-7.933 6.49-11.591 9.441-3.398 2.738-6.354 5.826-8.097 9.911l-1.326-.677c1.174-11.697.406-23.388.155-35.153-3.288 3.845-5.457 8.123-6.44 12.841-2.521 12.107 1.209 23.518 4.265 34.982.125.467.685 3.304.685 3.304" fill="#2A5A95"/><path d="M17.041 90.503l-.752-3.805c0-.003-.547-2.778-.67-3.237l-.893-3.304c-2.813-10.316-5.717-20.985-3.384-32.188 1.008-4.846 3.258-9.334 6.682-13.337l1.897-2.218.064 2.917c.051 2.476.128 4.947.203 7.416.261 8.517.531 17.305-.195 26.005 1.623-2.92 3.989-5.559 7.442-8.345 2.525-2.033 5.034-4.083 7.758-6.308l5.98-4.878-.338 2.748c-.625 5.065-2.957 8.524-4.833 11.304-2.463 3.654-5.442 6.936-8.323 10.109l-1.692 1.865c-.411.459-.83.91-1.249 1.361-2.069 2.234-4.022 4.344-5.103 7.098-.189.481-1.214 3.171-1.214 3.171l-1.38 3.626zm.793-51.991c-2.132 3.066-3.578 6.388-4.315 9.911-2.22 10.679.614 21.084 3.355 31.15l.816 3.007c1.252-2.988 3.365-5.273 5.414-7.485.412-.443.823-.886 1.228-1.337l1.697-1.876c2.829-3.112 5.754-6.332 8.126-9.852 1.401-2.077 2.944-4.361 3.843-7.344l-1.396 1.137c-2.727 2.23-5.241 4.283-7.765 6.316-3.928 3.168-6.325 6.092-7.771 9.481l-.467 1.097-3.069-1.563.077-.759c.921-9.158.633-18.522.355-27.576-.045-1.433-.088-2.869-.128-4.307z" fill="#2A5A95"/><path d="M26.642 53.156c3.843-3.493 8.422-5.964 12.502-9.119 5.377-4.163 10.629-8.451 14.187-15.637-8.177 4.32-15.852 7.648-21.971 13.574-.904-.68 3.64-19.661 5.641-29.113-3.215 2.575-5.126 5.121-6.719 7.963-5.551 9.889-5.433 20.809-5.764 31.644-.026.864-.496 2.772-.496 2.772s2.057-1.572 2.62-2.084" fill="#2A5A95"/><path d="M22.185 58.046l.755-3.072c.171-.693.449-1.996.465-2.54l.067-2.375c.275-10.018.557-20.375 5.838-29.781 1.917-3.416 4.008-5.895 6.997-8.286l2.431-1.948-.645 3.048a958.347 958.347 0 01-1.732 7.893c-1.332 5.989-3.2 14.389-3.811 18.413 4.729-4 10.204-6.807 15.961-9.756 1.414-.723 2.85-1.46 4.301-2.226l3.048-1.611-1.529 3.09c-3.565 7.197-8.679 11.515-14.507 16.022-1.67 1.294-3.437 2.481-5.147 3.634-2.485 1.668-5.052 3.395-7.285 5.428-.585.531-2.479 1.983-2.693 2.146l-2.514 1.921zm12.996-42.043c-1.508 1.561-2.754 3.272-3.931 5.366-5.008 8.927-5.283 19.003-5.55 28.751l-.067 2.381-.005.058c.106-.088.197-.165.264-.226v-.003c2.356-2.14 4.993-3.915 7.541-5.628 1.679-1.131 3.416-2.297 5.028-3.546 4.662-3.606 8.843-7.078 12.048-12.036-.331.168-.656.336-.985.505-6.417 3.287-12.48 6.393-17.388 11.152l-.685.661-.761-.573c-1.004-.756-1.075-1.802 3.496-22.36.349-1.569.686-3.088.995-4.502z" fill="#2A5A95"/><path d="M41.965 26.121c4.95-3.424 9.724-6.976 13.182-12.097 2.354-3.485 5.228-6.617 8.454-9.374 1.81-1.558 2.613-2.552 2.613-2.552s-.993.006-2.506.382c-.827.131-1.694.427-2.46.718-10.312 3.918-16.7 11.758-21.269 21.394-.314.665-1.585 3.8-1.585 3.8s2.967-1.855 3.571-2.271" fill="#2A5A95"/><path d="M36.069 31.158l1.295-3.184s1.291-3.184 1.609-3.858c5.38-11.355 12.331-18.331 21.88-21.957.744-.283 1.721-.627 2.681-.78C65.063.995 66.16.984 66.206.984l2.348-.016-1.476 1.828c-.035.046-.886 1.092-2.751 2.698-3.259 2.784-6.034 5.86-8.254 9.153-3.592 5.316-8.425 8.895-13.473 12.39-.612.422-3.617 2.298-3.617 2.298l-2.914 1.823zM62.851 3.824c-.44.133-.854.283-1.209.416-8.974 3.41-15.539 10.028-20.657 20.828-.051.11-.128.291-.224.515.251-.163.453-.299.571-.376 4.87-3.371 9.519-6.81 12.895-11.806 2.329-3.45 5.229-6.671 8.624-9.577zM227.478 153.48c-.972.647-1.791.876-1.791.876s-.28 0-.05-.884c1.128-4.68 1.921-9.284 1.534-14.245-.836-10.775-1.078-21.612 1.83-32.214.166-.598.166-.598.833-2.839.414 2.025 1.273 5.491 1.761 7.508 2.17 8.952 5.252 17.827 2.162 27.194-.107.133-.067.143 0 0-.491 1.771-.261 1.844.63 2.511 0 0 2.466-2.808 3.415-4.379 5.442-9.015 12.473-16.77 19.993-23.953.563-.537 2.09-1.695 2.09-1.695s-.246 1.542-.387 2.234c-1.711 8.395-5.3 16.086-11.125 22.719-6.063 6.902-13.453 12.031-20.895 17.167" fill="#2A5A95"/><path d="M225.84 155.47h-.699l-.413-.483c-.428-.553-.302-1.289-.169-1.796 1.009-4.195 1.898-8.796 1.503-13.877-.809-10.444-1.145-21.623 1.865-32.596.168-.606.168-.606.841-2.863l1.27-4.254.888 4.35c.345 1.684.998 4.366 1.487 6.372l.267 1.097c.277 1.153.57 2.303.867 3.453 1.988 7.773 4.043 15.811 1.305 24.239.715-.876 1.547-1.937 1.996-2.68 4.777-7.909 11.187-15.592 20.177-24.182.592-.566 2.028-1.654 2.188-1.777l2.215-1.676-.443 2.741s-.254 1.571-.395 2.278c-1.812 8.876-5.641 16.693-11.382 23.233-6.214 7.074-13.78 12.299-21.097 17.348l-.016.011c-1.089.723-2.007.992-2.108 1.02l-.147.042zm3.88-46.801c-2.537 10.213-2.199 20.665-1.438 30.472.379 4.857-.371 9.396-1.26 13.3 7.149-4.934 14.528-10.05 20.514-16.862 5.31-6.048 8.907-13.244 10.7-21.405-8.673 8.323-14.869 15.768-19.48 23.409-.99 1.638-3.429 4.422-3.533 4.539l-.678.771-.825-.614c-1.251-.929-1.529-1.596-1.182-3.13l-.155-.323.377-.482c2.5-7.78.619-15.134-1.372-22.918-.296-1.162-.593-2.32-.875-3.48l-.264-1.094c-.166-.673-.347-1.42-.529-2.183zm3.971 30.083l-.003-.887.003.887zm-46.362 33.863c3.53-2.519 8.737-6.626 12.019-9.554-.243 1.132-.496 2.272-.651 2.845-.918 3.365-2.103 5.596-4.184 8.499-3.712 5.183-8.948 8.217-14.493 10.899.445 1.23 1.262 1.457 3.17 1.326l-.002.003.002-.003c1.34-.256 2.685-.48 4.016-.771 4.614-1.012 9.145-2.258 13.925-2.621 7.322-.56 14.749-.445 21.906-2.503l4.552-1.371c-1.497 1.681-3.37 3.156-3.37 3.156-5.922 4.35-11.883 6.734-18.845 9.023-9.821 3.229-19.345 1.643-28.823-1.206-3.515-1.057-7.19-1.791-11.075-3.875 3.274-1.209 5.551-1.996 8.417-3.448 5.846-2.961 6.551-5.382 13.436-10.399" fill="#2A5A95"/><path d="M193.897 194.451c-6.351 0-12.329-1.443-17.666-3.048-.773-.231-1.553-.45-2.34-.669-2.858-.79-5.809-1.609-8.939-3.293l-2.183-1.169 3.322-1.222c2.781-1.022 4.79-1.759 7.298-3.029 3.232-1.635 4.769-3.05 6.899-5.007 1.601-1.467 3.415-3.135 6.385-5.299l.009-.008c3.693-2.634 8.819-6.709 11.925-9.476l2.543-2.268-.715 3.333c-.245 1.155-.507 2.319-.664 2.903-.905 3.317-2.044 5.634-4.353 8.857-3.522 4.918-8.43 7.995-13.369 10.488.264.012.611.005 1.065-.025l1.144-.218c.905-.168 1.812-.334 2.712-.529.982-.216 1.956-.44 2.935-.667 3.587-.827 7.299-1.683 11.141-1.977 1.746-.134 3.496-.23 5.249-.325 5.455-.297 11.094-.604 16.434-2.138l8.314-2.509-2.623 2.949c-1.545 1.735-3.431 3.226-3.511 3.29-5.93 4.358-11.955 6.829-19.187 9.204-4.038 1.33-7.998 1.852-11.825 1.852m-25.551-7.858c2.092.872 4.141 1.443 6.14 1.996.804.223 1.598.445 2.386.679 8.224 2.477 17.999 4.556 28.156 1.215 7.114-2.335 12.67-4.611 18.261-8.662-5.572 1.59-11.318 1.902-16.873 2.207-1.735.093-3.47.187-5.199.319-3.677.281-7.304 1.119-10.813 1.927-.985.228-1.969.457-2.957.673-.926.2-1.857.371-2.788.542l-1.263.234c-1.889.139-3.658.078-4.421-2.041l-.342-.945.902-.434c5.988-2.899 10.674-5.799 14.074-10.543 2.01-2.808 3.058-4.861 3.861-7.62-2.983 2.493-6.655 5.354-9.491 7.379-2.864 2.086-4.628 3.709-6.184 5.137-2.174 1.999-3.893 3.576-7.399 5.353-2.133 1.078-3.966 1.806-6.05 2.584" fill="#2A5A95"/><path d="M207.906 158.452c1.764-5.895 6.205-16.486 12.041-24.067l.307-.339s-.433 2.481-.499 3.005c-.849 6.754-1.668 12.896-3.064 19.28-.955 4.376-3.48 8.085-4.462 12.392-.085.512-.224.803-.224.803s.403-.053 1.03-.023c1.292.088 2.13-.716 3.029-1.468 4.534-3.781 9.27-7.168 14.707-9.682 5.336-2.465 10.46-5.463 15.016-9.281 1.088-1.022 1.088-1.022 2.476-2.181-.464 1.399-1.471 3.692-1.471 3.692-4.042 9.334-10.949 14.111-19.301 18.852-6.856 3.894-14.24 6.224-22.011 7.35-.656.094-3.463.718-3.463.718s1.059-1.615 1.505-2.503c2.508-4.987 2.826-11.331 4.384-16.548" fill="#2A5A95"/><path d="M199.581 179.183l1.505-2.292c.008-.015 1.028-1.571 1.441-2.39 1.503-2.989 2.204-6.595 2.88-10.077.411-2.111.835-4.291 1.433-6.289 2.014-6.736 6.698-17.25 12.224-24.431l2.944-3.24-.656 3.773s-.428 2.44-.492 2.951c-.856 6.808-1.678 12.967-3.082 19.38-.507 2.329-1.433 4.459-2.327 6.522-.776 1.788-1.513 3.49-1.988 5.286.547-.085 1.006-.45 1.681-1.02l.209-.176c5.366-4.477 10.119-7.602 14.951-9.835 5.823-2.693 10.653-5.679 14.768-9.127 1.062-.998 1.062-.998 2.476-2.18l3.005-2.506-1.233 3.712c-.474 1.431-1.467 3.69-1.507 3.784-4.321 9.981-11.819 14.861-19.774 19.376-6.647 3.776-14.184 6.293-22.397 7.483-.643.09-3.381.702-3.384.702l-2.677.594zm9.391-20.414c-.566 1.895-.961 3.928-1.377 6.079-.707 3.632-1.436 7.389-3.077 10.653-.059.112-.125.238-.197.371a19.96 19.96 0 011-.19c7.939-1.15 15.214-3.578 21.618-7.215 7.448-4.23 14.472-8.775 18.565-17.727-4.072 3.253-8.739 6.07-14.266 8.624-4.715 2.181-9.174 5.118-14.458 9.527l-.2.168c-.881.743-1.959 1.647-3.622 1.556-.45-.024-.77.011-.811.016l-2.001.246.852-1.823s.08-.192.133-.518c.52-2.281 1.414-4.342 2.279-6.332.888-2.055 1.732-3.995 2.196-6.111 1.278-5.855 2.071-11.52 2.855-17.688-4.28 6.57-7.821 14.795-9.489 20.364zm32.622-36.684s-.163-3.087-.272-3.576c-.71-3.16-.947-6.386-2.391-9.417-4.705-9.885-9.036-19.921-10.293-30.961-.181-1.179-.544-2.863-.544-2.863s1.171 1.734 1.958 2.791c1.231 1.807 2.434 3.632 3.697 5.417 3.965 5.604 8.461 10.917 9.66 18.005.584-.005 1.171-.01 1.756-.013h.002c.2-.214.403-.425.603-.638.249-2.866 1.287-5.511 2.33-8.147 2.279-5.748 4.998-10.941 6.983-17.202.406-1.275.449-1.465 1.143-4.384.84 3.208 1.617 5.996 1.689 8.961.365 14.922-6.685 27.07-14.493 38.942-.35.531-1.828 3.085-1.828 3.085" fill="#2A5A95"/><path d="M240.679 125.885l-.198-3.742c-.074-1.406-.189-3.103-.248-3.397a65.81 65.81 0 01-.528-2.703c-.416-2.277-.806-4.427-1.78-6.474-4.539-9.537-9.081-19.808-10.394-31.313-.171-1.11-.526-2.754-.526-2.754l-1.212-5.633 3.224 4.774a91.514 91.514 0 001.927 2.751l1.18 1.74c.835 1.238 1.67 2.48 2.535 3.699.549.777 1.112 1.55 1.673 2.324 3.317 4.571 6.743 9.29 7.998 15.203l.37-.019c.321-2.906 1.359-5.529 2.365-8.067.832-2.103 1.724-4.134 2.618-6.167 1.521-3.458 3.092-7.034 4.341-10.962.376-1.185.425-1.393 1.039-3.965l1.109-4.673 1.271 4.843c.811 3.088 1.513 5.753 1.585 8.681.376 15.36-7.043 27.974-14.674 39.58-.345.523-1.796 3.031-1.796 3.031l-1.879 3.243zm-10.677-45.91c1.553 10.402 5.743 19.835 9.935 28.639 1.102 2.314 1.537 4.713 1.959 7.028.157.876.317 1.751.512 2.624l.035.198.048-.076c7.44-11.311 14.672-23.584 14.309-38.304-.035-1.494-.262-2.951-.59-4.464l-.064.2c-1.284 4.04-2.879 7.672-4.425 11.184-.883 2.01-1.763 4.013-2.585 6.09-.993 2.505-2.018 5.094-2.256 7.832l-.034.387-1.196 1.264-3.18.027-.16-.936c-.985-5.842-4.287-10.389-7.782-15.203a272.41 272.41 0 01-1.689-2.346c-.873-1.233-1.716-2.487-2.562-3.741l-.275-.403z" fill="#2A5A95"/><path d="M244.043 86.482s-1.03-2.701-1.216-3.184c-1.388-3.533-4.099-6.057-6.562-8.796-3.443-3.832-7.032-7.565-9.919-11.851-2.058-3.052-4.081-6.177-4.652-10.818 4.302 3.507 7.934 6.49 11.595 9.441 3.397 2.738 6.351 5.826 8.094 9.911l1.326-.677c-1.174-11.697-.405-23.388-.155-35.153 3.288 3.845 5.458 8.123 6.44 12.841 2.521 12.107-1.209 23.518-4.265 34.982-.125.467-.686 3.304-.686 3.304" fill="#2A5A95"/><path d="M244.384 90.503l-1.38-3.626s-1.027-2.69-1.214-3.171c-1.081-2.751-3.032-4.862-5.1-7.093-.419-.453-.84-.907-1.254-1.366l-1.676-1.852c-2.887-3.178-5.873-6.463-8.339-10.122-1.874-2.78-4.209-6.239-4.833-11.304l-.339-2.748 6.063 4.944c2.693 2.199 5.18 4.23 7.675 6.242 3.456 2.786 5.82 5.425 7.443 8.342-.726-8.694-.454-17.479-.195-25.992.077-2.473.152-4.947.205-7.426l.064-2.917 1.895 2.218c3.426 4.003 5.676 8.491 6.684 13.337 2.333 11.203-.573 21.872-3.383 32.188l-.897 3.307c-.12.456-.667 3.231-.667 3.234l-.752 3.805zm-20.957-35.817c.9 2.983 2.442 5.267 3.841 7.344 2.377 3.525 5.305 6.749 8.139 9.865l1.689 1.863c.403.451.817.897 1.227 1.342 2.047 2.21 4.163 4.492 5.412 7.48l.814-3.007c2.743-10.066 5.577-20.471 3.354-31.15-.734-3.523-2.18-6.845-4.312-9.911-.04 1.438-.085 2.877-.128 4.312-.277 9.054-.566 18.416.355 27.571l.075.759-3.064 1.563-.47-1.097c-1.448-3.389-3.842-6.313-7.77-9.481a1413.965 1413.965 0 01-7.686-6.25l-1.476-1.203z" fill="#2A5A95"/><path d="M234.782 53.156c-3.843-3.493-8.422-5.964-12.502-9.119-5.377-4.163-10.629-8.451-14.186-15.637 8.177 4.32 15.851 7.648 21.97 13.574.905-.68-3.64-19.661-5.641-29.113 3.216 2.575 5.126 5.121 6.719 7.963 5.551 9.889 5.434 20.809 5.764 31.644.027.864.497 2.772.497 2.772s-2.058-1.572-2.621-2.084" fill="#2A5A95"/><path d="M239.24 58.046l-2.513-1.921c-.214-.163-2.111-1.615-2.693-2.146-2.236-2.033-4.804-3.76-7.288-5.43-1.71-1.151-3.477-2.338-5.147-3.632-5.828-4.51-10.944-8.828-14.504-16.022l-1.529-3.09 3.047 1.611a353.77 353.77 0 004.302 2.226c5.753 2.949 11.229 5.756 15.958 9.759-.608-4.027-2.477-12.43-3.811-18.419-.645-2.916-1.259-5.668-1.729-7.89l-.646-3.048 2.431 1.948c2.986 2.391 5.079 4.868 6.997 8.286 5.279 9.409 5.561 19.769 5.836 29.786l.07 2.37c.016.544.291 1.847.461 2.54l.758 3.072zM210.916 31.12c3.203 4.958 7.384 8.428 12.046 12.036 1.612 1.246 3.349 2.415 5.028 3.544 2.548 1.715 5.185 3.49 7.541 5.63l.003.003c.067.061.154.138.261.226l-.003-.058-.066-2.375c-.267-9.748-.544-19.83-5.554-28.757-1.176-2.094-2.42-3.805-3.93-5.363.309 1.411.648 2.93.995 4.493 4.574 20.564 4.499 21.61 3.496 22.366l-.763.573-.683-.661c-4.908-4.759-10.971-7.865-17.389-11.152-.328-.169-.653-.337-.982-.505z" fill="#2A5A95"/><path d="M219.459 26.121c-4.95-3.424-9.721-6.976-13.182-12.097-2.354-3.485-5.228-6.617-8.452-9.374-1.812-1.558-2.615-2.552-2.615-2.552s.993.006 2.506.382c.827.131 1.695.427 2.46.718 10.312 3.918 16.7 11.758 21.269 21.394.315.665 1.585 3.8 1.585 3.8s-2.967-1.855-3.571-2.271" fill="#2A5A95"/><path d="M225.355 31.159l-2.914-1.823s-3.004-1.876-3.616-2.298c-4.848-3.356-9.881-7.077-13.473-12.392-2.221-3.291-4.998-6.37-8.251-9.148-1.871-1.609-2.72-2.658-2.757-2.703L192.874.97l2.345.015c.046 0 1.14.011 2.765.414.867.134 1.847.478 2.588.76 9.549 3.627 16.5 10.603 21.877 21.955.321.677 1.612 3.859 1.612 3.859l1.294 3.186zm-5.262-5.954c.117.08.318.214.571.376-.096-.221-.174-.403-.227-.515-5.116-10.797-11.68-17.415-20.654-20.825-.361-.136-.78-.291-1.215-.419 3.397 2.903 6.301 6.127 8.63 9.577 3.376 5.001 8.028 8.438 12.895 11.806z" fill="#2A5A95"/></g></svg>